<?xml version="1.0" encoding="UTF-8" standalone="no"?>
<svg
   xmlns:dc="http://purl.org/dc/elements/1.1/"
   xmlns:cc="http://creativecommons.org/ns#"
   xmlns:rdf="http://www.w3.org/1999/02/22-rdf-syntax-ns#"
   xmlns:svg="http://www.w3.org/2000/svg"
   xmlns="http://www.w3.org/2000/svg"
   xmlns:sodipodi="http://sodipodi.sourceforge.net/DTD/sodipodi-0.dtd"
   xmlns:inkscape="http://www.inkscape.org/namespaces/inkscape"
   version="1.1"
   id="svg2"
   xml:space="preserve"
   width="248.82668"
   height="562.26666"
   viewBox="0 0 248.82668 562.26666"
   sodipodi:docname="Raute_Vektor.eps"><metadata
     id="metadata8"><rdf:RDF><cc:Work
         rdf:about=""><dc:format>image/svg+xml</dc:format><dc:type
           rdf:resource="http://purl.org/dc/dcmitype/StillImage" /></cc:Work></rdf:RDF></metadata><defs
     id="defs6" /><sodipodi:namedview
     pagecolor="#ffffff"
     bordercolor="#666666"
     borderopacity="1"
     objecttolerance="10"
     gridtolerance="10"
     guidetolerance="10"
     inkscape:pageopacity="0"
     inkscape:pageshadow="2"
     inkscape:window-width="640"
     inkscape:window-height="480"
     id="namedview4" /><g
     id="g10"
     inkscape:groupmode="layer"
     inkscape:label="ink_ext_XXXXXX"
     transform="matrix(1.3333333,0,0,-1.3333333,0,562.26667)"><g
       id="g12"
       transform="scale(0.1)"><path
         d="M 15.1211,2108.89 933.121,4181.76 1850.4,2108.89 933.121,35.2695 15.1211,2108.89"
         style="fill:#0e88d3;fill-opacity:1;fill-rule:evenodd;stroke:none"
         id="path14" /><path
         d="M 2.16406,2103.12 0,2108.89 l 2.16406,5.75 12.95704,-5.75 z M 920.16,29.5195 2.16406,2103.12 28.082,2114.64 946.078,40.3203 920.16,29.5195 Z m 25.918,0 L 933.121,0 920.16,29.5195 l 12.961,5.75 12.957,-5.75 z M 1863.36,2103.12 946.078,29.5195 920.16,40.3203 1837.44,2114.64 l 25.92,-11.52 z m 0,11.52 2.88,-5.75 -2.88,-5.77 -12.96,5.77 12.96,5.75 z M 946.078,4187.52 1863.36,2114.64 1837.44,2103.12 920.16,4176 l 25.918,11.52 z m -25.918,0 12.961,29.52 12.957,-29.52 -12.957,-5.76 -12.961,5.76 z M 2.16406,2114.64 920.16,4187.52 946.078,4176 28.082,2103.12 2.16406,2114.64 v 0"
         style="fill:#0e88d3;fill-opacity:1;fill-rule:nonzero;stroke:none"
         id="path16" /><path
         d="M 1144.08,1823.04 V 1681.2 h -15.12 v 141.11 c 5.04,0 9.36,0 15.12,0.73 z m 0,197.99 v -28.07 c -5.04,0.72 -9.36,0.72 -14.4,0 -40.32,-1.44 -60.48,-10.8 -60.48,-28.8 0.72,-18.72 21.6,-29.52 62.64,-31.68 4.32,-0.72 7.92,-0.72 12.24,-0.72 v -28.08 c -5.04,0 -9.36,0 -15.12,0 -22.32,2.16 -42.48,7.92 -59.76,18 -18,10.08 -26.64,24.48 -26.64,42.48 0.72,18 8.64,31.68 25.92,41.03 16.56,9.37 35.28,14.41 56.88,15.13 6.48,0.71 12.24,0.71 18.72,0.71 z m 0,146.89 V 2142 c -5.76,0 -10.8,0 -16.56,-0.72 -38.16,-4.33 -56.88,-15.12 -56.88,-31.68 0.72,-16.56 20.88,-26.64 61.2,-30.24 4.32,-0.73 7.92,-0.73 12.24,-0.73 v -28.79 c -9.36,-0.72 -18.72,0 -28.8,2.16 -19.44,3.6 -36.72,10.79 -51.12,22.32 -13.68,10.8 -20.88,23.76 -21.6,37.44 0,13.68 7.92,25.91 23.04,35.28 15.12,9.37 33.84,15.84 54.72,19.44 7.92,1.44 15.84,1.44 23.76,1.44 z m 0,371.52 v -157.68 c -5.76,1.44 -10.08,1.44 -15.12,1.44 v 156.24 h 15.12 z m -74.88,-280.08 c 0,-15.84 18,-26.64 54.72,-32.41 7.2,-0.71 13.68,-1.43 20.16,-0.71 v -25.21 c -7.2,-0.71 -14.4,0 -22.32,0.73 -20.88,2.88 -38.88,8.64 -54.72,18 -15.84,10.08 -23.76,23.03 -24.48,39.6 0,15.12 7.92,28.08 23.76,38.16 16.56,10.8 34.56,16.56 56.16,19.44 7.2,0.72 14.4,0.72 21.6,0 v -26.64 c -5.76,0 -10.8,-0.72 -16.56,-1.44 -38.16,-5.04 -57.6,-15.12 -58.32,-29.52 z m 74.88,-33.12 c 28.08,0 53.28,10.8 75.61,30.96 -20.17,21.6 -45.36,33.12 -75.61,33.12 v 26.64 c 13.68,0 28.08,-2.88 41.76,-7.2 21.6,-7.2 37.44,-20.16 48.95,-38.16 15.13,29.52 11.53,38.88 0.73,65.52 -6.48,18 -56.16,39.6 -91.44,44.64 v 157.68 h 7.2 v -135.36 c 38.16,-3.6 98.64,-31.68 108.72,-64.08 11.52,-33.84 7.92,-50.4 -9.36,-84.24 29.53,-57.61 28.8,-105.84 -1.44,-144 16.56,-25.92 23.76,-51.12 22.32,-75.6 -1.43,-24.48 -8.64,-46.8 -22.32,-66.96 18.72,-27.37 23.04,-61.2 14.4,-102.96 -9.36,-41.05 -75.6,-67.68 -112.32,-67.68 V 1681.2 h -7.2 v 141.84 c 37.44,3.6 90.71,20.87 97.2,45.36 7.92,28.08 5.76,54 -5.04,77.76 -7.2,-15.13 -20.88,-26.64 -42.48,-33.85 -15.84,-5.04 -32.4,-7.91 -49.68,-8.63 v 28.08 c 34.56,0.72 59.76,11.52 75.61,32.4 -17.29,18 -42.49,28.08 -75.61,28.8 v 28.07 c 15.12,-0.71 29.52,-3.59 43.92,-7.19 20.88,-5.76 35.28,-14.4 43.92,-26.64 12.96,20.16 18.72,38.87 15.84,57.6 -2.15,17.99 -7.19,33.83 -14.4,47.51 -15.84,-19.43 -34.56,-31.67 -56.16,-37.44 -10.8,-3.59 -22.32,-5.03 -33.12,-5.03 v 28.79 c 33.84,-0.71 59.04,10.09 75.61,33.13 -20.17,20.15 -45.36,30.24 -75.61,30.24 v 25.92 c 12.96,0 25.92,-1.44 38.88,-4.33 20.88,-4.31 38.16,-15.1 50.4,-30.23 22.32,28.8 21.6,61.91 -1.44,99.36 -10.8,-12.96 -26.64,-21.61 -47.53,-26.65 -13.67,-3.59 -26.63,-5.04 -40.31,-5.04 v 25.21"
         style="fill:#ffffff;fill-opacity:1;fill-rule:evenodd;stroke:none"
         id="path18" /><path
         d="m 1145.52,1798.56 v 7.2 h 5.76 v -7.2 z m 102.24,30.96 c -25.91,-23.76 -69.12,-38.16 -96.48,-38.16 v 14.4 c 25.19,0 65.53,12.96 89.29,35.27 l 7.19,-11.51 z m 13.68,15.84 c -3.6,-5.76 -8.64,-10.8 -13.68,-15.84 l -7.19,11.51 c 4.31,4.33 8.63,8.65 11.51,12.96 l 9.36,-8.63 z m 7.92,19.44 c -1.44,-7.2 -4.32,-12.97 -7.92,-19.44 l -9.36,8.63 c 2.88,4.33 4.32,9.37 5.76,14.41 l 11.52,-3.6 z m 0,0 v 0 l -5.76,1.44 z m 0,0 v 0 l -11.52,3.6 v 0 z m 2.88,59.76 c 2.88,-18 1.44,-38.15 -2.88,-59.76 l -11.52,3.6 c 4.32,19.44 5.04,37.44 2.88,54 l 11.52,2.16 z m -18,48.96 c 9.36,-14.4 15.85,-30.96 18,-48.96 l -11.52,-2.16 c -2.16,15.84 -7.2,29.51 -15.84,42.47 l 9.36,8.65 z m -9.36,-8.65 -2.88,4.33 2.88,4.32 4.32,-4.32 -4.32,-4.33 z m 29.51,48.97 c -3.59,-17.28 -10.79,-33.84 -20.15,-48.97 l -9.36,8.65 c 8.64,13.68 15.12,28.08 18,43.92 l 11.51,-3.6 z m 1.45,10.8 c 0,-3.61 -0.72,-7.2 -1.45,-10.8 l -11.51,3.6 c 0.72,2.88 1.45,5.75 1.45,9.36 l 11.51,-2.16 z m 1.44,10.8 c 0,-3.61 -0.72,-7.2 -1.44,-10.8 l -11.51,2.16 c 0.71,2.88 0.71,6.48 1.43,9.36 l 11.52,-0.72 z m 0,0 v 0 l -11.52,0.72 v 0.71 z m -11.52,1.43 v 0 l 5.76,-0.71 -5.76,0.71 z m 0,56.17 c 8.63,-19.45 12.24,-38.17 11.52,-57.6 l -11.52,1.43 c 0.71,15.85 -2.88,33.13 -10.08,49.69 l 10.08,6.48 z m -5.04,11.52 c 2.16,-3.6 3.61,-7.92 5.04,-11.52 l -10.08,-6.48 c -1.44,3.6 -2.88,7.2 -5.04,10.08 l 10.08,7.92 z m -6.48,10.8 c 2.16,-3.6 4.32,-7.21 6.48,-10.8 l -10.08,-7.92 c -1.44,3.59 -3.6,7.2 -5.76,10.8 l 9.36,7.92 z m 0,0.71 v -0.71 l -9.36,-7.92 v 0 l 9.36,8.63 z m -9.36,-8.63 -2.88,5.04 2.88,4.32 4.32,-5.04 -4.32,-4.32 z m 29.51,102.24 c 9.37,-39.6 2.17,-73.44 -20.87,-102.96 l -8.64,10.08 c 20.16,25.2 25.92,54.72 18,89.27 l 11.51,3.61 z m -7.19,23.76 c 2.89,-8.64 5.76,-15.84 7.19,-23.76 l -11.51,-3.61 c -1.44,7.21 -3.6,13.69 -5.76,20.88 l 10.08,6.49 z m -10.08,23.76 c 3.6,-7.92 7.21,-15.84 10.08,-23.76 l -10.08,-6.49 c -2.88,7.21 -6.48,15.13 -10.08,23.05 l 10.08,7.2 z m -1.44,2.16 c 1.44,-2.16 0.72,-0.73 1.44,-2.16 l -10.08,-7.2 c -1.43,2.88 -0.72,0.72 -1.43,1.44 l 10.07,7.92 z m -10.07,-7.92 -1.45,3.6 1.45,4.32 5.03,-3.6 -5.03,-4.32 z m 26.63,45.36 c -2.15,-13.68 -7.2,-26.64 -16.56,-44.64 l -10.07,7.2 c 8.63,15.84 12.95,27.36 14.39,39.6 l 12.24,-2.16 z m -6.48,46.08 c 5.76,-18 7.92,-32.4 6.48,-46.08 l -12.24,2.16 c 1.44,11.52 0,23.04 -5.04,38.88 l 10.8,5.04 z m -77.04,59.76 c 33.84,-12.24 68.4,-34.56 77.04,-59.76 l -10.8,-5.04 c -7.2,20.16 -38.89,40.32 -69.12,51.12 l 2.88,13.68 z m -18.72,5.76 c 5.76,-1.44 12.24,-3.6 18.72,-5.76 l -2.88,-13.68 c -6.48,2.16 -12.24,4.32 -18,5.04 l 2.16,14.4 z m -18,2.88 c 5.76,-0.72 11.52,-1.44 18,-2.88 l -2.16,-14.4 c -6.48,1.44 -11.52,2.88 -16.56,2.88 l 0.72,14.4 z m 0,0 v 0 l -0.72,-14.4 h -0.71 z m -1.43,-14.4 -5.05,0.72 v 6.48 h 5.76 l -0.71,-7.2 z m 6.47,142.56 v -135.36 h -11.52 v 135.36 h 11.52 z m -5.76,7.2 h 5.76 v -7.2 h -5.76 v 7.2 z m -22.32,0 h 22.32 v -13.68 h -22.32 v 13.68 z m -5.76,-7.2 v 7.2 h 5.76 v -7.2 h -5.76 z m 0,-156.24 v 156.24 h 12.24 V 2383.2 h -12.24 z m 5.76,-7.2 h -5.76 v 7.2 h 5.76 v -7.2 z m 85.68,-27.36 C 1191.6,2363.76 1152,2376 1128.96,2376 v 14.4 c 24.48,0 66.24,-13.68 91.44,-28.8 l -5.76,-12.96 z m 10.8,-7.92 c -2.88,2.16 -6.48,5.04 -10.8,7.92 l 5.76,12.96 c 5.04,-3.6 9.37,-6.48 12.25,-10.08 l -7.21,-10.8 z m 5.04,-6.48 c -0.71,1.44 -2.16,3.6 -5.04,6.48 l 7.21,10.8 c 4.31,-3.6 7.18,-7.2 8.63,-11.52 l -10.8,-5.76 z m 0,0 v 0 l 5.04,2.88 z m 0,0 v 0 l 10.8,5.76 v 0 z m 0,0 v 0 l 5.04,2.88 z m 0,-0.72 c 0,0.72 0,0.72 0,0.72 l 10.8,5.76 c 0,0 -0.71,0.72 0,0 l -10.8,-6.48 z m 10.8,6.48 v 0 l -5.04,-2.88 5.04,2.88 z m -11.51,-65.52 c 13.67,27.36 10.06,36 0.71,59.76 l 10.8,5.76 c 11.52,-28.8 15.12,-39.6 -1.45,-72 l -10.06,6.48 z m 10.06,-6.48 -4.31,-8.64 -5.75,7.92 5.02,4.32 5.04,-3.6 z m -34.55,41.04 c 13.68,-7.92 25.2,-19.44 34.55,-33.84 l -10.06,-7.92 c -7.21,12.24 -17.29,21.6 -29.54,28.8 l 5.05,12.96 z m -8.64,3.6 c 2.88,-0.72 5.76,-2.16 8.64,-3.6 l -5.05,-12.96 c -2.87,1.44 -5.03,2.16 -7.92,3.6 l 4.33,12.96 z m -9.36,3.6 c 2.89,-0.72 6.48,-2.16 9.36,-3.6 l -4.33,-12.96 c -2.87,0.72 -5.03,2.16 -7.92,2.88 l 2.89,13.68 z m -2.89,-13.68 v 0 l 1.45,7.2 -1.45,-7.2 z m 2.89,13.68 v 0 l -2.89,-13.68 v 0 l 2.89,13.68 z m 0,0 v 0 l -1.44,-6.48 z m -33.12,7.2 c 10.8,-0.72 22.31,-3.6 33.12,-7.2 l -2.89,-13.68 c -10.79,3.6 -20.87,5.76 -30.95,7.2 l 0.72,13.68 z m -32.4,0 c 11.52,1.44 21.6,1.44 32.4,0 l -0.72,-13.68 c -10.79,0.72 -20.16,0.72 -30.24,0 l -1.44,13.68 z m 0,0 v 0 l 0.72,-6.48 z m -43.2,-11.52 c 12.96,6.48 27.36,10.08 43.2,11.52 l 1.44,-13.68 c -15.12,-1.44 -28.08,-5.04 -40.32,-10.8 l -4.32,12.96 z m -7.2,-3.6 c 2.16,1.44 5.04,2.88 7.2,3.6 l 4.32,-12.96 c -2.16,-1.44 -5.04,-2.16 -7.2,-3.6 l -4.32,12.96 z m -7.2,-4.32 c 2.16,1.44 4.32,2.88 7.2,4.32 l 4.32,-12.96 c -1.44,-0.72 -4.32,-2.16 -6.48,-3.6 l -5.04,12.24 z m 5.04,-12.24 v 0 l -2.16,5.76 2.16,-5.76 z m -5.04,12.24 c 0,0 -0.72,0 0,0 l 5.04,-12.24 c -0.72,-0.72 0,0 0,0 l -5.04,12.24 z m -27.36,-44.64 c 0,18 9.36,33.12 27.36,44.64 l 5.04,-12.24 c -13.68,-9.36 -20.88,-20.16 -20.88,-32.4 h -11.52 z m 0,-0.73 v 0.73 h 5.76 l -5.76,-0.73 z m 7.2,-25.91 c -4.32,7.92 -7.2,16.56 -7.2,25.91 l 11.52,0.73 c 0.72,-6.48 2.16,-12.95 5.04,-18 l -9.36,-8.64 z m 20.16,-18.73 c -8.64,5.04 -15.12,11.53 -20.16,18.73 l 9.36,8.64 c 3.6,-5.76 9.36,-10.79 15.84,-15.12 l -5.04,-12.25 z m 0,0 v 0 l 2.88,5.77 z m 39.6,-15.84 c -14.4,2.88 -28.08,8.65 -39.6,15.84 l 5.04,12.25 c 10.8,-6.48 23.04,-11.51 36.72,-14.41 l -2.16,-13.68 z m 8.64,-2.15 c -2.88,0.72 -5.76,1.44 -8.64,2.15 l 2.16,13.68 c 2.88,-0.72 5.04,-1.43 7.92,-1.43 l -1.44,-14.4 z m 8.64,-1.44 c -2.88,0.71 -5.76,1.44 -8.64,1.44 l 1.44,14.4 c 2.88,-0.72 5.76,-1.44 8.64,-1.44 l -1.44,-14.4 z m 0,0 v 0 l 0.72,7.2 z m 0.72,0 h -0.72 l 1.44,14.4 v 0 l -0.72,-14.4 z m 45.36,0.71 c -15.12,-2.15 -30.96,-2.15 -45.36,-0.71 l 0.72,14.4 c 13.68,-1.44 28.8,-1.44 43.2,0.72 l 1.44,-14.41 z m 9.35,1.45 c -2.87,0 -6.47,-0.72 -9.35,-1.45 l -1.44,14.41 c 2.88,0 5.76,0.72 8.65,1.43 l 2.14,-14.39 z m 8.65,2.17 c -2.88,-0.74 -5.76,-1.45 -8.65,-2.17 l -2.14,14.39 c 2.87,0.72 5.76,0.72 8.63,1.45 l 2.16,-13.67 z m 0,0 v 0 l -2.16,13.67 v 0 z m 0,0 v 0 l -0.73,7.18 z m 28.81,11.51 c -7.92,-5.04 -17.29,-8.64 -28.81,-11.51 l -2.16,13.67 c 10.08,2.88 18.72,6.47 26.64,10.09 l 4.33,-12.25 z m 21.59,17.27 c -5.75,-7.19 -12.96,-12.94 -21.59,-17.27 l -4.33,12.25 c 7.21,4.3 12.96,9.35 18.01,15.1 l 7.91,-10.08 z m -7.91,10.08 5.04,5.77 3.59,-6.48 -4.32,-4.32 -4.31,5.03 z m 13.67,-76.31 c 5.76,20.16 1.44,42.48 -14.4,66.96 l 9.36,8.64 c 18,-28.8 23.76,-55.44 16.56,-79.92 l -11.52,4.32 z m -4.32,-11.52 c 2.16,4.32 3.61,7.92 4.32,11.52 l 11.52,-4.32 c -1.44,-5.04 -3.6,-10.08 -5.76,-14.4 l -10.08,7.2 z m -7.19,-10.8 c 2.88,3.6 5.02,7.2 7.19,10.8 l 10.08,-7.2 c -2.88,-4.32 -5.76,-9.36 -8.64,-13.69 l -8.63,10.09 z m 8.63,-10.09 v 0 l -4.32,5.05 4.32,-5.05 z m -9.36,8.64 c 0,0.73 0,0.73 0.73,1.45 l 8.63,-10.09 -0.71,-0.71 -8.65,9.35 z m 8.65,-9.35 -4.33,-5.76 -4.32,5.76 4.32,5.04 4.33,-5.04 z m -36.01,36.72 c 14.39,-5.76 26.64,-15.12 36.01,-27.37 l -8.65,-9.35 c -7.92,10.08 -18.72,18 -30.95,23.76 l 3.59,12.96 z m -8.64,3.59 c 2.89,-1.43 5.76,-2.15 8.64,-3.59 l -3.59,-12.96 c -2.89,0.71 -5.05,1.44 -7.92,2.88 l 2.87,13.67 z m -9.36,2.17 c 3.6,-0.72 6.49,-1.44 9.36,-2.17 l -2.87,-13.67 c -2.89,0.72 -5.78,1.45 -8.65,2.16 l 2.16,13.68 z m 0,0 v 0 l -0.72,-7.21 z m 0,0 v 0 l -2.16,-13.68 v 0 z m -32.4,4.32 c 10.8,-0.72 21.6,-2.16 32.4,-4.32 l -2.16,-13.68 c -10.08,2.16 -20.88,3.6 -30.95,3.6 l 0.71,14.4 z m -31.68,-1.44 c 10.8,1.44 20.88,2.16 31.68,1.44 l -0.71,-14.4 c -10.09,0.72 -19.45,0 -30.25,-1.44 l -0.72,14.4 z m 0,0 v 0 l 0.72,-7.2 z m -30.24,-7.92 c 9.36,3.6 19.44,5.76 30.24,7.92 l 1.44,-14.4 c -10.08,-1.44 -20.16,-3.6 -28.8,-7.2 l -2.88,13.68 z m -26.64,-12.24 c 7.92,5.04 17.28,9.36 26.64,12.24 l 2.88,-13.68 c -8.64,-2.88 -16.56,-6.48 -23.76,-11.51 l -5.76,12.95 z m 5.76,-12.95 v 0 l -2.88,6.47 2.88,-6.47 z m -24.48,-5.05 c 4.32,6.48 10.8,12.23 18.72,18 l 5.76,-12.95 c -7.2,-4.33 -12.24,-8.66 -15.12,-13.7 l -9.36,8.65 z m -7.2,-23.76 c 0,8.64 2.16,16.56 7.2,23.76 l 9.36,-8.65 c -2.88,-5.04 -5.04,-10.07 -5.04,-15.11 h -11.52 z m 0,0 v 0 h 5.76 z m 12.24,-32.4 c -7.92,10.08 -12.24,20.87 -12.24,32.4 h 11.52 c 0.72,-7.92 3.6,-15.12 9.36,-22.32 l -8.64,-10.08 z m 0,0 v 0 l 4.32,5.04 z m 5.04,-5.04 c -1.44,1.44 -2.88,3.6 -5.04,5.04 l 8.64,10.08 c 1.44,-1.44 2.88,-2.88 4.32,-4.32 l -7.92,-10.8 z m 5.76,-5.04 c -1.44,1.44 -3.6,2.88 -5.76,5.04 l 7.92,10.8 c 1.44,-1.44 2.88,-2.88 5.04,-4.32 l -7.2,-11.52 z m 1.44,-1.44 c 0,0 -0.72,0.72 -1.44,1.44 l 7.2,11.52 c 0,0 0,0 0.72,-0.72 l -6.48,-12.24 z m 6.48,12.24 v 0 l -3.6,-5.76 3.6,5.76 z m 18,-26.64 c -8.64,3.6 -17.28,8.64 -24.48,15.12 l 6.48,11.52 c 6.48,-5.04 13.68,-10.08 22.32,-13.67 l -4.32,-12.97 z m 28.8,-8.64 c -10.08,1.44 -20.16,5.04 -28.8,8.64 l 4.32,12.97 c 7.92,-3.62 16.56,-5.77 26.64,-7.92 l -2.16,-13.69 z m 2.16,13.69 v 0 l -1.44,-6.49 1.44,6.49 z m 43.2,-14.41 c -15.84,-2.88 -30.24,-2.17 -45.36,0.72 l 2.16,13.69 c 13.68,-2.17 27.36,-2.89 41.76,-0.74 l 1.44,-13.67 z m 9.36,1.44 c -3.6,-0.72 -6.48,-1.44 -9.36,-1.44 l -1.44,13.67 c 2.88,0.74 5.76,0.74 8.64,1.45 l 2.16,-13.68 z m 9.36,2.15 c -3.6,-0.72 -6.48,-1.43 -9.36,-2.15 l -2.16,13.68 c 2.88,0.72 5.76,1.44 8.64,2.16 l 2.88,-13.69 z m 0,0 v 0 l -1.44,6.49 z m 0,0 v 0 l -2.88,13.69 h 0.71 z m 44.64,24.49 c -13.68,-12.24 -28.08,-20.16 -44.64,-24.49 l -2.17,13.69 c 14.41,4.32 28.09,11.52 39.6,21.6 l 7.21,-10.8 z m 7.2,7.2 c -2.87,-2.88 -5.04,-5.04 -7.2,-7.2 l -7.21,10.8 c 2.17,2.16 4.33,4.31 6.49,6.48 l 7.92,-10.08 z m 7.21,7.91 c -2.9,-2.87 -5.04,-5.75 -7.21,-7.91 l -7.92,10.08 c 2.17,2.87 4.32,5.04 6.48,7.92 l 8.65,-10.09 z m -8.65,10.09 v 0 l 4.32,-5.05 -4.32,5.05 z m 8.65,-10.09 v 0 l -8.65,10.09 c 0,0 -0.72,-0.72 0,-0.72 l 8.65,-9.37 z m -8.65,9.37 5.04,7.2 4.32,-7.92 -5.04,-3.61 -4.32,4.33 z m 10.79,-38.89 c -2.87,11.53 -6.47,21.61 -11.51,30.25 l 10.08,7.92 c 5.04,-10.08 9.36,-21.6 12.24,-34.56 l -10.81,-3.61 z m 1.45,-7.18 c -0.71,2.15 -1.45,5.03 -1.45,7.18 l 10.81,3.61 c 0.72,-2.16 1.44,-5.04 1.44,-7.92 l -10.8,-2.87 z m 0.72,-7.21 c 0,2.88 -0.72,5.04 -0.72,7.21 l 10.8,2.87 c 0.72,-2.87 1.44,-5.04 1.44,-7.92 l -11.52,-2.16 z m 0,0 v 0 l 11.52,2.16 v 0 z m 0,0 v 0 l 5.76,1.44 z m -2.17,-24.47 c 2.89,7.91 3.61,16.55 2.17,24.47 l 11.52,2.16 c 1.44,-10.08 0.72,-20.88 -2.16,-30.96 l -11.53,4.33 z m -12.95,-26.65 c 6.48,8.64 10.81,17.99 12.95,26.65 l 11.53,-4.33 c -2.88,-10.8 -7.92,-20.88 -15.12,-31.68 l -9.36,9.36 z m 9.36,-9.36 -4.32,-6.47 -4.31,6.47 4.31,4.32 4.32,-4.32 z m -30.23,31.68 c 12.95,-5.76 23.03,-12.96 30.23,-22.32 l -8.63,-9.36 c -5.76,7.2 -14.41,13.68 -25.93,18.72 l 4.33,12.96 z m -7.92,3.59 c 2.88,-1.43 5.03,-2.15 7.92,-3.59 l -4.33,-12.96 c -2.16,0.71 -4.32,2.16 -7.2,2.88 l 3.61,13.67 z m -8.65,2.17 c 2.87,-0.72 5.76,-1.43 8.65,-2.17 l -3.61,-13.67 c -2.17,0.71 -5.04,1.44 -7.92,2.16 l 2.88,13.68 z m 0,0.71 v -0.71 l -1.44,-6.48 1.44,7.19 z m 0,-0.71 c 0,0 -0.72,0.71 0,0.71 l -2.88,-14.39 v 0 l 2.88,13.68 z m 0,0 v 0 l -1.44,-6.48 z m -46.08,7.2 c 15.12,0 30.97,-2.88 46.08,-7.2 l -2.88,-13.68 c -14.4,4.32 -28.8,6.48 -43.91,7.2 l 0.71,13.68 z m -8.64,0.72 c 2.16,0 5.04,0 8.64,-0.72 l -0.71,-13.68 c -2.89,0 -5.77,0 -7.93,0 v 14.4 z m -9.36,-0.72 c 2.88,0 5.76,0.72 9.36,0.72 v -14.4 c -2.88,0 -5.76,0 -8.64,0 l -0.72,13.68 z m 0,0 v 0 -7.2 z m 0,0 c 0,0 -0.72,0 0,0 l 0.72,-13.68 c -0.72,-0.72 0,0 -0.72,-0.72 z m -43.92,-8.63 c 12.96,5.03 28.08,7.91 43.92,8.63 v -14.4 c -14.4,-0.72 -28.08,-3.6 -41.04,-7.93 l -2.88,13.7 z m -7.92,-3.62 c 2.16,1.45 5.04,2.17 7.92,3.62 l 2.88,-13.7 c -2.16,-0.71 -4.32,-2.15 -6.48,-2.88 l -4.32,12.96 z m -7.2,-3.59 c 2.16,1.44 4.32,2.88 7.2,3.59 l 4.32,-12.96 c -2.16,-1.43 -5.04,-2.15 -7.2,-3.59 l -4.32,12.96 z m -0.72,0 h 0.72 l 4.32,-12.96 v 0 l -5.04,12.96 z m 5.04,-12.96 v 0 l -2.16,6.47 2.16,-6.47 z m -30.96,-16.56 c 4.32,12.24 12.96,22.32 25.92,29.52 l 5.04,-12.96 c -10.08,-5.76 -16.56,-12.96 -20.16,-21.6 l -10.8,5.04 z m -2.16,-7.92 c 0.72,2.88 1.44,5.76 2.16,7.92 l 10.8,-5.04 c -0.72,-2.16 -0.72,-3.6 -1.44,-5.76 l -11.52,2.88 z m 0,0 v 0 l 5.76,-1.45 z m -0.72,-8.64 c 0,2.89 0.72,5.76 0.72,8.64 l 11.52,-2.88 c 0,-2.16 0,-3.61 0,-5.76 h -12.24 z m 12.24,0 v 0 h -6.48 6.48 z m -12.24,-1.44 c 0,0.71 0,1.44 0,1.44 h 12.24 c 0,-0.73 -0.72,-1.44 -0.72,-1.44 h -11.52 z m 0,0 v 0 h 5.76 z m 15.84,-38.89 c -10.8,10.8 -15.84,23.76 -15.84,38.89 h 11.52 c 0,-10.8 4.32,-20.17 11.52,-27.36 l -7.2,-11.53 z m 6.48,-5.04 c -2.16,1.45 -4.32,3.61 -6.48,5.04 l 7.2,11.53 c 2.16,-2.16 3.6,-3.61 5.76,-5.04 l -6.48,-11.53 z m 7.2,-5.04 c -2.16,1.45 -5.04,2.89 -7.2,5.04 l 6.48,11.53 c 1.44,-1.44 3.6,-2.16 5.76,-3.61 l -5.04,-12.96 z m 5.04,12.96 v 0 l -2.16,-6.47 2.16,6.47 z m -5.04,-12.96 v 0 l 5.04,12.96 v 0 l -5.04,-12.96 z m 29.52,-12.23 c -10.08,2.88 -20.16,6.48 -29.52,12.23 l 5.04,12.96 c 8.64,-5.03 17.28,-8.63 27.36,-11.51 l -2.88,-13.68 z m 33.12,-5.76 c -11.52,0.72 -22.32,2.16 -33.12,5.76 l 2.88,13.68 c 9.36,-2.88 20.16,-5.04 30.96,-5.76 l -0.72,-13.68 z m 48.24,2.88 c -16.56,-2.88 -32.41,-4.32 -48.24,-2.88 l 0.72,13.68 c 15.11,-0.72 30.24,0 45.36,3.6 l 2.16,-14.4 z m 8.64,2.88 c -2.88,-1.44 -5.75,-2.16 -8.64,-2.88 l -2.16,14.4 c 2.88,0.71 5.76,1.44 8.64,2.16 l 2.16,-13.68 z m 9.36,2.88 c -2.89,-1.44 -6.48,-2.16 -9.36,-2.88 l -2.16,13.68 c 2.88,0.72 5.76,1.44 8.63,2.16 l 2.89,-12.96 z m 0,0 v 0 l -1.44,6.47 z m 0,0 v 0 l -2.89,12.96 v 0.72 z m 0.73,0 h -0.73 l -1.44,6.47 2.17,-6.47 z m 36.72,23.05 c -8.66,-10.09 -20.88,-18.01 -36.72,-23.05 l -3.62,13.68 c 14.41,4.32 25.21,10.8 32.42,19.44 l 7.92,-10.07 z m 5.04,7.18 c -1.45,-2.88 -2.9,-5.04 -5.04,-7.18 l -7.92,10.07 c 1.43,2.15 2.15,3.6 3.59,5.03 l 9.37,-7.92 z m -9.37,7.92 v 0 l 4.33,-4.31 -4.33,4.31 z m 12.96,-1.43 c -0.71,-2.16 -2.16,-4.32 -3.59,-6.49 l -9.37,7.92 c 0.72,2.17 2.16,3.61 2.88,5.77 l 10.08,-7.2 z m -10.08,7.2 v 0 l 5.04,-3.6 -5.04,3.6 z m 10.08,-7.2 v 0 l -10.08,7.2 v 0 l 10.08,-7.2 z m -10.08,7.2 5.04,10.81 5.04,-10.81 -5.04,-3.6 -5.04,3.6 z m 8.63,-41.04 c -0.71,11.51 -3.59,23.04 -8.63,33.84 l 10.08,7.2 c 5.76,-12.96 9.36,-25.92 10.08,-40.32 l -11.53,-0.72 z m -4.31,-38.15 c 3.6,12.95 5.05,25.91 4.31,38.15 l 11.53,0.72 c 1.44,-13.68 0,-28.08 -4.32,-43.2 l -11.52,4.33 z m -62.64,-35.3 c 29.52,7.21 59.04,19.46 62.64,35.3 l 11.52,-4.33 c -5.76,-21.6 -38.89,-36.72 -72,-44.64 l -2.16,13.67 z m -17.27,-3.59 c 5.75,0.72 11.51,2.16 17.27,3.59 l 2.16,-13.67 c -5.76,-1.44 -12.24,-2.88 -18,-4.33 l -1.43,14.41 z m -25.93,-2.88 c 6.48,0 15.84,1.43 25.93,2.88 l 1.43,-14.41 c -10.8,-1.43 -20.16,-2.15 -27.36,-2.15 v 13.68 z m -0.72,0 h 0.72 v -13.68 h -0.72 v 13.68 z m -5.76,-6.49 v 6.49 h 5.76 v -6.49 h -5.76 z m 0,-141.11 v 141.11 h 12.24 V 1681.2 h -12.24 z m 5.76,-7.21 h -5.76 v 7.21 h 5.76 v -7.21 z m 22.32,0 h -22.32 v 14.41 h 22.32 v -14.41 z m 5.76,7.21 v -7.21 h -5.76 v 7.21 h 5.76 z m 0,117.36 V 1681.2 h -11.52 v 117.36 h 11.52 z m -93.6,165.6 v 0 h 5.76 -5.76 z m 23.04,14.4 c -7.92,-3.6 -11.52,-8.64 -11.52,-14.4 h -11.52 c 0,12.25 5.76,21.6 18.72,27.36 l 4.32,-12.96 z m 43.2,7.2 c -19.44,0 -33.84,-2.88 -43.2,-7.2 l -4.32,12.96 c 10.8,5.04 26.64,7.92 47.52,8.64 v -14.4 z m 51.12,-5.76 c -14.4,5.04 -31.68,6.48 -51.12,5.76 v 14.4 c 20.15,0.72 38.16,-1.44 54,-6.48 L 1180.8,1980 Z m 35.27,-20.88 c -9.35,9.37 -20.87,16.56 -35.27,20.88 l 2.88,13.68 c 15.84,-5.05 29.52,-12.96 40.31,-23.76 l -7.92,-10.8 z m 7.92,10.8 4.33,-5.05 -4.33,-5.03 -4.3,4.32 4.3,5.76 z m -41.75,-24.48 c 13.69,5.04 25.2,12.96 33.83,23.76 l 7.92,-9.36 c -9.35,-12.97 -22.31,-22.32 -38.15,-28.08 l -3.6,13.68 z m -50.4,-5.76 c 19.44,-1.44 36,0.72 50.4,5.76 l 3.6,-13.68 c -15.84,-5.76 -33.84,-7.92 -54.72,-6.49 l 0.72,14.41 z m -0.72,-14.41 v 0 l 0.72,7.21 -0.72,-7.21 z m -43.92,23.76 c 10.08,-5.04 25.2,-8.63 44.64,-9.35 l -0.72,-14.41 c -20.88,1.45 -36.72,5.05 -48.24,10.8 l 4.32,12.96 z m -12.24,15.84 c 0,-6.47 4.32,-11.51 12.24,-15.84 l -4.32,-12.96 c -12.24,6.49 -19.44,15.84 -19.44,28.09 l 11.52,0.71 z m -10.08,144.73 v 0 h 5.76 -5.76 z m 22.32,13.68 c -7.2,-3.6 -10.8,-7.92 -10.8,-13.68 h -11.52 c 0,11.51 5.76,20.16 17.28,26.64 l 5.04,-12.96 z m 41.04,10.8 c -18.72,-2.17 -32.4,-5.76 -41.04,-10.8 l -5.04,12.96 c 10.08,5.76 25.2,9.36 44.64,12.25 l 1.44,-14.41 z m 66.96,-11.52 c -18.73,10.8 -41.76,14.39 -66.96,11.52 l -1.44,14.41 c 27.36,2.87 52.56,-1.45 73.43,-13.69 l -5.03,-12.24 z m 10.81,-7.2 c -2.89,2.16 -6.49,5.04 -10.81,7.2 l 5.03,12.24 c 4.33,-2.15 8.65,-5.04 12.25,-7.93 l -6.47,-11.51 z m 6.47,11.51 v 0 l -2.88,-5.76 2.88,5.76 z m 3.59,-20.87 c -2.87,3.6 -6.47,6.48 -10.06,9.36 l 6.47,11.51 c 3.59,-2.88 7.21,-5.76 11.51,-9.35 l -7.92,-11.52 z m 7.92,11.52 v 0 l -4.3,-5.76 4.3,5.76 z m -7.92,-11.52 v 0 l 7.92,11.52 v 0 l -7.92,-11.52 z m 7.92,11.52 4.33,-5.04 -3.59,-5.76 -5.04,5.04 4.3,5.76 z m -42.47,-26.64 c 13.68,5.04 25.2,13.68 33.84,25.92 l 9.37,-10.08 c -10.8,-13.68 -23.76,-23.04 -39.61,-29.52 l -3.6,13.68 z m -48.96,-5.04 c 18.01,-1.44 35.28,0 48.96,5.04 l 3.6,-13.68 c -15.84,-5.04 -33.84,-7.2 -54,-5.04 l 1.44,13.68 z M 1080,2102.4 c 7.92,-7.92 25.2,-13.68 52.56,-16.56 l -1.44,-13.68 c -29.52,2.88 -49.68,9.36 -59.04,19.44 l 7.92,10.8 z m -2.88,3.6 c 0.72,-0.73 1.44,-2.16 2.88,-3.6 l -7.92,-10.8 c -2.16,2.88 -3.6,5.04 -5.04,7.92 l 10.08,6.48 z m -0.72,3.6 c 0,-0.71 0.72,-2.16 0.72,-3.6 l -10.08,-6.48 c -1.44,2.88 -2.16,6.48 -2.16,9.37 l 11.52,0.71 z m 0,0.72 c 0,-0.72 0,0 0,-0.72 l -11.52,-0.71 c 0,0 0,0 0,0.71 l 11.52,0.72 z m -12.96,149.04 v 0 h 5.76 -5.76 z m 23.04,12.24 c -7.2,-3.6 -11.52,-7.92 -11.52,-12.97 l -11.52,0.73 c 0,10.8 6.48,18.72 18.72,24.48 l 4.32,-12.24 z m 41.76,10.8 c -18.72,-2.88 -32.4,-6.48 -41.76,-10.8 l -4.32,12.24 c 10.08,5.76 25.2,9.36 44.64,12.24 l 1.44,-13.68 z m 0,0 v 0 l -0.72,6.48 z m 48.96,-4.32 c -15.12,5.04 -31.68,6.48 -48.96,4.32 l -1.44,13.68 c 18.72,2.88 36.72,1.44 53.29,-4.32 l -2.89,-13.68 z m 38.87,-25.92 c -11.51,12.24 -24.47,20.88 -38.87,25.92 l 2.89,13.68 c 16.55,-5.76 30.95,-15.84 43.9,-29.52 l -7.92,-10.08 z m 7.92,10.08 5.05,-5.76 -5.76,-5.04 -3.59,5.76 4.3,5.04 z m -71.27,-28.8 c 23.04,2.16 44.64,12.24 64.09,29.52 l 6.47,-11.52 c -20.88,-18.72 -43.92,-29.53 -69.84,-32.41 l -0.72,14.41 z m -14.4,-0.72 c 5.04,0 10.08,0 14.4,0.72 l 0.72,-14.41 c -5.04,0 -10.08,0 -15.12,0 v 13.69 z m -13.68,1.44 c 5.04,-0.72 10.08,-0.72 13.68,-1.44 v -13.69 c -4.32,0 -9.36,0.73 -15.12,1.45 l 1.44,13.68 z m 0,0 v 0 l -1.44,-13.68 v 0 z m -46.8,17.28 c 6.48,-7.92 22.32,-13.69 46.8,-17.28 l -1.44,-13.68 c -27.36,3.6 -45.36,10.8 -53.28,20.88 l 7.92,10.08 z m -2.16,3.6 c 0.72,-0.72 1.44,-2.16 2.16,-3.6 l -7.92,-10.08 c -2.16,2.88 -3.6,5.05 -5.04,7.92 l 10.8,5.76 z m -0.72,3.59 c 0,-0.71 0,-2.15 0.72,-3.59 l -10.8,-5.76 c -0.72,2.88 -1.44,6.48 -1.44,9.35 h 11.52 z m 0,0.73 v -0.73 h -11.52 v 0.73 h 11.52 v 0"
         style="fill:#ffffff;fill-opacity:1;fill-rule:nonzero;stroke:none"
         id="path20" /><path
         d="M 1157.04,2539.44 H 721.441 v -367.2"
         style="fill:none;stroke:#ffffff;stroke-width:59.624;stroke-linecap:butt;stroke-linejoin:miter;stroke-miterlimit:4;stroke-dasharray:none;stroke-opacity:1"
         id="path22" /><path
         d="M 721.441,2052.72 V 1675.44 H 1157.04"
         style="fill:none;stroke:#ffffff;stroke-width:60.131;stroke-linecap:butt;stroke-linejoin:miter;stroke-miterlimit:4;stroke-dasharray:none;stroke-opacity:1"
         id="path24" /><path
         d="m 602.641,2188.8 h 246.242 v -41.05 H 602.641 v 41.05"
         style="fill:#ffffff;fill-opacity:1;fill-rule:nonzero;stroke:none"
         id="path26" /><path
         d="M 602.641,2052 H 848.883"
         style="fill:none;stroke:#ffffff;stroke-width:60.131;stroke-linecap:butt;stroke-linejoin:miter;stroke-miterlimit:4;stroke-dasharray:none;stroke-opacity:1"
         id="path28" /><path
         d="m 1087.2,2704.32 -177.841,177.84 29.524,30.24 178.557,-177.84 z m -329.04,29.52 179.281,179.28 30.239,-30.24 -179.282,-179.28 -30.238,30.24 v 0"
         style="fill:#ffffff;fill-opacity:1;fill-rule:nonzero;stroke:none"
         id="path30" /><path
         d="m 914.398,2539.44 v 334.08 h 42.481 v -334.08 h -42.481"
         style="fill:#ffffff;fill-opacity:1;fill-rule:nonzero;stroke:none"
         id="path32" /><path
         d="m 789.84,1552.31 h 294.48 v -42.48 H 789.84 v 42.48"
         style="fill:#ffffff;fill-opacity:1;fill-rule:nonzero;stroke:none"
         id="path34" /><path
         d="m 914.398,1532.88 v 142.56 h 42.481 v -142.56 h -42.481"
         style="fill:#ffffff;fill-opacity:1;fill-rule:nonzero;stroke:none"
         id="path36" /><path
         d="m 835.199,1424.87 h 203.761 v 42.49 H 835.199 v -42.49"
         style="fill:#ffffff;fill-opacity:1;fill-rule:nonzero;stroke:none"
         id="path38" /><path
         d="m 895.684,1382.4 h 82.796 v -43.2 h -82.796 v 43.2"
         style="fill:#ffffff;fill-opacity:1;fill-rule:nonzero;stroke:none"
         id="path40" /><path
         d="m 144,2093.76 -6.48,15.13 6.48,15.1 34.559,-15.1 z M 898.559,389.52 144,2093.76 213.121,2123.99 967.68,419.762 898.559,389.52 Z m 69.121,0 -34.559,-78.489 -34.562,78.489 34.562,15.121 34.559,-15.121 z M 1721.52,2093.76 967.68,389.52 898.559,419.762 1652.4,2123.99 l 69.12,-30.23 z m 0,30.23 6.48,-15.1 -6.48,-15.13 -34.56,15.13 34.56,15.1 z m -753.84,1703.53 753.84,-1703.53 -69.12,-30.23 -753.841,1703.52 69.121,30.24 z m -69.121,0 34.562,77.76 34.559,-77.76 -34.559,-15.12 -34.562,15.12 z M 144,2123.99 898.559,3827.52 967.68,3797.28 213.121,2093.76 144,2123.99 v 0"
         style="fill:#fffffc;fill-opacity:1;fill-rule:nonzero;stroke:none"
         id="path42" /><path
         d="m 144,2093.76 -6.48,15.13 6.48,15.1 34.559,-15.1 z M 898.559,389.52 144,2093.76 213.121,2123.99 967.68,419.762 898.559,389.52 Z m 69.121,0 -34.559,-78.489 -34.562,78.489 34.562,15.121 34.559,-15.121 z M 1721.52,2093.76 967.68,389.52 898.559,419.762 1652.4,2123.99 l 69.12,-30.23 z m 0,30.23 6.48,-15.1 -6.48,-15.13 -34.56,15.13 34.56,15.1 z m -753.84,1703.53 753.84,-1703.53 -69.12,-30.23 -753.841,1703.52 69.121,30.24 z m -69.121,0 34.562,77.76 34.559,-77.76 -34.559,-15.12 -34.562,15.12 z M 144,2123.99 898.559,3827.52 967.68,3797.28 213.121,2093.76 144,2123.99 Z"
         style="fill:none;stroke:#ffffff;stroke-width:10;stroke-linecap:butt;stroke-linejoin:miter;stroke-miterlimit:4;stroke-dasharray:none;stroke-opacity:1"
         id="path44" /><path
         d="m 841.68,3368.88 v 54 h 49.683 v -54 z m 47.519,-208.8 c 0,-56.88 3.606,-92.88 10.082,-108 6.481,-15.12 18.723,-22.32 36.719,-22.32 v -51.84 c -23.039,0 -41.039,2.88 -55.437,10.08 -13.684,6.48 -25.922,18 -36,33.84 -7.922,10.8 -12.961,28.08 -16.559,49.68 -3.606,22.32 -5.043,51.84 -5.043,88.56 0,37.44 1.437,66.96 5.043,89.28 3.598,21.6 8.637,38.16 16.559,49.68 10.078,15.84 22.316,27.36 36,33.84 14.398,6.48 32.398,10.08 55.437,10.08 v -51.12 c -17.996,0 -30.238,-7.92 -36.719,-22.32 -6.476,-15.12 -10.082,-51.12 -10.082,-109.44 z m 92.164,208.8 v 54 h 49.677 v -54 z M 936,3029.76 c 0,0 0,0 0.719,0 17.281,0 29.519,7.2 36,21.6 7.203,14.4 10.086,51.12 10.086,108.72 0,58.32 -3.606,94.32 -10.086,109.44 -6.481,14.4 -18.719,22.32 -36.719,22.32 v 0 51.12 0 c 23.043,0 41.758,-3.6 55.441,-10.08 14.399,-6.48 25.919,-18 36.719,-33.84 7.2,-11.52 12.24,-28.08 15.84,-50.4 3.6,-22.32 5.04,-51.12 5.04,-88.56 0,-36.72 -1.44,-65.52 -5.04,-87.84 -3.6,-22.32 -8.64,-38.88 -15.84,-50.4 -10.8,-15.84 -22.32,-27.36 -36.719,-33.84 -13.683,-7.2 -32.398,-10.08 -55.441,-10.08 v 0 51.84 0"
         style="fill:#ffffff;fill-opacity:1;fill-rule:evenodd;stroke:none"
         id="path46" /><path
         d="m 414,1941.83 -78.477,347.77 h 69.118 L 456.48,2012.4 504,2289.6 h 68.402 L 498.961,1941.83 H 414"
         style="fill:#ffffff;fill-opacity:1;fill-rule:evenodd;stroke:none"
         id="path48" /><path
         d="m 1329.12,2061.36 h 65.52 v -22.33 c 0,-21.59 2.17,-35.99 7.92,-43.91 5.05,-7.92 14.4,-11.53 27.36,-11.53 13.68,0 24.47,3.61 31.68,10.81 7.2,6.48 10.8,16.56 10.8,30.24 0,10.8 -2.88,19.44 -7.92,27.36 -4.31,7.2 -15.12,16.56 -32.4,28.8 l -33.12,23.04 c -28.79,20.15 -46.8,36.73 -54.72,49.68 -7.92,12.96 -11.52,29.52 -11.52,48.96 0,29.52 8.64,51.84 25.92,68.4 17.29,16.56 41.76,24.48 72,24.48 32.4,0 56.88,-8.64 74.15,-25.92 17.29,-17.28 25.93,-42.49 25.93,-75.6 0,-3.61 0,-6.48 0,-7.92 0,-2.16 0,-3.61 -0.72,-5.04 h -61.2 v 9.35 c 0,18.73 -2.87,32.42 -9.36,40.34 -6.48,8.63 -16.56,12.22 -30.24,12.22 -10.8,0 -18.72,-2.87 -25.21,-8.63 -5.75,-6.49 -8.63,-15.13 -8.63,-25.92 0,-14.4 13.68,-30.97 40.32,-48.24 0,0 0,-0.72 0.72,-0.72 l 35.28,-24.48 c 25.93,-16.56 43.2,-32.4 51.84,-47.53 9.36,-15.11 13.68,-33.83 13.68,-57.59 0,-31.68 -8.64,-56.16 -27.37,-73.44 -17.98,-17.28 -43.9,-25.92 -77.75,-25.92 -34.56,0 -60.48,9.36 -77.75,27.35 -17.29,18.01 -25.93,46.09 -25.93,82.81 0,4.32 0.72,10.8 0.72,19.44 v 1.44"
         style="fill:#ffffff;fill-opacity:1;fill-rule:evenodd;stroke:none"
         id="path50" /><path
         d="m 901.441,891.359 -78.48,348.481 h 69.117 l 51.844,-278.641 46.801,278.641 h 69.117 L 986.402,891.359 h -84.961"
         style="fill:#ffffff;fill-opacity:1;fill-rule:evenodd;stroke:none"
         id="path52" /></g></g></svg>
