<?xml version="1.0" encoding="UTF-8"?>
<!-- Created with Inkscape (http://www.inkscape.org/) -->
<svg width="89.985mm" height="28.274mm" version="1.1" viewBox="0 0 89.985 28.274" xmlns="http://www.w3.org/2000/svg">
 <defs>
  <clipPath id="clipPath122">
   <path d="m0 0h595.28v841.89h-595.28z"/>
  </clipPath>
 </defs>
 <g transform="translate(.93626 -.88166)">
  <path d="m-0.93626 0.88166h39.306l-6.7227 14.318 6.7227 13.957h-39.306z" fill="#0e88d3"/>
  <g transform="matrix(.35278 0 0 -.35278 -13.951 37.22)">
   <g clip-path="url(#clipPath122)">
    <g transform="translate(44.813 51.956)" fill="#fff">
     <path d="m0 0c1.86-1.922 4.365-2.883 7.516-2.883 3.113 0 5.599 0.966 7.459 2.898s2.79 4.608 2.79 8.029c0 3.45-0.937 6.143-2.812 8.08-1.874 1.937-4.372 2.905-7.494 2.905-1.725 0-3.248-0.279-4.568-0.838-0.993-0.415-1.906-1.051-2.74-1.908-0.833-0.858-1.491-1.826-1.972-2.906-0.646-1.464-0.969-3.276-0.969-5.434 0-3.373 0.93-6.021 2.79-7.943m3.228 13.565c1.084 1.211 2.511 1.816 4.281 1.816s3.19-0.598 4.259-1.794c1.069-1.197 1.604-3.011 1.604-5.442 0-2.46-0.549-4.306-1.647-5.536-1.099-1.23-2.504-1.845-4.216-1.845s-3.125 0.62-4.237 1.86-1.669 3.061-1.669 5.463c0 2.441 0.542 4.267 1.625 5.478m2.795 10.523h-3.488v-3.488h3.488zm6.238 0h-3.488v-3.488h3.488zm18.846-26.599 7.527 21.194h-4.551l-5.154-15.682-5.363 15.682h-4.635l7.557-21.194zm11.157 1.458c1.435-1.238 3.492-1.857 6.171-1.857 1.84 0 3.377 0.258 4.61 0.774s2.187 1.304 2.861 2.364c0.675 1.061 1.012 2.199 1.012 3.414 0 1.34-0.281 2.466-0.842 3.377-0.562 0.911-1.34 1.629-2.333 2.155-0.994 0.525-2.528 1.034-4.602 1.527-2.073 0.493-3.379 0.966-3.917 1.419-0.422 0.356-0.633 0.785-0.633 1.287 0 0.549 0.224 0.987 0.674 1.315 0.698 0.511 1.663 0.766 2.896 0.766 1.195 0 2.092-0.238 2.689-0.715s0.987-1.259 1.169-2.347l4.287 0.16c-0.068 1.954-0.772 3.516-2.112 4.687-1.341 1.171-3.338 1.756-5.991 1.756-1.624 0-3.01-0.246-4.159-0.738s-2.028-1.208-2.638-2.148c-0.611-0.941-0.916-1.951-0.916-3.031 0-1.679 0.649-3.102 1.945-4.269 0.921-0.829 2.525-1.529 4.81-2.099 1.776-0.445 2.914-0.754 3.413-0.928 0.73-0.259 1.241-0.565 1.534-0.916s0.439-0.776 0.439-1.276c0-0.778-0.349-1.459-1.048-2.041-0.698-0.581-1.736-0.872-3.113-0.872-1.301 0-2.335 0.326-3.101 0.979-0.765 0.653-1.273 1.676-1.524 3.068l-4.153-0.399c0.279-2.37 1.136-4.174 2.572-5.412m28.287-1.458 7.527 21.194h-4.551l-5.154-15.682-5.363 15.682h-4.635l7.556-21.194z" fill="#fff"/>
    </g>
    <g transform="translate(171.87 65.926)">
     <path d="m0 0c0.661-0.683 1.552-1.025 2.673-1.025 1.107 0 1.991 0.343 2.652 1.03s0.992 1.638 0.992 2.854c0 1.226-0.333 2.183-1 2.871-0.666 0.688-1.555 1.032-2.665 1.032-0.613 0-1.155-0.099-1.624-0.297-0.353-0.148-0.678-0.374-0.974-0.679-0.297-0.304-0.53-0.648-0.702-1.032-0.229-0.521-0.344-1.164-0.344-1.931 0-1.199 0.331-2.14 0.992-2.823m1.151 4.817c0.385 0.429 0.891 0.644 1.519 0.644s1.132-0.212 1.512-0.637c0.379-0.424 0.568-1.067 0.568-1.93 0-0.872-0.194-1.526-0.584-1.963-0.39-0.436-0.888-0.654-1.496-0.654-0.607 0-1.109 0.22-1.503 0.659-0.395 0.44-0.592 1.086-0.592 1.938 0 0.866 0.192 1.513 0.576 1.943m0.99 3.748h-1.244v-1.244h1.244zm2.209 0h-1.244v-1.244h1.244zm3.483-9.131c0.433-0.302 1.021-0.453 1.763-0.453 0.818 0 1.436 0.18 1.853 0.539 0.418 0.36 0.626 0.79 0.626 1.29 0 0.459-0.15 0.817-0.451 1.074-0.304 0.253-0.84 0.467-1.607 0.642-0.768 0.175-1.216 0.31-1.346 0.406-0.096 0.072-0.144 0.159-0.144 0.262 0 0.12 0.055 0.218 0.164 0.293 0.164 0.106 0.436 0.159 0.816 0.159 0.3 0 0.532-0.056 0.694-0.169s0.273-0.275 0.331-0.487l1.359 0.253c-0.137 0.475-0.387 0.834-0.749 1.076-0.363 0.243-0.917 0.364-1.663 0.364-0.783 0-1.361-0.161-1.734-0.483s-0.56-0.719-0.56-1.191c0-0.524 0.216-0.934 0.646-1.228 0.311-0.213 1.047-0.447 2.209-0.704 0.249-0.058 0.41-0.122 0.481-0.19 0.069-0.072 0.103-0.163 0.103-0.272 0-0.162-0.063-0.29-0.189-0.386-0.188-0.137-0.467-0.206-0.839-0.206-0.337 0-0.6 0.073-0.787 0.219-0.188 0.146-0.312 0.359-0.374 0.64l-1.451-0.219c0.133-0.518 0.416-0.928 0.849-1.229m7.023 5.128v1.93l-1.445-0.847v-1.083h-0.663v-1.152h0.663v-2.379c0-0.51 0.015-0.849 0.046-1.017 0.037-0.237 0.105-0.424 0.203-0.563 0.097-0.139 0.25-0.252 0.459-0.339s0.443-0.131 0.704-0.131c0.424 0 0.804 0.072 1.139 0.216l-0.124 1.121c-0.253-0.093-0.447-0.139-0.581-0.139-0.096 0-0.177 0.024-0.244 0.072s-0.11 0.109-0.128 0.182c-0.019 0.074-0.029 0.333-0.029 0.779v2.198h0.985v1.152zm4.802-4.318c-0.155-0.124-0.345-0.186-0.571-0.186-0.332 0-0.61 0.119-0.833 0.356-0.223 0.238-0.339 0.57-0.349 0.998h3.617c0.02 1.107-0.204 1.929-0.673 2.466-0.47 0.537-1.11 0.805-1.922 0.805-0.723 0-1.321-0.256-1.793-0.768-0.473-0.512-0.709-1.22-0.709-2.124 0-0.757 0.179-1.384 0.539-1.88 0.456-0.62 1.159-0.93 2.108-0.93 0.6 0 1.099 0.138 1.498 0.414 0.4 0.275 0.692 0.677 0.877 1.204l-1.44 0.242c-0.079-0.274-0.195-0.474-0.349-0.597m-1.727 2.049c-4e-3 0.395 0.097 0.708 0.303 0.939 0.205 0.23 0.465 0.345 0.78 0.345 0.295 0 0.545-0.109 0.75-0.327 0.206-0.219 0.313-0.538 0.324-0.957zm6.147-1.506c0 0.929 0.041 1.538 0.121 1.829 0.081 0.292 0.191 0.493 0.332 0.604 0.14 0.111 0.311 0.167 0.513 0.167 0.209 0 0.435-0.079 0.679-0.236l0.446 1.26c-0.305 0.181-0.622 0.272-0.951 0.272-0.233 0-0.441-0.058-0.624-0.173-0.183-0.116-0.39-0.357-0.619-0.724v0.776h-1.342v-5.46h1.445zm4.094 0c0 0.929 0.041 1.538 0.121 1.829 0.081 0.292 0.191 0.493 0.332 0.604 0.14 0.111 0.311 0.167 0.514 0.167 0.209 0 0.435-0.079 0.678-0.236l0.446 1.26c-0.305 0.181-0.622 0.272-0.95 0.272-0.234 0-0.442-0.058-0.625-0.173-0.183-0.116-0.39-0.357-0.619-0.724v0.776h-1.342v-5.46h1.445zm5.525-0.543c-0.154-0.124-0.345-0.186-0.571-0.186-0.332 0-0.61 0.119-0.833 0.356-0.222 0.238-0.339 0.57-0.349 0.998h3.617c0.021 1.107-0.204 1.929-0.673 2.466s-1.11 0.805-1.922 0.805c-0.723 0-1.32-0.256-1.793-0.768s-0.709-1.22-0.709-2.124c0-0.757 0.18-1.384 0.54-1.88 0.455-0.62 1.158-0.93 2.107-0.93 0.6 0 1.099 0.138 1.499 0.414 0.399 0.275 0.691 0.677 0.876 1.204l-1.44 0.242c-0.079-0.274-0.195-0.474-0.349-0.597m-1.727 2.049c-4e-3 0.395 0.097 0.708 0.303 0.939 0.205 0.23 0.466 0.345 0.78 0.345 0.295 0 0.545-0.109 0.75-0.327 0.206-0.219 0.314-0.538 0.324-0.957zm6.211 4.343h-1.446v-1.336h1.446zm0-2.074h-1.446v-5.46h1.446zm5.395-0.307c-0.393 0.285-0.922 0.428-1.587 0.428-0.812 0-1.457-0.251-1.933-0.752-0.476-0.502-0.715-1.203-0.715-2.104 0-0.89 0.238-1.587 0.712-2.091 0.474-0.503 1.111-0.755 1.909-0.755 0.703 0 1.263 0.166 1.681 0.498 0.418 0.331 0.7 0.822 0.848 1.472l-1.417 0.242c-0.073-0.38-0.196-0.648-0.371-0.803-0.176-0.156-0.401-0.234-0.675-0.234-0.368 0-0.661 0.134-0.879 0.401s-0.327 0.725-0.327 1.372c0 0.583 0.107 0.998 0.322 1.247 0.215 0.248 0.503 0.372 0.864 0.372 0.272 0 0.493-0.072 0.663-0.215 0.17-0.144 0.28-0.358 0.328-0.643l1.422 0.259c-0.171 0.585-0.453 1.02-0.845 1.306m1.922 2.381v-7.534h1.445v2.733c0 0.459 0.044 0.806 0.131 1.041 0.088 0.235 0.226 0.41 0.415 0.527 0.189 0.116 0.403 0.174 0.643 0.174 0.21 0 0.384-0.045 0.523-0.136s0.236-0.213 0.291-0.367 0.082-0.518 0.082-1.09v-2.882h1.446v3.202c0 0.49-0.025 0.851-0.075 1.084-0.049 0.233-0.142 0.445-0.278 0.637-0.135 0.192-0.337 0.35-0.604 0.473-0.268 0.123-0.568 0.185-0.901 0.185-0.648 0-1.206-0.275-1.673-0.824v2.777zm7.883 0h-1.446v-1.336h1.446zm0-2.074h-1.446v-5.46h1.446zm1.82-5.128c0.433-0.302 1.02-0.453 1.763-0.453 0.818 0 1.435 0.18 1.853 0.539 0.417 0.36 0.626 0.79 0.626 1.29 0 0.459-0.15 0.817-0.451 1.074-0.304 0.253-0.84 0.467-1.607 0.642-0.768 0.175-1.217 0.31-1.346 0.406-0.096 0.072-0.144 0.159-0.144 0.262 0 0.12 0.055 0.218 0.164 0.293 0.164 0.106 0.436 0.159 0.815 0.159 0.301 0 0.532-0.056 0.695-0.169 0.162-0.113 0.272-0.275 0.33-0.487l1.36 0.253c-0.137 0.475-0.387 0.834-0.749 1.076-0.363 0.243-0.917 0.364-1.663 0.364-0.784 0-1.362-0.161-1.735-0.483s-0.559-0.719-0.559-1.191c0-0.524 0.215-0.934 0.646-1.228 0.311-0.213 1.047-0.447 2.208-0.704 0.25-0.058 0.41-0.122 0.482-0.19 0.068-0.072 0.103-0.163 0.103-0.272 0-0.162-0.063-0.29-0.19-0.386-0.187-0.137-0.467-0.206-0.838-0.206-0.338 0-0.6 0.073-0.788 0.219-0.187 0.146-0.312 0.359-0.373 0.64l-1.452-0.219c0.134-0.518 0.417-0.928 0.85-1.229m9.426 4.821c-0.393 0.285-0.921 0.428-1.586 0.428-0.813 0-1.457-0.251-1.934-0.752-0.476-0.502-0.715-1.203-0.715-2.104 0-0.89 0.238-1.587 0.712-2.091 0.475-0.503 1.111-0.755 1.909-0.755 0.703 0 1.263 0.166 1.681 0.498 0.418 0.331 0.7 0.822 0.848 1.472l-1.417 0.242c-0.072-0.38-0.196-0.648-0.371-0.803-0.175-0.156-0.4-0.234-0.675-0.234-0.368 0-0.661 0.134-0.879 0.401s-0.327 0.725-0.327 1.372c0 0.583 0.107 0.998 0.322 1.247 0.215 0.248 0.503 0.372 0.864 0.372 0.272 0 0.493-0.072 0.663-0.215 0.171-0.144 0.28-0.358 0.328-0.643l1.423 0.259c-0.172 0.585-0.454 1.02-0.846 1.306m1.922 2.381v-7.534h1.445v2.733c0 0.459 0.044 0.806 0.132 1.041 0.087 0.235 0.225 0.41 0.414 0.527 0.189 0.116 0.403 0.174 0.644 0.174 0.209 0 0.383-0.045 0.522-0.136s0.236-0.213 0.291-0.367 0.082-0.518 0.082-1.09v-2.882h1.446v3.202c0 0.49-0.025 0.851-0.074 1.084-0.05 0.233-0.143 0.445-0.278 0.637-0.136 0.192-0.337 0.35-0.605 0.473s-0.568 0.185-0.901 0.185c-0.648 0-1.206-0.275-1.673-0.824v2.777zm9.25-6.392c-0.154-0.124-0.344-0.186-0.57-0.186-0.333 0-0.61 0.119-0.833 0.356-0.223 0.238-0.339 0.57-0.35 0.998h3.617c0.021 1.107-0.203 1.929-0.673 2.466-0.469 0.537-1.11 0.805-1.921 0.805-0.723 0-1.321-0.256-1.794-0.768s-0.709-1.22-0.709-2.124c0-0.757 0.18-1.384 0.54-1.88 0.456-0.62 1.158-0.93 2.108-0.93 0.599 0 1.099 0.138 1.498 0.414 0.399 0.275 0.692 0.677 0.877 1.204l-1.44 0.242c-0.079-0.274-0.196-0.474-0.35-0.597m-1.727 2.049c-3e-3 0.395 0.098 0.708 0.303 0.939 0.206 0.23 0.466 0.345 0.781 0.345 0.294 0 0.544-0.109 0.75-0.327 0.205-0.219 0.313-0.538 0.323-0.957zm6.148-1.506c0 0.929 0.04 1.538 0.121 1.829 0.08 0.292 0.191 0.493 0.331 0.604 0.141 0.111 0.312 0.167 0.514 0.167 0.209 0 0.435-0.079 0.678-0.236l0.447 1.26c-0.305 0.181-0.622 0.272-0.951 0.272-0.233 0-0.441-0.058-0.625-0.173-0.183-0.116-0.389-0.357-0.619-0.724v0.776h-1.342v-5.46h1.446z" fill="#0080c8"/>
    </g>
    <g transform="translate(174.74 52.403)">
     <path d="m0 0 2.692 7.534h-1.615l-1.844-5.576-1.902 5.576h-1.649l2.686-7.534zm5.686 1.142c-0.154-0.124-0.344-0.186-0.57-0.186-0.333 0-0.61 0.119-0.833 0.356-0.223 0.238-0.339 0.57-0.35 0.998h3.617c0.021 1.107-0.203 1.929-0.673 2.466-0.469 0.537-1.11 0.805-1.921 0.805-0.723 0-1.321-0.256-1.794-0.768s-0.709-1.22-0.709-2.124c0-0.757 0.18-1.384 0.54-1.88 0.456-0.62 1.158-0.93 2.108-0.93 0.599 0 1.099 0.138 1.498 0.414 0.399 0.275 0.691 0.677 0.877 1.205l-1.44 0.241c-0.079-0.274-0.196-0.474-0.35-0.597m-1.727 2.049c-3e-3 0.395 0.098 0.708 0.303 0.939 0.206 0.23 0.466 0.345 0.781 0.345 0.294 0 0.544-0.109 0.75-0.327 0.205-0.219 0.313-0.538 0.323-0.957zm6.148-1.506c0 0.929 0.04 1.538 0.121 1.83 0.08 0.291 0.191 0.492 0.331 0.603 0.14 0.112 0.312 0.167 0.514 0.167 0.209 0 0.435-0.079 0.678-0.236l0.447 1.26c-0.305 0.181-0.622 0.272-0.951 0.272-0.233 0-0.441-0.058-0.625-0.173-0.183-0.116-0.389-0.357-0.619-0.724v0.776h-1.342v-5.46h1.446zm3.054-1.353c0.433-0.302 1.021-0.453 1.763-0.453 0.818 0 1.436 0.18 1.853 0.539 0.418 0.36 0.626 0.79 0.626 1.29 0 0.459-0.15 0.817-0.451 1.074-0.304 0.253-0.84 0.467-1.607 0.642-0.768 0.175-1.216 0.31-1.346 0.406-0.096 0.072-0.144 0.159-0.144 0.262 0 0.12 0.055 0.218 0.164 0.293 0.164 0.106 0.436 0.159 0.816 0.159 0.3 0 0.532-0.056 0.694-0.169 0.163-0.113 0.273-0.275 0.331-0.487l1.359 0.253c-0.137 0.475-0.387 0.834-0.749 1.076-0.363 0.243-0.917 0.364-1.663 0.364-0.783 0-1.361-0.161-1.734-0.483s-0.56-0.719-0.56-1.191c0-0.524 0.216-0.934 0.646-1.228 0.311-0.212 1.047-0.447 2.209-0.704 0.249-0.058 0.41-0.122 0.481-0.19 0.069-0.072 0.103-0.163 0.103-0.272 0-0.162-0.063-0.29-0.189-0.386-0.188-0.137-0.467-0.205-0.839-0.205-0.337 0-0.6 0.072-0.787 0.218-0.188 0.146-0.312 0.359-0.374 0.64l-1.451-0.219c0.133-0.518 0.416-0.928 0.849-1.229m10.445-0.332v5.46h-1.446v-2.299c0-0.78-0.036-1.27-0.108-1.47-0.072-0.201-0.205-0.368-0.4-0.503-0.195-0.136-0.416-0.203-0.662-0.203-0.216 0-0.394 0.05-0.534 0.151s-0.237 0.238-0.29 0.411-0.079 0.642-0.079 1.409v2.504h-1.446v-3.453c0-0.514 0.065-0.917 0.195-1.208s0.341-0.517 0.632-0.678 0.62-0.242 0.987-0.242c0.359 0 0.701 0.084 1.025 0.251s0.585 0.396 0.784 0.687v-0.817zm5.407 5.153c-0.392 0.285-0.921 0.428-1.586 0.428-0.812 0-1.457-0.251-1.933-0.752-0.477-0.502-0.715-1.203-0.715-2.104 0-0.89 0.237-1.587 0.712-2.091 0.474-0.503 1.111-0.755 1.909-0.755 0.702 0 1.262 0.166 1.68 0.498 0.418 0.331 0.701 0.822 0.848 1.472l-1.417 0.242c-0.072-0.38-0.195-0.648-0.371-0.803-0.175-0.156-0.4-0.234-0.675-0.234-0.367 0-0.66 0.134-0.878 0.401-0.219 0.267-0.328 0.725-0.328 1.372 0 0.583 0.108 0.998 0.323 1.247 0.215 0.248 0.503 0.373 0.864 0.373 0.272 0 0.493-0.072 0.663-0.216s0.279-0.358 0.328-0.643l1.422 0.26c-0.171 0.584-0.453 1.019-0.846 1.305m1.922 2.381v-7.534h1.446v2.733c0 0.459 0.044 0.806 0.131 1.041 0.088 0.235 0.226 0.41 0.415 0.527 0.189 0.116 0.403 0.174 0.643 0.174 0.21 0 0.384-0.045 0.523-0.136s0.236-0.213 0.291-0.367 0.082-0.517 0.082-1.089v-2.883h1.446v3.202c0 0.49-0.025 0.851-0.075 1.084s-0.142 0.445-0.278 0.637c-0.135 0.192-0.337 0.35-0.604 0.473-0.268 0.123-0.568 0.185-0.901 0.185-0.649 0-1.206-0.274-1.673-0.824v2.777zm6.781-7.202c0.433-0.302 1.02-0.453 1.763-0.453 0.818 0 1.435 0.18 1.853 0.539 0.417 0.36 0.626 0.79 0.626 1.29 0 0.459-0.15 0.817-0.451 1.074-0.304 0.253-0.84 0.467-1.608 0.642-0.767 0.175-1.216 0.31-1.345 0.406-0.096 0.072-0.144 0.159-0.144 0.262 0 0.12 0.055 0.218 0.164 0.293 0.164 0.106 0.436 0.159 0.815 0.159 0.301 0 0.532-0.056 0.695-0.169 0.162-0.113 0.272-0.275 0.33-0.487l1.36 0.253c-0.137 0.475-0.387 0.834-0.75 1.076-0.362 0.243-0.916 0.364-1.662 0.364-0.784 0-1.362-0.161-1.735-0.483s-0.559-0.719-0.559-1.191c0-0.524 0.215-0.934 0.646-1.228 0.311-0.212 1.047-0.447 2.208-0.704 0.25-0.058 0.41-0.122 0.482-0.19 0.068-0.072 0.103-0.163 0.103-0.272 0-0.162-0.064-0.29-0.19-0.386-0.187-0.137-0.467-0.205-0.838-0.205-0.338 0-0.6 0.072-0.788 0.218-0.187 0.146-0.312 0.359-0.373 0.64l-1.452-0.219c0.134-0.518 0.417-0.928 0.85-1.229m5.851 0c0.433-0.302 1.02-0.453 1.763-0.453 0.818 0 1.435 0.18 1.853 0.539 0.417 0.36 0.626 0.79 0.626 1.29 0 0.459-0.15 0.817-0.451 1.074-0.304 0.253-0.84 0.467-1.608 0.642-0.767 0.175-1.216 0.31-1.346 0.406-0.095 0.072-0.143 0.159-0.143 0.262 0 0.12 0.055 0.218 0.164 0.293 0.164 0.106 0.436 0.159 0.815 0.159 0.301 0 0.532-0.056 0.695-0.169 0.162-0.113 0.272-0.275 0.33-0.487l1.36 0.253c-0.137 0.475-0.387 0.834-0.75 1.076-0.362 0.243-0.916 0.364-1.662 0.364-0.784 0-1.362-0.161-1.735-0.483s-0.559-0.719-0.559-1.191c0-0.524 0.215-0.934 0.646-1.228 0.31-0.212 1.047-0.447 2.208-0.704 0.25-0.058 0.41-0.122 0.482-0.19 0.068-0.072 0.102-0.163 0.102-0.272 0-0.162-0.063-0.29-0.189-0.386-0.187-0.137-0.467-0.205-0.838-0.205-0.338 0-0.6 0.072-0.788 0.218-0.187 0.146-0.312 0.359-0.373 0.64l-1.452-0.219c0.134-0.518 0.417-0.928 0.85-1.229m8.321 0.81c-0.155-0.124-0.345-0.186-0.571-0.186-0.332 0-0.61 0.119-0.833 0.356-0.222 0.238-0.339 0.57-0.349 0.998h3.617c0.021 1.107-0.204 1.929-0.673 2.466s-1.11 0.805-1.922 0.805c-0.723 0-1.32-0.256-1.793-0.768s-0.709-1.22-0.709-2.124c0-0.757 0.18-1.384 0.539-1.88 0.456-0.62 1.159-0.93 2.108-0.93 0.6 0 1.099 0.138 1.499 0.414 0.399 0.275 0.691 0.677 0.876 1.205l-1.44 0.241c-0.079-0.274-0.195-0.474-0.349-0.597m-1.727 2.049c-4e-3 0.395 0.097 0.708 0.303 0.939 0.205 0.23 0.465 0.345 0.78 0.345 0.295 0 0.545-0.109 0.75-0.327 0.206-0.219 0.314-0.538 0.324-0.957zm9.73 0.201c0 0.421-0.027 0.745-0.08 0.971s-0.147 0.428-0.282 0.607c-0.136 0.178-0.335 0.324-0.599 0.439s-0.555 0.172-0.874 0.172c-0.723 0-1.323-0.307-1.799-0.922v0.801h-1.342v-5.46h1.445v2.471c0 0.61 0.037 1.028 0.111 1.254 0.073 0.226 0.209 0.408 0.408 0.545 0.198 0.137 0.423 0.205 0.673 0.205 0.195 0 0.362-0.048 0.501-0.144 0.138-0.095 0.238-0.23 0.3-0.403 0.061-0.173 0.092-0.554 0.092-1.143v-2.785h1.446zm6.467 4.142h-1.446v-2.713c-0.445 0.507-0.972 0.76-1.582 0.76-0.664 0-1.213-0.24-1.648-0.722-0.435-0.481-0.652-1.184-0.652-2.108 0-0.904 0.223-1.609 0.67-2.114s0.984-0.758 1.61-0.758c0.309 0 0.614 0.076 0.917 0.227 0.303 0.152 0.566 0.384 0.789 0.696v-0.802h1.342zm-3.502-3.467c0.23 0.272 0.516 0.408 0.858 0.408 0.352 0 0.64-0.137 0.866-0.413 0.225-0.276 0.338-0.727 0.338-1.353 0-0.561-0.116-0.983-0.349-1.266-0.232-0.282-0.514-0.424-0.845-0.424-0.416 0-0.741 0.189-0.973 0.565-0.161 0.26-0.241 0.682-0.241 1.264 0 0.54 0.115 0.947 0.346 1.219m7.735-2.925c-0.154-0.124-0.344-0.186-0.57-0.186-0.333 0-0.61 0.119-0.833 0.356-0.223 0.238-0.339 0.57-0.349 0.998h3.617c0.02 1.107-0.204 1.929-0.673 2.466-0.47 0.537-1.11 0.805-1.922 0.805-0.723 0-1.321-0.256-1.794-0.768-0.472-0.512-0.709-1.22-0.709-2.124 0-0.757 0.18-1.384 0.54-1.88 0.456-0.62 1.158-0.93 2.108-0.93 0.6 0 1.099 0.138 1.498 0.414 0.399 0.275 0.692 0.677 0.877 1.205l-1.44 0.241c-0.079-0.274-0.196-0.474-0.35-0.597m-1.727 2.049c-3e-3 0.395 0.098 0.708 0.303 0.939 0.206 0.23 0.466 0.345 0.781 0.345 0.294 0 0.544-0.109 0.75-0.327 0.205-0.219 0.313-0.538 0.323-0.957zm6.148-1.506c0 0.929 0.04 1.538 0.121 1.83 0.08 0.291 0.191 0.492 0.331 0.603 0.141 0.112 0.312 0.167 0.514 0.167 0.209 0 0.435-0.079 0.678-0.236l0.447 1.26c-0.305 0.181-0.622 0.272-0.951 0.272-0.233 0-0.441-0.058-0.624-0.173-0.184-0.116-0.39-0.357-0.62-0.724v0.776h-1.342v-5.46h1.446zm5.517-1.685 2.168 5.46h-1.486l-1.038-2.786c-0.055-0.155-0.107-0.309-0.155-0.463-0.02-0.076-0.07-0.232-0.149-0.468l-0.297 0.931-1.027 2.786h-1.515l2.199-5.46zm5.858 1.142c-0.154-0.124-0.344-0.186-0.57-0.186-0.333 0-0.61 0.119-0.833 0.356-0.223 0.238-0.339 0.57-0.349 0.998h3.617c0.02 1.107-0.204 1.929-0.673 2.466-0.47 0.537-1.11 0.805-1.922 0.805-0.723 0-1.321-0.256-1.794-0.768-0.472-0.512-0.709-1.22-0.709-2.124 0-0.757 0.18-1.384 0.54-1.88 0.456-0.62 1.158-0.93 2.108-0.93 0.6 0 1.099 0.138 1.498 0.414 0.4 0.275 0.692 0.677 0.877 1.205l-1.44 0.241c-0.079-0.274-0.195-0.474-0.35-0.597m-1.727 2.049c-3e-3 0.395 0.098 0.708 0.303 0.939 0.206 0.23 0.466 0.345 0.781 0.345 0.295 0 0.544-0.109 0.75-0.327 0.205-0.219 0.313-0.538 0.324-0.957zm6.148-1.506c0 0.929 0.04 1.538 0.121 1.83 0.08 0.291 0.191 0.492 0.331 0.603 0.141 0.112 0.312 0.167 0.514 0.167 0.209 0 0.435-0.079 0.679-0.236l0.446 1.26c-0.305 0.181-0.622 0.272-0.951 0.272-0.233 0-0.441-0.058-0.624-0.173-0.184-0.116-0.39-0.357-0.62-0.724v0.776h-1.342v-5.46h1.446zm3.991-1.685v0.802c0.219-0.305 0.481-0.535 0.784-0.69s0.611-0.233 0.923-0.233c0.635 0 1.174 0.252 1.618 0.755 0.444 0.504 0.666 1.221 0.666 2.153 0 0.9-0.218 1.591-0.653 2.072-0.435 0.482-0.986 0.722-1.651 0.722-0.61 0-1.138-0.253-1.584-0.76v2.713h-1.445v-7.534zm0.437 4.072c0.229 0.269 0.518 0.403 0.864 0.403 0.354 0 0.644-0.137 0.87-0.413 0.227-0.276 0.34-0.725 0.34-1.348 0-0.585-0.113-1.014-0.337-1.286-0.225-0.272-0.497-0.409-0.816-0.409-0.415 0-0.748 0.192-0.999 0.576-0.178 0.27-0.267 0.688-0.267 1.253 0 0.547 0.115 0.956 0.345 1.224m6.136 0.251c0.144 0.102 0.344 0.152 0.601 0.152 0.379 0 0.638-0.059 0.775-0.177 0.136-0.119 0.205-0.317 0.205-0.594v-0.144c-0.26-0.11-0.727-0.228-1.401-0.355-0.5-0.096-0.882-0.208-1.147-0.336s-0.471-0.313-0.618-0.554c-0.147-0.242-0.221-0.516-0.221-0.824 0-0.466 0.162-0.851 0.485-1.155 0.324-0.305 0.766-0.457 1.328-0.457 0.318 0 0.618 0.06 0.898 0.18 0.281 0.12 0.545 0.3 0.791 0.54 0.01-0.028 0.027-0.084 0.051-0.17 0.055-0.19 0.101-0.333 0.139-0.429h1.429c-0.127 0.26-0.213 0.504-0.26 0.732-0.046 0.228-0.069 0.582-0.069 1.062l0.023 1.685c0 0.627-0.064 1.058-0.193 1.293-0.128 0.235-0.35 0.428-0.666 0.581-0.315 0.152-0.795 0.228-1.44 0.228-0.71 0-1.245-0.127-1.605-0.381s-0.614-0.645-0.761-1.174l1.307-0.236c0.089 0.254 0.206 0.432 0.349 0.533m1.581-1.989c0-0.346-0.019-0.58-0.057-0.703-0.054-0.187-0.169-0.346-0.343-0.476-0.235-0.171-0.483-0.256-0.742-0.256-0.232 0-0.424 0.073-0.574 0.22s-0.225 0.321-0.225 0.523c0 0.205 0.094 0.374 0.281 0.507 0.123 0.082 0.385 0.166 0.784 0.251 0.399 0.086 0.691 0.159 0.876 0.221zm7.809 1.058c0 0.421-0.027 0.745-0.08 0.971s-0.147 0.428-0.282 0.607c-0.136 0.178-0.335 0.324-0.599 0.439s-0.555 0.172-0.874 0.172c-0.723 0-1.323-0.307-1.799-0.922v0.801h-1.342v-5.46h1.445v2.471c0 0.61 0.037 1.028 0.111 1.254 0.073 0.226 0.209 0.408 0.408 0.545s0.423 0.205 0.673 0.205c0.195 0 0.362-0.048 0.501-0.144 0.138-0.095 0.238-0.23 0.3-0.403s0.092-0.554 0.092-1.143v-2.785h1.446zm6.467 4.142h-1.446v-2.713c-0.445 0.507-0.972 0.76-1.582 0.76-0.664 0-1.213-0.24-1.648-0.722-0.435-0.481-0.652-1.184-0.652-2.108 0-0.904 0.223-1.609 0.67-2.114s0.984-0.758 1.61-0.758c0.309 0 0.614 0.076 0.917 0.227 0.303 0.152 0.566 0.384 0.789 0.696v-0.802h1.342zm-3.502-3.467c0.23 0.272 0.516 0.408 0.858 0.408 0.352 0 0.64-0.137 0.866-0.413 0.225-0.276 0.338-0.727 0.338-1.353 0-0.561-0.116-0.983-0.349-1.266-0.232-0.282-0.514-0.424-0.845-0.424-0.416 0-0.741 0.189-0.973 0.565-0.161 0.26-0.241 0.682-0.241 1.264 0 0.54 0.115 0.947 0.346 1.219" fill="#0080c8"/>
    </g>
   </g>
  </g>
  <g transform="matrix(.0057521 0 0 -.0057521 33.935 27.319)">
   <path d="m15.121 2108.9 918 2072.9 917.28-2072.9-917.28-2073.6-918 2073.6" fill="#0e88d3" fill-rule="evenodd"/>
   <path d="m2.1641 2103.1-2.1641 5.77 2.1641 5.75 12.957-5.75zm918-2073.6-918 2073.6 25.918 11.52 918-2074.3zm25.918 0-12.957-29.52-12.961 29.52 12.961 5.75zm917.28 2073.6-917.28-2073.6-25.918 10.801 917.28 2074.3zm0 11.52 2.88-5.75-2.88-5.77-12.96 5.77zm-917.28 2072.9 917.28-2072.9-25.92-11.52-917.28 2072.9zm-25.918 0 12.961 29.52 12.957-29.52-12.957-5.76zm-918-2072.9 918 2072.9 25.918-11.52-918-2072.9-25.918 11.52" fill="#0e88d3"/>
   <path d="m1144.1 1823v-141.84h-15.12v141.11c5.04 0 9.36 0 15.12 0.73zm0 197.99v-28.07c-5.04 0.72-9.36 0.72-14.4 0-40.32-1.44-60.48-10.8-60.48-28.8 0.72-18.72 21.6-29.52 62.64-31.68 4.32-0.72 7.92-0.72 12.24-0.72v-28.08h-15.12c-22.32 2.16-42.48 7.92-59.76 18-18 10.08-26.64 24.48-26.64 42.48 0.72 18 8.64 31.68 25.92 41.03 16.56 9.37 35.28 14.41 56.88 15.13 6.48 0.71 12.24 0.71 18.72 0.71zm0 146.89v-25.92c-5.76 0-10.8 0-16.56-0.72-38.16-4.33-56.88-15.12-56.88-31.68 0.72-16.56 20.88-26.64 61.2-30.24 4.32-0.73 7.92-0.73 12.24-0.73v-28.79c-9.36-0.72-18.72 0-28.8 2.16-19.44 3.6-36.72 10.79-51.12 22.32-13.68 10.8-20.88 23.76-21.6 37.44 0 13.68 7.92 25.91 23.04 35.28s33.84 15.84 54.72 19.44c7.92 1.44 15.84 1.44 23.76 1.44zm0 371.52v-157.68c-5.76 1.44-10.08 1.44-15.12 1.44v156.24zm-74.88-280.08c0-15.84 18-26.64 54.72-32.41 7.2-0.71 13.68-1.43 20.16-0.71v-25.21c-7.2-0.71-14.4 0-22.32 0.73-20.88 2.88-38.88 8.64-54.72 18-15.84 10.08-23.76 23.03-24.48 39.6 0 15.12 7.92 28.08 23.76 38.16 16.56 10.8 34.56 16.56 56.16 19.44 7.2 0.72 14.4 0.72 21.6 0v-26.64c-5.76 0-10.8-0.72-16.56-1.44-38.16-5.04-57.6-15.12-58.32-29.52zm74.88-33.12c28.08 0 53.28 10.8 75.61 30.96-20.17 21.6-45.36 33.12-75.61 33.12v26.64c13.68 0 28.08-2.88 41.76-7.2 21.6-7.2 37.44-20.16 48.95-38.16 15.13 29.52 11.53 38.88 0.73 65.52-6.48 18-56.16 39.6-91.44 44.64v157.68h7.2v-135.36c38.16-3.6 98.64-31.68 108.72-64.08 11.52-33.84 7.92-50.4-9.36-84.24 29.53-57.61 28.8-105.84-1.44-144 16.56-25.92 23.76-51.12 22.32-75.6-1.43-24.48-8.64-46.8-22.32-66.96 18.72-27.37 23.04-61.2 14.4-102.96-9.36-41.05-75.6-67.68-112.32-67.68v-117.36h-7.2v141.84c37.44 3.6 90.71 20.87 97.2 45.36 7.92 28.08 5.76 54-5.04 77.76-7.2-15.13-20.88-26.64-42.48-33.85-15.84-5.04-32.4-7.91-49.68-8.63v28.08c34.56 0.72 59.76 11.52 75.61 32.4-17.29 18-42.49 28.08-75.61 28.8v28.07c15.12-0.71 29.52-3.59 43.92-7.19 20.88-5.76 35.28-14.4 43.92-26.64 12.96 20.16 18.72 38.87 15.84 57.6-2.15 17.99-7.19 33.83-14.4 47.51-15.84-19.43-34.56-31.67-56.16-37.44-10.8-3.59-22.32-5.03-33.12-5.03v28.79c33.84-0.71 59.04 10.09 75.61 33.13-20.17 20.15-45.36 30.24-75.61 30.24v25.92c12.96 0 25.92-1.44 38.88-4.33 20.88-4.31 38.16-15.1 50.4-30.23 22.32 28.8 21.6 61.91-1.44 99.36-10.8-12.96-26.64-21.61-47.53-26.65-13.67-3.59-26.63-5.04-40.31-5.04v25.21" fill="#fff" fill-rule="evenodd"/>
   <path d="m1145.5 1798.6v7.2h5.76v-7.2zm102.24 30.96c-25.91-23.76-69.12-38.16-96.48-38.16v14.4c25.19 0 65.53 12.96 89.29 35.27zm13.68 15.84c-3.6-5.76-8.64-10.8-13.68-15.84l-7.19 11.51c4.31 4.33 8.63 8.65 11.51 12.96zm7.92 19.44c-1.44-7.2-4.32-12.97-7.92-19.44l-9.36 8.63c2.88 4.33 4.32 9.37 5.76 14.41zm0 0-5.76 1.44zm0 0-11.52 3.6zm2.88 59.76c2.88-18 1.44-38.15-2.88-59.76l-11.52 3.6c4.32 19.44 5.04 37.44 2.88 54zm-18 48.96c9.36-14.4 15.85-30.96 18-48.96l-11.52-2.16c-2.16 15.84-7.2 29.51-15.84 42.47zm-9.36-8.65-2.88 4.33 2.88 4.32 4.32-4.32zm29.51 48.97c-3.59-17.28-10.79-33.84-20.15-48.97l-9.36 8.65c8.64 13.68 15.12 28.08 18 43.92zm1.45 10.8c0-3.61-0.72-7.2-1.45-10.8l-11.51 3.6c0.72 2.88 1.45 5.75 1.45 9.36zm1.44 10.8c0-3.61-0.72-7.2-1.44-10.8l-11.51 2.16c0.71 2.88 0.71 6.48 1.43 9.36zm0 0-11.52 0.72v0.71zm-11.52 1.43 5.76-0.71zm0 56.17c8.63-19.45 12.24-38.17 11.52-57.6l-11.52 1.43c0.71 15.85-2.88 33.13-10.08 49.69zm-5.04 11.52c2.16-3.6 3.61-7.92 5.04-11.52l-10.08-6.48c-1.44 3.6-2.88 7.2-5.04 10.08zm-6.48 10.8c2.16-3.6 4.32-7.21 6.48-10.8l-10.08-7.92c-1.44 3.59-3.6 7.2-5.76 10.8zm0 0.71v-0.71l-9.36-7.92zm-9.36-8.63-2.88 5.04 2.88 4.32 4.32-5.04zm29.51 102.24c9.37-39.6 2.17-73.44-20.87-102.96l-8.64 10.08c20.16 25.2 25.92 54.72 18 89.27zm-7.19 23.76c2.89-8.64 5.76-15.84 7.19-23.76l-11.51-3.61c-1.44 7.21-3.6 13.69-5.76 20.88zm-10.08 23.76c3.6-7.92 7.21-15.84 10.08-23.76l-10.08-6.49c-2.88 7.21-6.48 15.13-10.08 23.05zm-1.44 2.16c1.44-2.16 0.72-0.73 1.44-2.16l-10.08-7.2c-1.43 2.88-0.72 0.72-1.43 1.44zm-10.07-7.92-1.45 3.6 1.45 4.32 5.03-3.6zm26.63 45.36c-2.15-13.68-7.2-26.64-16.56-44.64l-10.07 7.2c8.63 15.84 12.95 27.36 14.39 39.6zm-6.48 46.08c5.76-18 7.92-32.4 6.48-46.08l-12.24 2.16c1.44 11.52 0 23.04-5.04 38.88zm-77.04 59.76c33.84-12.24 68.4-34.56 77.04-59.76l-10.8-5.04c-7.2 20.16-38.89 40.32-69.12 51.12zm-18.72 5.76c5.76-1.44 12.24-3.6 18.72-5.76l-2.88-13.68c-6.48 2.16-12.24 4.32-18 5.04zm-18 2.88c5.76-0.72 11.52-1.44 18-2.88l-2.16-14.4c-6.48 1.44-11.52 2.88-16.56 2.88zm0 0-0.72-14.4h-0.71zm-1.43-14.4-5.05 0.72v6.48h5.76zm6.47 142.56v-135.36h-11.52v135.36zm-5.76 7.2h5.76v-7.2h-5.76zm-22.32 0h22.32v-13.68h-22.32zm-5.76-7.2v7.2h5.76v-7.2zm0-156.24v156.24h12.24v-156.24zm5.76-7.2h-5.76v7.2h5.76zm85.68-27.36c-23.04 15.12-62.64 27.36-85.68 27.36v14.4c24.48 0 66.24-13.68 91.44-28.8zm10.8-7.92c-2.88 2.16-6.48 5.04-10.8 7.92l5.76 12.96c5.04-3.6 9.37-6.48 12.25-10.08zm5.04-6.48c-0.71 1.44-2.16 3.6-5.04 6.48l7.21 10.8c4.31-3.6 7.18-7.2 8.63-11.52zm0 0 5.04 2.88zm0 0 10.8 5.76zm0 0 5.04 2.88zm0-0.72v0.72l10.8 5.76s-0.71 0.72 0 0zm10.8 6.48-5.04-2.88zm-11.51-65.52c13.67 27.36 10.06 36 0.71 59.76l10.8 5.76c11.52-28.8 15.12-39.6-1.45-72zm10.06-6.48-4.31-8.64-5.75 7.92 5.02 4.32zm-34.55 41.04c13.68-7.92 25.2-19.44 34.55-33.84l-10.06-7.92c-7.21 12.24-17.29 21.6-29.54 28.8zm-8.64 3.6c2.88-0.72 5.76-2.16 8.64-3.6l-5.05-12.96c-2.87 1.44-5.03 2.16-7.92 3.6zm-9.36 3.6c2.89-0.72 6.48-2.16 9.36-3.6l-4.33-12.96c-2.87 0.72-5.03 2.16-7.92 2.88zm-2.89-13.68 1.45 7.2zm2.89 13.68-2.89-13.68zm0 0-1.44-6.48zm-33.12 7.2c10.8-0.72 22.31-3.6 33.12-7.2l-2.89-13.68c-10.79 3.6-20.87 5.76-30.95 7.2zm-32.4 0c11.52 1.44 21.6 1.44 32.4 0l-0.72-13.68c-10.79 0.72-20.16 0.72-30.24 0zm0 0 0.72-6.48zm-43.2-11.52c12.96 6.48 27.36 10.08 43.2 11.52l1.44-13.68c-15.12-1.44-28.08-5.04-40.32-10.8zm-7.2-3.6c2.16 1.44 5.04 2.88 7.2 3.6l4.32-12.96c-2.16-1.44-5.04-2.16-7.2-3.6zm-7.2-4.32c2.16 1.44 4.32 2.88 7.2 4.32l4.32-12.96c-1.44-0.72-4.32-2.16-6.48-3.6zm5.04-12.24-2.16 5.76zm-5.04 12.24s-0.72 0 0 0l5.04-12.24c-0.72-0.72 0 0 0 0zm-27.36-44.64c0 18 9.36 33.12 27.36 44.64l5.04-12.24c-13.68-9.36-20.88-20.16-20.88-32.4zm0-0.73v0.73h5.76zm7.2-25.91c-4.32 7.92-7.2 16.56-7.2 25.91l11.52 0.73c0.72-6.48 2.16-12.95 5.04-18zm20.16-18.73c-8.64 5.04-15.12 11.53-20.16 18.73l9.36 8.64c3.6-5.76 9.36-10.79 15.84-15.12zm0 0 2.88 5.77zm39.6-15.84c-14.4 2.88-28.08 8.65-39.6 15.84l5.04 12.25c10.8-6.48 23.04-11.51 36.72-14.41zm8.64-2.15c-2.88 0.72-5.76 1.44-8.64 2.15l2.16 13.68c2.88-0.72 5.04-1.43 7.92-1.43zm8.64-1.44c-2.88 0.71-5.76 1.44-8.64 1.44l1.44 14.4c2.88-0.72 5.76-1.44 8.64-1.44zm0 0 0.72 7.2zm0.72 0h-0.72l1.44 14.4zm45.36 0.71c-15.12-2.15-30.96-2.15-45.36-0.71l0.72 14.4c13.68-1.44 28.8-1.44 43.2 0.72zm9.35 1.45c-2.87 0-6.47-0.72-9.35-1.45l-1.44 14.41c2.88 0 5.76 0.72 8.65 1.43zm8.65 2.17c-2.88-0.74-5.76-1.45-8.65-2.17l-2.14 14.39c2.87 0.72 5.76 0.72 8.63 1.45zm0 0-2.16 13.67zm0 0-0.73 7.18zm28.81 11.51c-7.92-5.04-17.29-8.64-28.81-11.51l-2.16 13.67c10.08 2.88 18.72 6.47 26.64 10.09zm21.59 17.27c-5.75-7.19-12.96-12.94-21.59-17.27l-4.33 12.25c7.21 4.3 12.96 9.35 18.01 15.1zm-7.91 10.08 5.04 5.77 3.59-6.48-4.32-4.32zm13.67-76.31c5.76 20.16 1.44 42.48-14.4 66.96l9.36 8.64c18-28.8 23.76-55.44 16.56-79.92zm-4.32-11.52c2.16 4.32 3.61 7.92 4.32 11.52l11.52-4.32c-1.44-5.04-3.6-10.08-5.76-14.4zm-7.19-10.8c2.88 3.6 5.02 7.2 7.19 10.8l10.08-7.2c-2.88-4.32-5.76-9.36-8.64-13.69zm8.63-10.09-4.32 5.05zm-9.36 8.64c0 0.73 0 0.73 0.73 1.45l8.63-10.09-0.71-0.71zm8.65-9.35-4.33-5.76-4.32 5.76 4.32 5.04zm-36.01 36.72c14.39-5.76 26.64-15.12 36.01-27.37l-8.65-9.35c-7.92 10.08-18.72 18-30.95 23.76zm-8.64 3.59c2.89-1.43 5.76-2.15 8.64-3.59l-3.59-12.96c-2.89 0.71-5.05 1.44-7.92 2.88zm-9.36 2.17c3.6-0.72 6.49-1.44 9.36-2.17l-2.87-13.67c-2.89 0.72-5.78 1.45-8.65 2.16zm0 0-0.72-7.21zm0 0-2.16-13.68zm-32.4 4.32c10.8-0.72 21.6-2.16 32.4-4.32l-2.16-13.68c-10.08 2.16-20.88 3.6-30.95 3.6zm-31.68-1.44c10.8 1.44 20.88 2.16 31.68 1.44l-0.71-14.4c-10.09 0.72-19.45 0-30.25-1.44zm0 0 0.72-7.2zm-30.24-7.92c9.36 3.6 19.44 5.76 30.24 7.92l1.44-14.4c-10.08-1.44-20.16-3.6-28.8-7.2zm-26.64-12.24c7.92 5.04 17.28 9.36 26.64 12.24l2.88-13.68c-8.64-2.88-16.56-6.48-23.76-11.51zm5.76-12.95-2.88 6.47zm-24.48-5.05c4.32 6.48 10.8 12.23 18.72 18l5.76-12.95c-7.2-4.33-12.24-8.66-15.12-13.7zm-7.2-23.76c0 8.64 2.16 16.56 7.2 23.76l9.36-8.65c-2.88-5.04-5.04-10.07-5.04-15.11zm0 0h5.76zm12.24-32.4c-7.92 10.08-12.24 20.87-12.24 32.4h11.52c0.72-7.92 3.6-15.12 9.36-22.32zm0 0 4.32 5.04zm5.04-5.04c-1.44 1.44-2.88 3.6-5.04 5.04l8.64 10.08 4.32-4.32zm5.76-5.04c-1.44 1.44-3.6 2.88-5.76 5.04l7.92 10.8c1.44-1.44 2.88-2.88 5.04-4.32zm1.44-1.44-1.44 1.44 7.2 11.52 0.72-0.72zm6.48 12.24-3.6-5.76zm18-26.64c-8.64 3.6-17.28 8.64-24.48 15.12l6.48 11.52c6.48-5.04 13.68-10.08 22.32-13.67zm28.8-8.64c-10.08 1.44-20.16 5.04-28.8 8.64l4.32 12.97c7.92-3.62 16.56-5.77 26.64-7.92zm2.16 13.69-1.44-6.49zm43.2-14.41c-15.84-2.88-30.24-2.17-45.36 0.72l2.16 13.69c13.68-2.17 27.36-2.89 41.76-0.74zm9.36 1.44c-3.6-0.72-6.48-1.44-9.36-1.44l-1.44 13.67c2.88 0.74 5.76 0.74 8.64 1.45zm9.36 2.15c-3.6-0.72-6.48-1.43-9.36-2.15l-2.16 13.68 8.64 2.16zm0 0-1.44 6.49zm0 0-2.88 13.69h0.71zm44.64 24.49c-13.68-12.24-28.08-20.16-44.64-24.49l-2.17 13.69c14.41 4.32 28.09 11.52 39.6 21.6zm7.2 7.2c-2.87-2.88-5.04-5.04-7.2-7.2l-7.21 10.8c2.17 2.16 4.33 4.31 6.49 6.48zm7.21 7.91c-2.9-2.87-5.04-5.75-7.21-7.91l-7.92 10.08c2.17 2.87 4.32 5.04 6.48 7.92zm-8.65 10.09 4.32-5.05zm8.65-10.09-8.65 10.09s-0.72-0.72 0-0.72zm-8.65 9.37 5.04 7.2 4.32-7.92-5.04-3.61zm10.79-38.89c-2.87 11.53-6.47 21.61-11.51 30.25l10.08 7.92c5.04-10.08 9.36-21.6 12.24-34.56zm1.45-7.18c-0.71 2.15-1.45 5.03-1.45 7.18l10.81 3.61c0.72-2.16 1.44-5.04 1.44-7.92zm0.72-7.21c0 2.88-0.72 5.04-0.72 7.21l10.8 2.87c0.72-2.87 1.44-5.04 1.44-7.92zm0 0 11.52 2.16zm0 0 5.76 1.44zm-2.17-24.47c2.89 7.91 3.61 16.55 2.17 24.47l11.52 2.16c1.44-10.08 0.72-20.88-2.16-30.96zm-12.95-26.65c6.48 8.64 10.81 17.99 12.95 26.65l11.53-4.33c-2.88-10.8-7.92-20.88-15.12-31.68zm9.36-9.36-4.32-6.47-4.31 6.47 4.31 4.32zm-30.23 31.68c12.95-5.76 23.03-12.96 30.23-22.32l-8.63-9.36c-5.76 7.2-14.41 13.68-25.93 18.72zm-7.92 3.59c2.88-1.43 5.03-2.15 7.92-3.59l-4.33-12.96c-2.16 0.71-4.32 2.16-7.2 2.88zm-8.65 2.17c2.87-0.72 5.76-1.43 8.65-2.17l-3.61-13.67c-2.17 0.71-5.04 1.44-7.92 2.16zm0 0.71v-0.71l-1.44-6.48zm0-0.71s-0.72 0.71 0 0.71l-2.88-14.39zm0 0-1.44-6.48zm-46.08 7.2c15.12 0 30.97-2.88 46.08-7.2l-2.88-13.68c-14.4 4.32-28.8 6.48-43.91 7.2zm-8.64 0.72c2.16 0 5.04 0 8.64-0.72l-0.71-13.68h-7.93zm-9.36-0.72c2.88 0 5.76 0.72 9.36 0.72v-14.4h-8.64zm0 0v-7.2zm0 0s-0.72 0 0 0l0.72-13.68-0.72-0.72zm-43.92-8.63c12.96 5.03 28.08 7.91 43.92 8.63v-14.4c-14.4-0.72-28.08-3.6-41.04-7.93zm-7.92-3.62c2.16 1.45 5.04 2.17 7.92 3.62l2.88-13.7c-2.16-0.71-4.32-2.15-6.48-2.88zm-7.2-3.59c2.16 1.44 4.32 2.88 7.2 3.59l4.32-12.96c-2.16-1.43-5.04-2.15-7.2-3.59zm-0.72 0h0.72l4.32-12.96zm5.04-12.96-2.16 6.47zm-30.96-16.56c4.32 12.24 12.96 22.32 25.92 29.52l5.04-12.96c-10.08-5.76-16.56-12.96-20.16-21.6zm-2.16-7.92c0.72 2.88 1.44 5.76 2.16 7.92l10.8-5.04c-0.72-2.16-0.72-3.6-1.44-5.76zm0 0 5.76-1.45zm-0.72-8.64c0 2.89 0.72 5.76 0.72 8.64l11.52-2.88v-5.76zm12.24 0h-6.48zm-12.24-1.44v1.44h12.24c0-0.73-0.72-1.44-0.72-1.44zm0 0h5.76zm15.84-38.89c-10.8 10.8-15.84 23.76-15.84 38.89h11.52c0-10.8 4.32-20.17 11.52-27.36zm6.48-5.04c-2.16 1.45-4.32 3.61-6.48 5.04l7.2 11.53c2.16-2.16 3.6-3.61 5.76-5.04zm7.2-5.04c-2.16 1.45-5.04 2.89-7.2 5.04l6.48 11.53c1.44-1.44 3.6-2.16 5.76-3.61zm5.04 12.96-2.16-6.47zm-5.04-12.96 5.04 12.96zm29.52-12.23c-10.08 2.88-20.16 6.48-29.52 12.23l5.04 12.96c8.64-5.03 17.28-8.63 27.36-11.51zm33.12-5.76c-11.52 0.72-22.32 2.16-33.12 5.76l2.88 13.68c9.36-2.88 20.16-5.04 30.96-5.76zm48.24 2.88c-16.56-2.88-32.41-4.32-48.24-2.88l0.72 13.68c15.11-0.72 30.24 0 45.36 3.6zm8.64 2.88c-2.88-1.44-5.75-2.16-8.64-2.88l-2.16 14.4c2.88 0.71 5.76 1.44 8.64 2.16zm9.36 2.88c-2.89-1.44-6.48-2.16-9.36-2.88l-2.16 13.68c2.88 0.72 5.76 1.44 8.63 2.16zm0 0-1.44 6.47zm0 0-2.89 12.96v0.72zm0.73 0h-0.73l-1.44 6.47zm36.72 23.05c-8.66-10.09-20.88-18.01-36.72-23.05l-3.62 13.68c14.41 4.32 25.21 10.8 32.42 19.44zm5.04 7.18c-1.45-2.88-2.9-5.04-5.04-7.18l-7.92 10.07c1.43 2.15 2.15 3.6 3.59 5.03zm-9.37 7.92 4.33-4.31zm12.96-1.43c-0.71-2.16-2.16-4.32-3.59-6.49l-9.37 7.92c0.72 2.17 2.16 3.61 2.88 5.77zm-10.08 7.2 5.04-3.6zm10.08-7.2-10.08 7.2zm-10.08 7.2 5.04 10.81 5.04-10.81-5.04-3.6zm8.63-41.04c-0.71 11.51-3.59 23.04-8.63 33.84l10.08 7.2c5.76-12.96 9.36-25.92 10.08-40.32zm-4.31-38.15c3.6 12.95 5.05 25.91 4.31 38.15l11.53 0.72c1.44-13.68 0-28.08-4.32-43.2zm-62.64-35.3c29.52 7.21 59.04 19.46 62.64 35.3l11.52-4.33c-5.76-21.6-38.89-36.72-72-44.64zm-17.27-3.59c5.75 0.72 11.51 2.16 17.27 3.59l2.16-13.67c-5.76-1.44-12.24-2.88-18-4.33zm-25.93-2.88c6.48 0 15.84 1.43 25.93 2.88l1.43-14.41c-10.8-1.43-20.16-2.15-27.36-2.15zm-0.72 0h0.72v-13.68h-0.72zm-5.76-6.49v6.49h5.76v-6.49zm0-141.11v141.11h12.24v-141.11zm5.76-7.21h-5.76v7.21h5.76zm22.32 0h-22.32v14.41h22.32zm5.76 7.21v-7.21h-5.76v7.21zm0 117.36v-117.36h-11.52v117.36zm-93.6 165.6h5.76zm23.04 14.4c-7.92-3.6-11.52-8.64-11.52-14.4h-11.52c0 12.25 5.76 21.6 18.72 27.36zm43.2 7.2c-19.44 0-33.84-2.88-43.2-7.2l-4.32 12.96c10.8 5.04 26.64 7.92 47.52 8.64zm51.12-5.76c-14.4 5.04-31.68 6.48-51.12 5.76v14.4c20.15 0.72 38.16-1.44 54-6.48zm35.27-20.88c-9.35 9.37-20.87 16.56-35.27 20.88l2.88 13.68c15.84-5.05 29.52-12.96 40.31-23.76zm7.92 10.8 4.33-5.05-4.33-5.03-4.3 4.32zm-41.75-24.48c13.69 5.04 25.2 12.96 33.83 23.76l7.92-9.36c-9.35-12.97-22.31-22.32-38.15-28.08zm-50.4-5.76c19.44-1.44 36 0.72 50.4 5.76l3.6-13.68c-15.84-5.76-33.84-7.92-54.72-6.49zm-0.72-14.41 0.72 7.21zm-43.92 23.76c10.08-5.04 25.2-8.63 44.64-9.35l-0.72-14.41c-20.88 1.45-36.72 5.05-48.24 10.8zm-12.24 15.84c0-6.47 4.32-11.51 12.24-15.84l-4.32-12.96c-12.24 6.49-19.44 15.84-19.44 28.09zm-10.08 144.73h5.76zm22.32 13.68c-7.2-3.6-10.8-7.92-10.8-13.68h-11.52c0 11.51 5.76 20.16 17.28 26.64zm41.04 10.8c-18.72-2.17-32.4-5.76-41.04-10.8l-5.04 12.96c10.08 5.76 25.2 9.36 44.64 12.25zm66.96-11.52c-18.73 10.8-41.76 14.39-66.96 11.52l-1.44 14.41c27.36 2.87 52.56-1.45 73.43-13.69zm10.81-7.2c-2.89 2.16-6.49 5.04-10.81 7.2l5.03 12.24c4.33-2.15 8.65-5.04 12.25-7.93zm6.47 11.51-2.88-5.76zm3.59-20.87c-2.87 3.6-6.47 6.48-10.06 9.36l6.47 11.51c3.59-2.88 7.21-5.76 11.51-9.35zm7.92 11.52-4.3-5.76zm-7.92-11.52 7.92 11.52zm7.92 11.52 4.33-5.04-3.59-5.76-5.04 5.04zm-42.47-26.64c13.68 5.04 25.2 13.68 33.84 25.92l9.37-10.08c-10.8-13.68-23.76-23.04-39.61-29.52zm-48.96-5.04c18.01-1.44 35.28 0 48.96 5.04l3.6-13.68c-15.84-5.04-33.84-7.2-54-5.04zm-52.56 16.56c7.92-7.92 25.2-13.68 52.56-16.56l-1.44-13.68c-29.52 2.88-49.68 9.36-59.04 19.44zm-2.88 3.6c0.72-0.73 1.44-2.16 2.88-3.6l-7.92-10.8c-2.16 2.88-3.6 5.04-5.04 7.92zm-0.72 3.6c0-0.71 0.72-2.16 0.72-3.6l-10.08-6.48c-1.44 2.88-2.16 6.48-2.16 9.37zm0 0.72v-0.72l-11.52-0.71v0.71zm-12.96 149.04h5.76zm23.04 12.24c-7.2-3.6-11.52-7.92-11.52-12.97l-11.52 0.73c0 10.8 6.48 18.72 18.72 24.48zm41.76 10.8c-18.72-2.88-32.4-6.48-41.76-10.8l-4.32 12.24c10.08 5.76 25.2 9.36 44.64 12.24zm0 0-0.72 6.48zm48.96-4.32c-15.12 5.04-31.68 6.48-48.96 4.32l-1.44 13.68c18.72 2.88 36.72 1.44 53.29-4.32zm38.87-25.92c-11.51 12.24-24.47 20.88-38.87 25.92l2.89 13.68c16.55-5.76 30.95-15.84 43.9-29.52zm7.92 10.08 5.05-5.76-5.76-5.04-3.59 5.76zm-71.27-28.8c23.04 2.16 44.64 12.24 64.09 29.52l6.47-11.52c-20.88-18.72-43.92-29.53-69.84-32.41zm-14.4-0.72c5.04 0 10.08 0 14.4 0.72l0.72-14.41h-15.12zm-13.68 1.44c5.04-0.72 10.08-0.72 13.68-1.44v-13.69c-4.32 0-9.36 0.73-15.12 1.45zm0 0-1.44-13.68zm-46.8 17.28c6.48-7.92 22.32-13.69 46.8-17.28l-1.44-13.68c-27.36 3.6-45.36 10.8-53.28 20.88zm-2.16 3.6c0.72-0.72 1.44-2.16 2.16-3.6l-7.92-10.08c-2.16 2.88-3.6 5.05-5.04 7.92zm-0.72 3.59c0-0.71 0-2.15 0.72-3.59l-10.8-5.76c-0.72 2.88-1.44 6.48-1.44 9.35zm0 0.73v-0.73h-11.52v0.73h11.52" fill="#fff"/>
   <path d="m1157 2539.4h-435.6v-367.2" fill="none" stroke="#fff" stroke-width="59.624"/>
   <path d="m721.44 2052.7v-377.28h435.6" fill="none" stroke="#fff" stroke-width="60.131"/>
   <path d="m602.64 2188.8h246.24v-41.05h-246.24v41.05" fill="#fff"/>
   <path d="m602.64 2052h246.24" fill="none" stroke="#fff" stroke-width="60.131"/>
   <path d="m1087.2 2704.3-177.84 177.84 29.524 30.24 178.56-177.84zm-329.04 29.52 179.28 179.28 30.239-30.24-179.28-179.28-30.238 30.24" fill="#fff"/>
   <path d="m914.4 2539.4v334.08h42.481v-334.08h-42.481" fill="#fff"/>
   <path d="m789.84 1552.3h294.48v-42.48h-294.48v42.48" fill="#fff"/>
   <path d="m914.4 1532.9v142.56h42.481v-142.56h-42.481" fill="#fff"/>
   <path d="m835.2 1424.9h203.76v42.49h-203.76v-42.49" fill="#fff"/>
   <path d="m895.68 1382.4h82.796v-43.2h-82.796v43.2" fill="#fff"/>
   <path d="m144 2093.8-6.48 15.13 6.48 15.1 34.559-15.1zm754.56-1704.2-754.56 1704.2 69.121 30.23 754.56-1704.2zm69.121 0-34.559-78.489-34.562 78.489 34.562 15.121zm753.84 1704.2-753.84-1704.2-69.121 30.242 753.84 1704.2zm0 30.23 6.48-15.1-6.48-15.13-34.56 15.13zm-753.84 1703.5 753.84-1703.5-69.12-30.23-753.84 1703.5zm-69.121 0 34.562 77.76 34.559-77.76-34.559-15.12zm-754.56-1703.5 754.56 1703.5 69.121-30.24-754.56-1703.5-69.121 30.23" fill="#fffffc"/>
   <path d="m144 2093.8-6.48 15.13 6.48 15.1 34.559-15.1zm754.56-1704.2-754.56 1704.2 69.121 30.23 754.56-1704.2zm69.121 0-34.559-78.489-34.562 78.489 34.562 15.121zm753.84 1704.2-753.84-1704.2-69.121 30.242 753.84 1704.2zm0 30.23 6.48-15.1-6.48-15.13-34.56 15.13zm-753.84 1703.5 753.84-1703.5-69.12-30.23-753.84 1703.5zm-69.121 0 34.562 77.76 34.559-77.76-34.559-15.12zm-754.56-1703.5 754.56 1703.5 69.121-30.24-754.56-1703.5z" fill="none" stroke="#fff" stroke-width="10"/>
   <path d="m841.68 3368.9v54h49.683v-54zm47.519-208.8c0-56.88 3.606-92.88 10.082-108 6.481-15.12 18.723-22.32 36.719-22.32v-51.84c-23.039 0-41.039 2.88-55.437 10.08-13.684 6.48-25.922 18-36 33.84-7.922 10.8-12.961 28.08-16.559 49.68-3.606 22.32-5.043 51.84-5.043 88.56 0 37.44 1.437 66.96 5.043 89.28 3.598 21.6 8.637 38.16 16.559 49.68 10.078 15.84 22.316 27.36 36 33.84 14.398 6.48 32.398 10.08 55.437 10.08v-51.12c-17.996 0-30.238-7.92-36.719-22.32-6.476-15.12-10.082-51.12-10.082-109.44zm92.164 208.8v54h49.677v-54zm-45.363-339.12h0.719c17.281 0 29.519 7.2 36 21.6 7.203 14.4 10.086 51.12 10.086 108.72 0 58.32-3.606 94.32-10.086 109.44-6.481 14.4-18.719 22.32-36.719 22.32v51.12c23.043 0 41.758-3.6 55.441-10.08 14.399-6.48 25.919-18 36.719-33.84 7.2-11.52 12.24-28.08 15.84-50.4s5.04-51.12 5.04-88.56c0-36.72-1.44-65.52-5.04-87.84s-8.64-38.88-15.84-50.4c-10.8-15.84-22.32-27.36-36.719-33.84-13.683-7.2-32.398-10.08-55.441-10.08v51.84" fill="#fff" fill-rule="evenodd"/>
   <path d="m414 1941.8-78.477 347.77h69.118l51.839-277.2 47.52 277.2h68.402l-73.441-347.77h-84.961" fill="#fff" fill-rule="evenodd"/>
   <path d="m1329.1 2061.4h65.52v-22.33c0-21.59 2.17-35.99 7.92-43.91 5.05-7.92 14.4-11.53 27.36-11.53 13.68 0 24.47 3.61 31.68 10.81 7.2 6.48 10.8 16.56 10.8 30.24 0 10.8-2.88 19.44-7.92 27.36-4.31 7.2-15.12 16.56-32.4 28.8l-33.12 23.04c-28.79 20.15-46.8 36.73-54.72 49.68-7.92 12.96-11.52 29.52-11.52 48.96 0 29.52 8.64 51.84 25.92 68.4 17.29 16.56 41.76 24.48 72 24.48 32.4 0 56.88-8.64 74.15-25.92 17.29-17.28 25.93-42.49 25.93-75.6v-7.92c0-2.16 0-3.61-0.72-5.04h-61.2v9.35c0 18.73-2.87 32.42-9.36 40.34-6.48 8.63-16.56 12.22-30.24 12.22-10.8 0-18.72-2.87-25.21-8.63-5.75-6.49-8.63-15.13-8.63-25.92 0-14.4 13.68-30.97 40.32-48.24 0 0 0-0.72 0.72-0.72l35.28-24.48c25.93-16.56 43.2-32.4 51.84-47.53 9.36-15.11 13.68-33.83 13.68-57.59 0-31.68-8.64-56.16-27.37-73.44-17.98-17.28-43.9-25.92-77.75-25.92-34.56 0-60.48 9.36-77.75 27.35-17.29 18.01-25.93 46.09-25.93 82.81 0 4.32 0.72 10.8 0.72 19.44v1.44" fill="#fff" fill-rule="evenodd"/>
   <path d="m901.44 891.36-78.48 348.48h69.117l51.844-278.64 46.801 278.64h69.117l-73.438-348.48h-84.961" fill="#fff" fill-rule="evenodd"/>
  </g>
 </g>
</svg>
