<?xml version="1.0" encoding="UTF-8" standalone="no"?>
<!-- Created with Inkscape (http://www.inkscape.org/) -->

<svg
   width="89.9851mm"
   height="28.274399mm"
   viewBox="0 0 89.9851 28.274399"
   version="1.1"
   id="svg5"
   inkscape:version="1.1 (c68e22c387, 2021-05-23)"
   xmlns:inkscape="http://www.inkscape.org/namespaces/inkscape"
   xmlns:sodipodi="http://sodipodi.sourceforge.net/DTD/sodipodi-0.dtd"
   xmlns="http://www.w3.org/2000/svg"
   xmlns:svg="http://www.w3.org/2000/svg">
  <sodipodi:namedview
     id="namedview7"
     pagecolor="#ffffff"
     bordercolor="#666666"
     borderopacity="1.0"
     inkscape:pageshadow="2"
     inkscape:pageopacity="0.0"
     inkscape:pagecheckerboard="0"
     inkscape:document-units="mm"
     showgrid="false"
     fit-margin-top="0"
     fit-margin-left="0"
     fit-margin-right="0"
     fit-margin-bottom="0"
     inkscape:zoom="4.3994184"
     inkscape:cx="238.55426"
     inkscape:cy="164.22625"
     inkscape:window-width="1560"
     inkscape:window-height="1091"
     inkscape:window-x="15"
     inkscape:window-y="7"
     inkscape:window-maximized="0"
     inkscape:current-layer="g2192" />
  <defs
     id="defs2">
    <clipPath
       clipPathUnits="userSpaceOnUse"
       id="clipPath122">
      <path
         d="M 0,0 H 595.276 V 841.89 H 0 Z"
         id="path120" />
    </clipPath>
  </defs>
  <g
     inkscape:label="Ebene 1"
     inkscape:groupmode="layer"
     id="layer1"
     transform="translate(0.93625939,-0.88165577)">
    <path
       style="fill:#000000;stroke-width:0.0846667"
       id="path924"
       d="" />
    <path
       style="fill:#000000;stroke-width:0.0846667"
       id="path904"
       d="" />
    <g
       id="g2192">
      <g
         id="g116"
         transform="matrix(0.35277777,0,0,-0.35277777,-13.951227,37.219686)">
        <g
           id="g118"
           clip-path="url(#clipPath122)">
          <g
             id="g124"
             transform="translate(44.8134,51.9559)"
             style="fill:#0e88d3;fill-opacity:1">
            <path
               d="m 0,0 c 1.86,-1.922 4.365,-2.883 7.516,-2.883 3.113,0 5.599,0.966 7.459,2.898 1.86,1.932 2.79,4.608 2.79,8.029 0,3.45 -0.937,6.143 -2.812,8.08 -1.874,1.937 -4.372,2.905 -7.494,2.905 -1.725,0 -3.248,-0.279 -4.568,-0.838 C 1.898,17.776 0.985,17.14 0.151,16.283 -0.682,15.425 -1.34,14.457 -1.821,13.377 -2.467,11.913 -2.79,10.101 -2.79,7.943 -2.79,4.57 -1.86,1.922 0,0 m 3.228,13.565 c 1.084,1.211 2.511,1.816 4.281,1.816 1.77,0 3.19,-0.598 4.259,-1.794 1.069,-1.197 1.604,-3.011 1.604,-5.442 0,-2.46 -0.549,-4.306 -1.647,-5.536 -1.099,-1.23 -2.504,-1.845 -4.216,-1.845 -1.712,0 -3.125,0.62 -4.237,1.86 -1.112,1.24 -1.669,3.061 -1.669,5.463 0,2.441 0.542,4.267 1.625,5.478 M 6.023,24.088 H 2.535 V 20.6 h 3.488 z m 6.238,0 H 8.773 V 20.6 h 3.488 z M 31.107,-2.511 38.634,18.683 H 34.083 L 28.929,3.001 23.566,18.683 h -4.635 l 7.557,-21.194 z m 11.157,1.458 c 1.435,-1.238 3.492,-1.857 6.171,-1.857 1.84,0 3.377,0.258 4.61,0.774 1.233,0.516 2.187,1.304 2.861,2.364 0.675,1.061 1.012,2.199 1.012,3.414 0,1.34 -0.281,2.466 -0.842,3.377 -0.562,0.911 -1.34,1.629 -2.333,2.155 -0.994,0.525 -2.528,1.034 -4.602,1.527 -2.073,0.493 -3.379,0.966 -3.917,1.419 -0.422,0.356 -0.633,0.785 -0.633,1.287 0,0.549 0.224,0.987 0.674,1.315 0.698,0.511 1.663,0.766 2.896,0.766 1.195,0 2.092,-0.238 2.689,-0.715 0.597,-0.477 0.987,-1.259 1.169,-2.347 l 4.287,0.16 c -0.068,1.954 -0.772,3.516 -2.112,4.687 -1.341,1.171 -3.338,1.756 -5.991,1.756 -1.624,0 -3.01,-0.246 -4.159,-0.738 -1.149,-0.492 -2.028,-1.208 -2.638,-2.148 -0.611,-0.941 -0.916,-1.951 -0.916,-3.031 0,-1.679 0.649,-3.102 1.945,-4.269 0.921,-0.829 2.525,-1.529 4.81,-2.099 1.776,-0.445 2.914,-0.754 3.413,-0.928 0.73,-0.259 1.241,-0.565 1.534,-0.916 0.293,-0.351 0.439,-0.776 0.439,-1.276 0,-0.778 -0.349,-1.459 -1.048,-2.041 -0.698,-0.581 -1.736,-0.872 -3.113,-0.872 -1.301,0 -2.335,0.326 -3.101,0.979 -0.765,0.653 -1.273,1.676 -1.524,3.068 L 39.692,4.359 c 0.279,-2.37 1.136,-4.174 2.572,-5.412 m 28.287,-1.458 7.527,21.194 H 73.527 L 68.373,3.001 63.01,18.683 h -4.635 l 7.556,-21.194 z"
               style="fill:#0e88d3;fill-opacity:1;fill-rule:nonzero;stroke:none"
               id="path126" />
          </g>
          <g
             id="g128"
             transform="translate(171.8692,65.9256)">
            <path
               d="m 0,0 c 0.661,-0.683 1.552,-1.025 2.673,-1.025 1.107,0 1.991,0.343 2.652,1.03 0.661,0.687 0.992,1.638 0.992,2.854 0,1.226 -0.333,2.183 -1,2.871 C 4.651,6.418 3.762,6.762 2.652,6.762 2.039,6.762 1.497,6.663 1.028,6.465 0.675,6.317 0.35,6.091 0.054,5.786 -0.243,5.482 -0.476,5.138 -0.648,4.754 -0.877,4.233 -0.992,3.59 -0.992,2.823 -0.992,1.624 -0.661,0.683 0,0 M 1.151,4.817 C 1.536,5.246 2.042,5.461 2.67,5.461 3.298,5.461 3.802,5.249 4.182,4.824 4.561,4.4 4.75,3.757 4.75,2.894 4.75,2.022 4.556,1.368 4.166,0.931 3.776,0.495 3.278,0.277 2.67,0.277 c -0.607,0 -1.109,0.22 -1.503,0.659 -0.395,0.44 -0.592,1.086 -0.592,1.938 0,0.866 0.192,1.513 0.576,1.943 m 0.99,3.748 H 0.897 V 7.321 h 1.244 z m 2.209,0 H 3.106 V 7.321 H 4.35 Z m 3.483,-9.131 c 0.433,-0.302 1.021,-0.453 1.763,-0.453 0.818,0 1.436,0.18 1.853,0.539 0.418,0.36 0.626,0.79 0.626,1.29 0,0.459 -0.15,0.817 -0.451,1.074 C 11.32,2.137 10.784,2.351 10.017,2.526 9.249,2.701 8.801,2.836 8.671,2.932 8.575,3.004 8.527,3.091 8.527,3.194 c 0,0.12 0.055,0.218 0.164,0.293 0.164,0.106 0.436,0.159 0.816,0.159 0.3,0 0.532,-0.056 0.694,-0.169 0.162,-0.113 0.273,-0.275 0.331,-0.487 l 1.359,0.253 C 11.754,3.718 11.504,4.077 11.142,4.319 10.779,4.562 10.225,4.683 9.479,4.683 8.696,4.683 8.118,4.522 7.745,4.2 7.372,3.878 7.185,3.481 7.185,3.009 7.185,2.485 7.401,2.075 7.831,1.781 8.142,1.568 8.878,1.334 10.04,1.077 10.289,1.019 10.45,0.955 10.521,0.887 10.59,0.815 10.624,0.724 10.624,0.615 10.624,0.453 10.561,0.325 10.435,0.229 10.247,0.092 9.968,0.023 9.596,0.023 9.259,0.023 8.996,0.096 8.809,0.242 8.621,0.388 8.497,0.601 8.435,0.882 L 6.984,0.663 C 7.117,0.145 7.4,-0.265 7.833,-0.566 m 7.023,5.128 v 1.93 L 13.411,5.645 V 4.562 H 12.748 V 3.41 h 0.663 V 1.031 c 0,-0.51 0.015,-0.849 0.046,-1.017 0.037,-0.237 0.105,-0.424 0.203,-0.563 0.097,-0.139 0.25,-0.252 0.459,-0.339 0.209,-0.087 0.443,-0.131 0.704,-0.131 0.424,0 0.804,0.072 1.139,0.216 L 15.838,0.318 C 15.585,0.225 15.391,0.179 15.257,0.179 c -0.096,0 -0.177,0.024 -0.244,0.072 -0.067,0.048 -0.11,0.109 -0.128,0.182 -0.019,0.074 -0.029,0.333 -0.029,0.779 V 3.41 h 0.985 V 4.562 Z M 19.658,0.244 C 19.503,0.12 19.313,0.058 19.087,0.058 c -0.332,0 -0.61,0.119 -0.833,0.356 -0.223,0.238 -0.339,0.57 -0.349,0.998 h 3.617 c 0.02,1.107 -0.204,1.929 -0.673,2.466 -0.47,0.537 -1.11,0.805 -1.922,0.805 -0.723,0 -1.321,-0.256 -1.793,-0.768 -0.473,-0.512 -0.709,-1.22 -0.709,-2.124 0,-0.757 0.179,-1.384 0.539,-1.88 0.456,-0.62 1.159,-0.93 2.108,-0.93 0.6,0 1.099,0.138 1.498,0.414 0.4,0.275 0.692,0.677 0.877,1.204 l -1.44,0.242 C 19.928,0.567 19.812,0.367 19.658,0.244 m -1.727,2.049 c -0.004,0.395 0.097,0.708 0.303,0.939 0.205,0.23 0.465,0.345 0.78,0.345 0.295,0 0.545,-0.109 0.75,-0.327 0.206,-0.219 0.313,-0.538 0.324,-0.957 z m 6.147,-1.506 c 0,0.929 0.041,1.538 0.121,1.829 0.081,0.292 0.191,0.493 0.332,0.604 0.14,0.111 0.311,0.167 0.513,0.167 0.209,0 0.435,-0.079 0.679,-0.236 l 0.446,1.26 C 25.864,4.592 25.547,4.683 25.218,4.683 24.985,4.683 24.777,4.625 24.594,4.51 24.411,4.394 24.204,4.153 23.975,3.786 v 0.776 h -1.342 v -5.46 h 1.445 z m 4.094,0 c 0,0.929 0.041,1.538 0.121,1.829 0.081,0.292 0.191,0.493 0.332,0.604 0.14,0.111 0.311,0.167 0.514,0.167 0.209,0 0.435,-0.079 0.678,-0.236 l 0.446,1.26 c -0.305,0.181 -0.622,0.272 -0.95,0.272 -0.234,0 -0.442,-0.058 -0.625,-0.173 -0.183,-0.116 -0.39,-0.357 -0.619,-0.724 v 0.776 h -1.342 v -5.46 h 1.445 z M 33.697,0.244 C 33.543,0.12 33.352,0.058 33.126,0.058 c -0.332,0 -0.61,0.119 -0.833,0.356 -0.222,0.238 -0.339,0.57 -0.349,0.998 h 3.617 c 0.021,1.107 -0.204,1.929 -0.673,2.466 -0.469,0.537 -1.11,0.805 -1.922,0.805 -0.723,0 -1.32,-0.256 -1.793,-0.768 -0.473,-0.512 -0.709,-1.22 -0.709,-2.124 0,-0.757 0.18,-1.384 0.54,-1.88 0.455,-0.62 1.158,-0.93 2.107,-0.93 0.6,0 1.099,0.138 1.499,0.414 0.399,0.275 0.691,0.677 0.876,1.204 l -1.44,0.242 C 33.967,0.567 33.851,0.367 33.697,0.244 M 31.97,2.293 c -0.004,0.395 0.097,0.708 0.303,0.939 0.205,0.23 0.466,0.345 0.78,0.345 0.295,0 0.545,-0.109 0.75,-0.327 0.206,-0.219 0.314,-0.538 0.324,-0.957 z m 6.211,4.343 H 36.735 V 5.3 h 1.446 z m 0,-2.074 h -1.446 v -5.46 h 1.446 z M 43.576,4.255 C 43.183,4.54 42.654,4.683 41.989,4.683 41.177,4.683 40.532,4.432 40.056,3.931 39.58,3.429 39.341,2.728 39.341,1.827 c 0,-0.89 0.238,-1.587 0.712,-2.091 0.474,-0.503 1.111,-0.755 1.909,-0.755 0.703,0 1.263,0.166 1.681,0.498 0.418,0.331 0.7,0.822 0.848,1.472 L 43.074,1.193 C 43.001,0.813 42.878,0.545 42.703,0.39 42.527,0.234 42.302,0.156 42.028,0.156 c -0.368,0 -0.661,0.134 -0.879,0.401 -0.218,0.267 -0.327,0.725 -0.327,1.372 0,0.583 0.107,0.998 0.322,1.247 0.215,0.248 0.503,0.372 0.864,0.372 0.272,0 0.493,-0.072 0.663,-0.215 0.17,-0.144 0.28,-0.358 0.328,-0.643 l 1.422,0.259 c -0.171,0.585 -0.453,1.02 -0.845,1.306 m 1.922,2.381 v -7.534 h 1.445 v 2.733 c 0,0.459 0.044,0.806 0.131,1.041 0.088,0.235 0.226,0.41 0.415,0.527 0.189,0.116 0.403,0.174 0.643,0.174 0.21,0 0.384,-0.045 0.523,-0.136 0.139,-0.091 0.236,-0.213 0.291,-0.367 0.055,-0.154 0.082,-0.518 0.082,-1.09 v -2.882 h 1.446 v 3.202 c 0,0.49 -0.025,0.851 -0.075,1.084 -0.049,0.233 -0.142,0.445 -0.278,0.637 -0.135,0.192 -0.337,0.35 -0.604,0.473 -0.268,0.123 -0.568,0.185 -0.901,0.185 -0.648,0 -1.206,-0.275 -1.673,-0.824 v 2.777 z m 7.883,0 H 51.935 V 5.3 h 1.446 z m 0,-2.074 h -1.446 v -5.46 h 1.446 z m 1.82,-5.128 c 0.433,-0.302 1.02,-0.453 1.763,-0.453 0.818,0 1.435,0.18 1.853,0.539 0.417,0.36 0.626,0.79 0.626,1.29 0,0.459 -0.15,0.817 -0.451,1.074 -0.304,0.253 -0.84,0.467 -1.607,0.642 -0.768,0.175 -1.217,0.31 -1.346,0.406 -0.096,0.072 -0.144,0.159 -0.144,0.262 0,0.12 0.055,0.218 0.164,0.293 0.164,0.106 0.436,0.159 0.815,0.159 0.301,0 0.532,-0.056 0.695,-0.169 0.162,-0.113 0.272,-0.275 0.33,-0.487 l 1.36,0.253 C 59.122,3.718 58.872,4.077 58.51,4.319 58.147,4.562 57.593,4.683 56.847,4.683 56.063,4.683 55.485,4.522 55.112,4.2 54.739,3.878 54.553,3.481 54.553,3.009 c 0,-0.524 0.215,-0.934 0.646,-1.228 0.311,-0.213 1.047,-0.447 2.208,-0.704 0.25,-0.058 0.41,-0.122 0.482,-0.19 0.068,-0.072 0.103,-0.163 0.103,-0.272 0,-0.162 -0.063,-0.29 -0.19,-0.386 -0.187,-0.137 -0.467,-0.206 -0.838,-0.206 -0.338,0 -0.6,0.073 -0.788,0.219 -0.187,0.146 -0.312,0.359 -0.373,0.64 L 54.351,0.663 c 0.134,-0.518 0.417,-0.928 0.85,-1.229 m 9.426,4.821 c -0.393,0.285 -0.921,0.428 -1.586,0.428 -0.813,0 -1.457,-0.251 -1.934,-0.752 -0.476,-0.502 -0.715,-1.203 -0.715,-2.104 0,-0.89 0.238,-1.587 0.712,-2.091 0.475,-0.503 1.111,-0.755 1.909,-0.755 0.703,0 1.263,0.166 1.681,0.498 0.418,0.331 0.7,0.822 0.848,1.472 L 64.125,1.193 C 64.053,0.813 63.929,0.545 63.754,0.39 63.579,0.234 63.354,0.156 63.079,0.156 c -0.368,0 -0.661,0.134 -0.879,0.401 -0.218,0.267 -0.327,0.725 -0.327,1.372 0,0.583 0.107,0.998 0.322,1.247 0.215,0.248 0.503,0.372 0.864,0.372 0.272,0 0.493,-0.072 0.663,-0.215 0.171,-0.144 0.28,-0.358 0.328,-0.643 l 1.423,0.259 c -0.172,0.585 -0.454,1.02 -0.846,1.306 m 1.922,2.381 v -7.534 h 1.445 v 2.733 c 0,0.459 0.044,0.806 0.132,1.041 0.087,0.235 0.225,0.41 0.414,0.527 0.189,0.116 0.403,0.174 0.644,0.174 0.209,0 0.383,-0.045 0.522,-0.136 0.139,-0.091 0.236,-0.213 0.291,-0.367 0.055,-0.154 0.082,-0.518 0.082,-1.09 v -2.882 h 1.446 v 3.202 c 0,0.49 -0.025,0.851 -0.074,1.084 -0.05,0.233 -0.143,0.445 -0.278,0.637 -0.136,0.192 -0.337,0.35 -0.605,0.473 C 70.3,4.621 70,4.683 69.667,4.683 c -0.648,0 -1.206,-0.275 -1.673,-0.824 v 2.777 z m 9.25,-6.392 C 75.645,0.12 75.455,0.058 75.229,0.058 c -0.333,0 -0.61,0.119 -0.833,0.356 -0.223,0.238 -0.339,0.57 -0.35,0.998 h 3.617 c 0.021,1.107 -0.203,1.929 -0.673,2.466 -0.469,0.537 -1.11,0.805 -1.921,0.805 -0.723,0 -1.321,-0.256 -1.794,-0.768 -0.473,-0.512 -0.709,-1.22 -0.709,-2.124 0,-0.757 0.18,-1.384 0.54,-1.88 0.456,-0.62 1.158,-0.93 2.108,-0.93 0.599,0 1.099,0.138 1.498,0.414 0.399,0.275 0.692,0.677 0.877,1.204 l -1.44,0.242 C 76.07,0.567 75.953,0.367 75.799,0.244 m -1.727,2.049 c -0.003,0.395 0.098,0.708 0.303,0.939 0.206,0.23 0.466,0.345 0.781,0.345 0.294,0 0.544,-0.109 0.75,-0.327 0.205,-0.219 0.313,-0.538 0.323,-0.957 z M 80.22,0.787 c 0,0.929 0.04,1.538 0.121,1.829 0.08,0.292 0.191,0.493 0.331,0.604 0.141,0.111 0.312,0.167 0.514,0.167 0.209,0 0.435,-0.079 0.678,-0.236 l 0.447,1.26 C 82.006,4.592 81.689,4.683 81.36,4.683 81.127,4.683 80.919,4.625 80.735,4.51 80.552,4.394 80.346,4.153 80.116,3.786 v 0.776 h -1.342 v -5.46 h 1.446 z"
               style="fill:#0080c8;fill-opacity:1;fill-rule:nonzero;stroke:none"
               id="path130" />
          </g>
          <g
             id="g132"
             transform="translate(174.7397,52.4029)">
            <path
               d="M 0,0 2.692,7.534 H 1.077 L -0.767,1.958 -2.669,7.534 H -4.318 L -1.632,0 Z M 5.686,1.142 C 5.532,1.018 5.342,0.956 5.116,0.956 4.783,0.956 4.506,1.075 4.283,1.312 4.06,1.55 3.944,1.882 3.933,2.31 H 7.55 C 7.571,3.417 7.347,4.239 6.877,4.776 6.408,5.313 5.767,5.581 4.956,5.581 4.233,5.581 3.635,5.325 3.162,4.813 2.689,4.301 2.453,3.593 2.453,2.689 c 0,-0.757 0.18,-1.384 0.54,-1.88 0.456,-0.62 1.158,-0.93 2.108,-0.93 0.599,0 1.099,0.138 1.498,0.414 C 6.998,0.568 7.29,0.97 7.476,1.498 L 6.036,1.739 C 5.957,1.465 5.84,1.265 5.686,1.142 M 3.959,3.191 C 3.956,3.586 4.057,3.899 4.262,4.13 4.468,4.36 4.728,4.475 5.043,4.475 5.337,4.475 5.587,4.366 5.793,4.148 5.998,3.929 6.106,3.61 6.116,3.191 Z m 6.148,-1.506 c 0,0.929 0.04,1.538 0.121,1.83 0.08,0.291 0.191,0.492 0.331,0.603 0.14,0.112 0.312,0.167 0.514,0.167 0.209,0 0.435,-0.079 0.678,-0.236 l 0.447,1.26 C 11.893,5.49 11.576,5.581 11.247,5.581 11.014,5.581 10.806,5.523 10.622,5.408 10.439,5.292 10.233,5.051 10.003,4.684 V 5.46 H 8.661 V 0 h 1.446 z m 3.054,-1.353 c 0.433,-0.302 1.021,-0.453 1.763,-0.453 0.818,0 1.436,0.18 1.853,0.539 0.418,0.36 0.626,0.79 0.626,1.29 0,0.459 -0.15,0.817 -0.451,1.074 -0.304,0.253 -0.84,0.467 -1.607,0.642 -0.768,0.175 -1.216,0.31 -1.346,0.406 -0.096,0.072 -0.144,0.159 -0.144,0.262 0,0.12 0.055,0.218 0.164,0.293 0.164,0.106 0.436,0.159 0.816,0.159 0.3,0 0.532,-0.056 0.694,-0.169 C 15.692,4.262 15.802,4.1 15.86,3.888 l 1.359,0.253 C 17.082,4.616 16.832,4.975 16.47,5.217 16.107,5.46 15.553,5.581 14.807,5.581 14.024,5.581 13.446,5.42 13.073,5.098 12.7,4.776 12.513,4.379 12.513,3.907 c 0,-0.524 0.216,-0.934 0.646,-1.228 0.311,-0.212 1.047,-0.447 2.209,-0.704 0.249,-0.058 0.41,-0.122 0.481,-0.19 0.069,-0.072 0.103,-0.163 0.103,-0.272 0,-0.162 -0.063,-0.29 -0.189,-0.386 -0.188,-0.137 -0.467,-0.205 -0.839,-0.205 -0.337,0 -0.6,0.072 -0.787,0.218 -0.188,0.146 -0.312,0.359 -0.374,0.64 L 12.312,1.561 C 12.445,1.043 12.728,0.633 13.161,0.332 M 23.606,0 V 5.46 H 22.16 V 3.161 c 0,-0.78 -0.036,-1.27 -0.108,-1.47 C 21.98,1.49 21.847,1.323 21.652,1.188 21.457,1.052 21.236,0.985 20.99,0.985 c -0.216,0 -0.394,0.05 -0.534,0.151 -0.14,0.101 -0.237,0.238 -0.29,0.411 -0.053,0.173 -0.079,0.642 -0.079,1.409 V 5.46 H 18.641 V 2.007 c 0,-0.514 0.065,-0.917 0.195,-1.208 0.13,-0.291 0.341,-0.517 0.632,-0.678 0.291,-0.161 0.62,-0.242 0.987,-0.242 0.359,0 0.701,0.084 1.025,0.251 0.324,0.167 0.585,0.396 0.784,0.687 V 0 Z m 5.407,5.153 C 28.621,5.438 28.092,5.581 27.427,5.581 26.615,5.581 25.97,5.33 25.494,4.829 25.017,4.327 24.779,3.626 24.779,2.725 c 0,-0.89 0.237,-1.587 0.712,-2.091 0.474,-0.503 1.111,-0.755 1.909,-0.755 0.702,0 1.262,0.166 1.68,0.498 0.418,0.331 0.701,0.822 0.848,1.472 L 28.511,2.091 C 28.439,1.711 28.316,1.443 28.14,1.288 27.965,1.132 27.74,1.054 27.465,1.054 c -0.367,0 -0.66,0.134 -0.878,0.401 -0.219,0.267 -0.328,0.725 -0.328,1.372 0,0.583 0.108,0.998 0.323,1.247 0.215,0.248 0.503,0.373 0.864,0.373 0.272,0 0.493,-0.072 0.663,-0.216 0.17,-0.144 0.279,-0.358 0.328,-0.643 l 1.422,0.26 c -0.171,0.584 -0.453,1.019 -0.846,1.305 m 1.922,2.381 V 0 h 1.446 v 2.733 c 0,0.459 0.044,0.806 0.131,1.041 0.088,0.235 0.226,0.41 0.415,0.527 0.189,0.116 0.403,0.174 0.643,0.174 0.21,0 0.384,-0.045 0.523,-0.136 0.139,-0.091 0.236,-0.213 0.291,-0.367 0.055,-0.154 0.082,-0.517 0.082,-1.089 V 0 h 1.446 v 3.202 c 0,0.49 -0.025,0.851 -0.075,1.084 -0.05,0.233 -0.142,0.445 -0.278,0.637 -0.135,0.192 -0.337,0.35 -0.604,0.473 -0.268,0.123 -0.568,0.185 -0.901,0.185 -0.649,0 -1.206,-0.274 -1.673,-0.824 v 2.777 z m 6.781,-7.202 c 0.433,-0.302 1.02,-0.453 1.763,-0.453 0.818,0 1.435,0.18 1.853,0.539 0.417,0.36 0.626,0.79 0.626,1.29 0,0.459 -0.15,0.817 -0.451,1.074 -0.304,0.253 -0.84,0.467 -1.608,0.642 -0.767,0.175 -1.216,0.31 -1.345,0.406 -0.096,0.072 -0.144,0.159 -0.144,0.262 0,0.12 0.055,0.218 0.164,0.293 0.164,0.106 0.436,0.159 0.815,0.159 0.301,0 0.532,-0.056 0.695,-0.169 0.162,-0.113 0.272,-0.275 0.33,-0.487 l 1.36,0.253 C 41.637,4.616 41.387,4.975 41.024,5.217 40.662,5.46 40.108,5.581 39.362,5.581 38.578,5.581 38,5.42 37.627,5.098 37.254,4.776 37.068,4.379 37.068,3.907 c 0,-0.524 0.215,-0.934 0.646,-1.228 0.311,-0.212 1.047,-0.447 2.208,-0.704 0.25,-0.058 0.41,-0.122 0.482,-0.19 0.068,-0.072 0.103,-0.163 0.103,-0.272 0,-0.162 -0.064,-0.29 -0.19,-0.386 C 40.13,0.99 39.85,0.922 39.479,0.922 c -0.338,0 -0.6,0.072 -0.788,0.218 -0.187,0.146 -0.312,0.359 -0.373,0.64 L 36.866,1.561 C 37,1.043 37.283,0.633 37.716,0.332 m 5.851,0 C 44,0.03 44.587,-0.121 45.33,-0.121 c 0.818,0 1.435,0.18 1.853,0.539 0.417,0.36 0.626,0.79 0.626,1.29 0,0.459 -0.15,0.817 -0.451,1.074 -0.304,0.253 -0.84,0.467 -1.608,0.642 -0.767,0.175 -1.216,0.31 -1.346,0.406 -0.095,0.072 -0.143,0.159 -0.143,0.262 0,0.12 0.055,0.218 0.164,0.293 0.164,0.106 0.436,0.159 0.815,0.159 0.301,0 0.532,-0.056 0.695,-0.169 0.162,-0.113 0.272,-0.275 0.33,-0.487 l 1.36,0.253 c -0.137,0.475 -0.387,0.834 -0.75,1.076 -0.362,0.243 -0.916,0.364 -1.662,0.364 -0.784,0 -1.362,-0.161 -1.735,-0.483 -0.373,-0.322 -0.559,-0.719 -0.559,-1.191 0,-0.524 0.215,-0.934 0.646,-1.228 0.31,-0.212 1.047,-0.447 2.208,-0.704 0.25,-0.058 0.41,-0.122 0.482,-0.19 0.068,-0.072 0.102,-0.163 0.102,-0.272 0,-0.162 -0.063,-0.29 -0.189,-0.386 C 45.981,0.99 45.701,0.922 45.33,0.922 c -0.338,0 -0.6,0.072 -0.788,0.218 -0.187,0.146 -0.312,0.359 -0.373,0.64 L 42.717,1.561 c 0.134,-0.518 0.417,-0.928 0.85,-1.229 m 8.321,0.81 C 51.733,1.018 51.543,0.956 51.317,0.956 c -0.332,0 -0.61,0.119 -0.833,0.356 -0.222,0.238 -0.339,0.57 -0.349,0.998 h 3.617 c 0.021,1.107 -0.204,1.929 -0.673,2.466 -0.469,0.537 -1.11,0.805 -1.922,0.805 -0.723,0 -1.32,-0.256 -1.793,-0.768 -0.473,-0.512 -0.709,-1.22 -0.709,-2.124 0,-0.757 0.18,-1.384 0.539,-1.88 0.456,-0.62 1.159,-0.93 2.108,-0.93 0.6,0 1.099,0.138 1.499,0.414 0.399,0.275 0.691,0.677 0.876,1.205 l -1.44,0.241 C 52.158,1.465 52.042,1.265 51.888,1.142 m -1.727,2.049 c -0.004,0.395 0.097,0.708 0.303,0.939 0.205,0.23 0.465,0.345 0.78,0.345 0.295,0 0.545,-0.109 0.75,-0.327 C 52.2,3.929 52.308,3.61 52.318,3.191 Z m 9.73,0.201 c 0,0.421 -0.027,0.745 -0.08,0.971 -0.053,0.226 -0.147,0.428 -0.282,0.607 -0.136,0.178 -0.335,0.324 -0.599,0.439 -0.264,0.115 -0.555,0.172 -0.874,0.172 -0.723,0 -1.323,-0.307 -1.799,-0.922 V 5.46 H 54.915 V 0 h 1.445 v 2.471 c 0,0.61 0.037,1.028 0.111,1.254 0.073,0.226 0.209,0.408 0.408,0.545 0.198,0.137 0.423,0.205 0.673,0.205 0.195,0 0.362,-0.048 0.501,-0.144 0.138,-0.095 0.238,-0.23 0.3,-0.403 0.061,-0.173 0.092,-0.554 0.092,-1.143 V 0 h 1.446 z m 6.467,4.142 H 64.912 V 4.821 c -0.445,0.507 -0.972,0.76 -1.582,0.76 -0.664,0 -1.213,-0.24 -1.648,-0.722 C 61.247,4.378 61.03,3.675 61.03,2.751 c 0,-0.904 0.223,-1.609 0.67,-2.114 0.447,-0.505 0.984,-0.758 1.61,-0.758 0.309,0 0.614,0.076 0.917,0.227 0.303,0.152 0.566,0.384 0.789,0.696 V 0 h 1.342 z M 62.856,4.067 c 0.23,0.272 0.516,0.408 0.858,0.408 0.352,0 0.64,-0.137 0.866,-0.413 0.225,-0.276 0.338,-0.727 0.338,-1.353 0,-0.561 -0.116,-0.983 -0.349,-1.266 -0.232,-0.282 -0.514,-0.424 -0.845,-0.424 -0.416,0 -0.741,0.189 -0.973,0.565 -0.161,0.26 -0.241,0.682 -0.241,1.264 0,0.54 0.115,0.947 0.346,1.219 m 7.735,-2.925 c -0.154,-0.124 -0.344,-0.186 -0.57,-0.186 -0.333,0 -0.61,0.119 -0.833,0.356 -0.223,0.238 -0.339,0.57 -0.349,0.998 h 3.617 c 0.02,1.107 -0.204,1.929 -0.673,2.466 -0.47,0.537 -1.11,0.805 -1.922,0.805 -0.723,0 -1.321,-0.256 -1.794,-0.768 -0.472,-0.512 -0.709,-1.22 -0.709,-2.124 0,-0.757 0.18,-1.384 0.54,-1.88 0.456,-0.62 1.158,-0.93 2.108,-0.93 0.6,0 1.099,0.138 1.498,0.414 0.399,0.275 0.692,0.677 0.877,1.205 l -1.44,0.241 C 70.862,1.465 70.745,1.265 70.591,1.142 m -1.727,2.049 c -0.003,0.395 0.098,0.708 0.303,0.939 0.206,0.23 0.466,0.345 0.781,0.345 0.294,0 0.544,-0.109 0.75,-0.327 0.205,-0.219 0.313,-0.538 0.323,-0.957 z m 6.148,-1.506 c 0,0.929 0.04,1.538 0.121,1.83 0.08,0.291 0.191,0.492 0.331,0.603 0.141,0.112 0.312,0.167 0.514,0.167 0.209,0 0.435,-0.079 0.678,-0.236 l 0.447,1.26 C 76.798,5.49 76.481,5.581 76.152,5.581 75.919,5.581 75.711,5.523 75.528,5.408 75.344,5.292 75.138,5.051 74.908,4.684 V 5.46 H 73.566 V 0 h 1.446 z M 80.529,0 82.697,5.46 H 81.211 L 80.173,2.674 C 80.118,2.519 80.066,2.365 80.018,2.211 79.998,2.135 79.948,1.979 79.869,1.743 L 79.572,2.674 78.545,5.46 H 77.03 L 79.229,0 Z m 5.858,1.142 c -0.154,-0.124 -0.344,-0.186 -0.57,-0.186 -0.333,0 -0.61,0.119 -0.833,0.356 -0.223,0.238 -0.339,0.57 -0.349,0.998 h 3.617 c 0.02,1.107 -0.204,1.929 -0.673,2.466 -0.47,0.537 -1.11,0.805 -1.922,0.805 -0.723,0 -1.321,-0.256 -1.794,-0.768 -0.472,-0.512 -0.709,-1.22 -0.709,-2.124 0,-0.757 0.18,-1.384 0.54,-1.88 0.456,-0.62 1.158,-0.93 2.108,-0.93 0.6,0 1.099,0.138 1.498,0.414 0.4,0.275 0.692,0.677 0.877,1.205 l -1.44,0.241 C 86.658,1.465 86.542,1.265 86.387,1.142 M 84.66,3.191 c -0.003,0.395 0.098,0.708 0.303,0.939 0.206,0.23 0.466,0.345 0.781,0.345 0.295,0 0.544,-0.109 0.75,-0.327 0.205,-0.219 0.313,-0.538 0.324,-0.957 z m 6.148,-1.506 c 0,0.929 0.04,1.538 0.121,1.83 0.08,0.291 0.191,0.492 0.331,0.603 0.141,0.112 0.312,0.167 0.514,0.167 0.209,0 0.435,-0.079 0.679,-0.236 l 0.446,1.26 C 92.594,5.49 92.277,5.581 91.948,5.581 91.715,5.581 91.507,5.523 91.324,5.408 91.14,5.292 90.934,5.051 90.704,4.684 V 5.46 H 89.362 V 0 h 1.446 z M 94.799,0 v 0.802 c 0.219,-0.305 0.481,-0.535 0.784,-0.69 0.303,-0.155 0.611,-0.233 0.923,-0.233 0.635,0 1.174,0.252 1.618,0.755 0.444,0.504 0.666,1.221 0.666,2.153 0,0.9 -0.218,1.591 -0.653,2.072 -0.435,0.482 -0.986,0.722 -1.651,0.722 -0.61,0 -1.138,-0.253 -1.584,-0.76 V 7.534 H 93.457 V 0 Z m 0.437,4.072 c 0.229,0.269 0.518,0.403 0.864,0.403 0.354,0 0.644,-0.137 0.87,-0.413 0.227,-0.276 0.34,-0.725 0.34,-1.348 0,-0.585 -0.113,-1.014 -0.337,-1.286 -0.225,-0.272 -0.497,-0.409 -0.816,-0.409 -0.415,0 -0.748,0.192 -0.999,0.576 -0.178,0.27 -0.267,0.688 -0.267,1.253 0,0.547 0.115,0.956 0.345,1.224 m 6.136,0.251 c 0.144,0.102 0.344,0.152 0.601,0.152 0.379,0 0.638,-0.059 0.775,-0.177 0.136,-0.119 0.205,-0.317 0.205,-0.594 V 3.56 C 102.693,3.45 102.226,3.332 101.552,3.205 101.052,3.109 100.67,2.997 100.405,2.869 100.14,2.741 99.934,2.556 99.787,2.315 99.64,2.073 99.566,1.799 99.566,1.491 c 0,-0.466 0.162,-0.851 0.485,-1.155 0.324,-0.305 0.766,-0.457 1.328,-0.457 0.318,0 0.618,0.06 0.898,0.18 0.281,0.12 0.545,0.3 0.791,0.54 0.01,-0.028 0.027,-0.084 0.051,-0.17 0.055,-0.19 0.101,-0.333 0.139,-0.429 h 1.429 c -0.127,0.26 -0.213,0.504 -0.26,0.732 -0.046,0.228 -0.069,0.582 -0.069,1.062 l 0.023,1.685 c 0,0.627 -0.064,1.058 -0.193,1.293 -0.128,0.235 -0.35,0.428 -0.666,0.581 -0.315,0.152 -0.795,0.228 -1.44,0.228 -0.71,0 -1.245,-0.127 -1.605,-0.381 -0.36,-0.254 -0.614,-0.645 -0.761,-1.174 l 1.307,-0.236 c 0.089,0.254 0.206,0.432 0.349,0.533 m 1.581,-1.989 c 0,-0.346 -0.019,-0.58 -0.057,-0.703 -0.054,-0.187 -0.169,-0.346 -0.343,-0.476 -0.235,-0.171 -0.483,-0.256 -0.742,-0.256 -0.232,0 -0.424,0.073 -0.574,0.22 -0.15,0.147 -0.225,0.321 -0.225,0.523 0,0.205 0.094,0.374 0.281,0.507 0.123,0.082 0.385,0.166 0.784,0.251 0.399,0.086 0.691,0.159 0.876,0.221 z m 7.809,1.058 c 0,0.421 -0.027,0.745 -0.08,0.971 -0.053,0.226 -0.147,0.428 -0.282,0.607 -0.136,0.178 -0.335,0.324 -0.599,0.439 -0.264,0.115 -0.555,0.172 -0.874,0.172 -0.723,0 -1.323,-0.307 -1.799,-0.922 V 5.46 h -1.342 V 0 h 1.445 v 2.471 c 0,0.61 0.037,1.028 0.111,1.254 0.073,0.226 0.209,0.408 0.408,0.545 0.199,0.137 0.423,0.205 0.673,0.205 0.195,0 0.362,-0.048 0.501,-0.144 0.138,-0.095 0.238,-0.23 0.3,-0.403 0.062,-0.173 0.092,-0.554 0.092,-1.143 V 0 h 1.446 z m 6.467,4.142 h -1.446 V 4.821 c -0.445,0.507 -0.972,0.76 -1.582,0.76 -0.664,0 -1.213,-0.24 -1.648,-0.722 -0.435,-0.481 -0.652,-1.184 -0.652,-2.108 0,-0.904 0.223,-1.609 0.67,-2.114 0.447,-0.505 0.984,-0.758 1.61,-0.758 0.309,0 0.614,0.076 0.917,0.227 0.303,0.152 0.566,0.384 0.789,0.696 V 0 h 1.342 z m -3.502,-3.467 c 0.23,0.272 0.516,0.408 0.858,0.408 0.352,0 0.64,-0.137 0.866,-0.413 0.225,-0.276 0.338,-0.727 0.338,-1.353 0,-0.561 -0.116,-0.983 -0.349,-1.266 -0.232,-0.282 -0.514,-0.424 -0.845,-0.424 -0.416,0 -0.741,0.189 -0.973,0.565 -0.161,0.26 -0.241,0.682 -0.241,1.264 0,0.54 0.115,0.947 0.346,1.219"
               style="fill:#0080c8;fill-opacity:1;fill-rule:nonzero;stroke:none"
               id="path134" />
          </g>
        </g>
      </g>
      <g
         id="g12"
         transform="matrix(0.00575206,0,0,-0.00575206,33.934798,27.318772)">
        <path
           d="M 15.1211,2108.89 933.121,4181.76 1850.4,2108.89 933.121,35.2695 15.1211,2108.89"
           style="fill:#0e88d3;fill-opacity:1;fill-rule:evenodd;stroke:none"
           id="path14" />
        <path
           d="M 2.16406,2103.12 0,2108.89 l 2.16406,5.75 12.95704,-5.75 z M 920.16,29.5195 2.16406,2103.12 28.082,2114.64 946.078,40.3203 Z m 25.918,0 L 933.121,0 920.16,29.5195 l 12.961,5.75 z M 1863.36,2103.12 946.078,29.5195 920.16,40.3203 1837.44,2114.64 Z m 0,11.52 2.88,-5.75 -2.88,-5.77 -12.96,5.77 z M 946.078,4187.52 1863.36,2114.64 1837.44,2103.12 920.16,4176 Z m -25.918,0 12.961,29.52 12.957,-29.52 -12.957,-5.76 z M 2.16406,2114.64 920.16,4187.52 946.078,4176 28.082,2103.12 2.16406,2114.64 v 0"
           style="fill:#0e88d3;fill-opacity:1;fill-rule:nonzero;stroke:none"
           id="path16" />
        <path
           d="M 1144.08,1823.04 V 1681.2 h -15.12 v 141.11 c 5.04,0 9.36,0 15.12,0.73 z m 0,197.99 v -28.07 c -5.04,0.72 -9.36,0.72 -14.4,0 -40.32,-1.44 -60.48,-10.8 -60.48,-28.8 0.72,-18.72 21.6,-29.52 62.64,-31.68 4.32,-0.72 7.92,-0.72 12.24,-0.72 v -28.08 c -5.04,0 -9.36,0 -15.12,0 -22.32,2.16 -42.48,7.92 -59.76,18 -18,10.08 -26.64,24.48 -26.64,42.48 0.72,18 8.64,31.68 25.92,41.03 16.56,9.37 35.28,14.41 56.88,15.13 6.48,0.71 12.24,0.71 18.72,0.71 z m 0,146.89 V 2142 c -5.76,0 -10.8,0 -16.56,-0.72 -38.16,-4.33 -56.88,-15.12 -56.88,-31.68 0.72,-16.56 20.88,-26.64 61.2,-30.24 4.32,-0.73 7.92,-0.73 12.24,-0.73 v -28.79 c -9.36,-0.72 -18.72,0 -28.8,2.16 -19.44,3.6 -36.72,10.79 -51.12,22.32 -13.68,10.8 -20.88,23.76 -21.6,37.44 0,13.68 7.92,25.91 23.04,35.28 15.12,9.37 33.84,15.84 54.72,19.44 7.92,1.44 15.84,1.44 23.76,1.44 z m 0,371.52 v -157.68 c -5.76,1.44 -10.08,1.44 -15.12,1.44 v 156.24 z m -74.88,-280.08 c 0,-15.84 18,-26.64 54.72,-32.41 7.2,-0.71 13.68,-1.43 20.16,-0.71 v -25.21 c -7.2,-0.71 -14.4,0 -22.32,0.73 -20.88,2.88 -38.88,8.64 -54.72,18 -15.84,10.08 -23.76,23.03 -24.48,39.6 0,15.12 7.92,28.08 23.76,38.16 16.56,10.8 34.56,16.56 56.16,19.44 7.2,0.72 14.4,0.72 21.6,0 v -26.64 c -5.76,0 -10.8,-0.72 -16.56,-1.44 -38.16,-5.04 -57.6,-15.12 -58.32,-29.52 z m 74.88,-33.12 c 28.08,0 53.28,10.8 75.61,30.96 -20.17,21.6 -45.36,33.12 -75.61,33.12 v 26.64 c 13.68,0 28.08,-2.88 41.76,-7.2 21.6,-7.2 37.44,-20.16 48.95,-38.16 15.13,29.52 11.53,38.88 0.73,65.52 -6.48,18 -56.16,39.6 -91.44,44.64 v 157.68 h 7.2 v -135.36 c 38.16,-3.6 98.64,-31.68 108.72,-64.08 11.52,-33.84 7.92,-50.4 -9.36,-84.24 29.53,-57.61 28.8,-105.84 -1.44,-144 16.56,-25.92 23.76,-51.12 22.32,-75.6 -1.43,-24.48 -8.64,-46.8 -22.32,-66.96 18.72,-27.37 23.04,-61.2 14.4,-102.96 -9.36,-41.05 -75.6,-67.68 -112.32,-67.68 V 1681.2 h -7.2 v 141.84 c 37.44,3.6 90.71,20.87 97.2,45.36 7.92,28.08 5.76,54 -5.04,77.76 -7.2,-15.13 -20.88,-26.64 -42.48,-33.85 -15.84,-5.04 -32.4,-7.91 -49.68,-8.63 v 28.08 c 34.56,0.72 59.76,11.52 75.61,32.4 -17.29,18 -42.49,28.08 -75.61,28.8 v 28.07 c 15.12,-0.71 29.52,-3.59 43.92,-7.19 20.88,-5.76 35.28,-14.4 43.92,-26.64 12.96,20.16 18.72,38.87 15.84,57.6 -2.15,17.99 -7.19,33.83 -14.4,47.51 -15.84,-19.43 -34.56,-31.67 -56.16,-37.44 -10.8,-3.59 -22.32,-5.03 -33.12,-5.03 v 28.79 c 33.84,-0.71 59.04,10.09 75.61,33.13 -20.17,20.15 -45.36,30.24 -75.61,30.24 v 25.92 c 12.96,0 25.92,-1.44 38.88,-4.33 20.88,-4.31 38.16,-15.1 50.4,-30.23 22.32,28.8 21.6,61.91 -1.44,99.36 -10.8,-12.96 -26.64,-21.61 -47.53,-26.65 -13.67,-3.59 -26.63,-5.04 -40.31,-5.04 v 25.21"
           style="fill:#ffffff;fill-opacity:1;fill-rule:evenodd;stroke:none"
           id="path18" />
        <path
           d="m 1145.52,1798.56 v 7.2 h 5.76 v -7.2 z m 102.24,30.96 c -25.91,-23.76 -69.12,-38.16 -96.48,-38.16 v 14.4 c 25.19,0 65.53,12.96 89.29,35.27 z m 13.68,15.84 c -3.6,-5.76 -8.64,-10.8 -13.68,-15.84 l -7.19,11.51 c 4.31,4.33 8.63,8.65 11.51,12.96 z m 7.92,19.44 c -1.44,-7.2 -4.32,-12.97 -7.92,-19.44 l -9.36,8.63 c 2.88,4.33 4.32,9.37 5.76,14.41 z m 0,0 v 0 l -5.76,1.44 z m 0,0 v 0 l -11.52,3.6 v 0 z m 2.88,59.76 c 2.88,-18 1.44,-38.15 -2.88,-59.76 l -11.52,3.6 c 4.32,19.44 5.04,37.44 2.88,54 z m -18,48.96 c 9.36,-14.4 15.85,-30.96 18,-48.96 l -11.52,-2.16 c -2.16,15.84 -7.2,29.51 -15.84,42.47 z m -9.36,-8.65 -2.88,4.33 2.88,4.32 4.32,-4.32 z m 29.51,48.97 c -3.59,-17.28 -10.79,-33.84 -20.15,-48.97 l -9.36,8.65 c 8.64,13.68 15.12,28.08 18,43.92 z m 1.45,10.8 c 0,-3.61 -0.72,-7.2 -1.45,-10.8 l -11.51,3.6 c 0.72,2.88 1.45,5.75 1.45,9.36 z m 1.44,10.8 c 0,-3.61 -0.72,-7.2 -1.44,-10.8 l -11.51,2.16 c 0.71,2.88 0.71,6.48 1.43,9.36 z m 0,0 v 0 l -11.52,0.72 v 0.71 z m -11.52,1.43 v 0 l 5.76,-0.71 z m 0,56.17 c 8.63,-19.45 12.24,-38.17 11.52,-57.6 l -11.52,1.43 c 0.71,15.85 -2.88,33.13 -10.08,49.69 z m -5.04,11.52 c 2.16,-3.6 3.61,-7.92 5.04,-11.52 l -10.08,-6.48 c -1.44,3.6 -2.88,7.2 -5.04,10.08 z m -6.48,10.8 c 2.16,-3.6 4.32,-7.21 6.48,-10.8 l -10.08,-7.92 c -1.44,3.59 -3.6,7.2 -5.76,10.8 z m 0,0.71 v -0.71 l -9.36,-7.92 v 0 z m -9.36,-8.63 -2.88,5.04 2.88,4.32 4.32,-5.04 z m 29.51,102.24 c 9.37,-39.6 2.17,-73.44 -20.87,-102.96 l -8.64,10.08 c 20.16,25.2 25.92,54.72 18,89.27 z m -7.19,23.76 c 2.89,-8.64 5.76,-15.84 7.19,-23.76 l -11.51,-3.61 c -1.44,7.21 -3.6,13.69 -5.76,20.88 z m -10.08,23.76 c 3.6,-7.92 7.21,-15.84 10.08,-23.76 l -10.08,-6.49 c -2.88,7.21 -6.48,15.13 -10.08,23.05 z m -1.44,2.16 c 1.44,-2.16 0.72,-0.73 1.44,-2.16 l -10.08,-7.2 c -1.43,2.88 -0.72,0.72 -1.43,1.44 z m -10.07,-7.92 -1.45,3.6 1.45,4.32 5.03,-3.6 z m 26.63,45.36 c -2.15,-13.68 -7.2,-26.64 -16.56,-44.64 l -10.07,7.2 c 8.63,15.84 12.95,27.36 14.39,39.6 z m -6.48,46.08 c 5.76,-18 7.92,-32.4 6.48,-46.08 l -12.24,2.16 c 1.44,11.52 0,23.04 -5.04,38.88 z m -77.04,59.76 c 33.84,-12.24 68.4,-34.56 77.04,-59.76 l -10.8,-5.04 c -7.2,20.16 -38.89,40.32 -69.12,51.12 z m -18.72,5.76 c 5.76,-1.44 12.24,-3.6 18.72,-5.76 l -2.88,-13.68 c -6.48,2.16 -12.24,4.32 -18,5.04 z m -18,2.88 c 5.76,-0.72 11.52,-1.44 18,-2.88 l -2.16,-14.4 c -6.48,1.44 -11.52,2.88 -16.56,2.88 z m 0,0 v 0 l -0.72,-14.4 h -0.71 z m -1.43,-14.4 -5.05,0.72 v 6.48 h 5.76 z m 6.47,142.56 v -135.36 h -11.52 v 135.36 z m -5.76,7.2 h 5.76 v -7.2 h -5.76 z m -22.32,0 h 22.32 v -13.68 h -22.32 z m -5.76,-7.2 v 7.2 h 5.76 v -7.2 z m 0,-156.24 v 156.24 h 12.24 V 2383.2 Z m 5.76,-7.2 h -5.76 v 7.2 h 5.76 z m 85.68,-27.36 C 1191.6,2363.76 1152,2376 1128.96,2376 v 14.4 c 24.48,0 66.24,-13.68 91.44,-28.8 z m 10.8,-7.92 c -2.88,2.16 -6.48,5.04 -10.8,7.92 l 5.76,12.96 c 5.04,-3.6 9.37,-6.48 12.25,-10.08 z m 5.04,-6.48 c -0.71,1.44 -2.16,3.6 -5.04,6.48 l 7.21,10.8 c 4.31,-3.6 7.18,-7.2 8.63,-11.52 z m 0,0 v 0 l 5.04,2.88 z m 0,0 v 0 l 10.8,5.76 v 0 z m 0,0 v 0 l 5.04,2.88 z m 0,-0.72 c 0,0.72 0,0.72 0,0.72 l 10.8,5.76 c 0,0 -0.71,0.72 0,0 z m 10.8,6.48 v 0 l -5.04,-2.88 z m -11.51,-65.52 c 13.67,27.36 10.06,36 0.71,59.76 l 10.8,5.76 c 11.52,-28.8 15.12,-39.6 -1.45,-72 z m 10.06,-6.48 -4.31,-8.64 -5.75,7.92 5.02,4.32 z m -34.55,41.04 c 13.68,-7.92 25.2,-19.44 34.55,-33.84 l -10.06,-7.92 c -7.21,12.24 -17.29,21.6 -29.54,28.8 z m -8.64,3.6 c 2.88,-0.72 5.76,-2.16 8.64,-3.6 l -5.05,-12.96 c -2.87,1.44 -5.03,2.16 -7.92,3.6 z m -9.36,3.6 c 2.89,-0.72 6.48,-2.16 9.36,-3.6 l -4.33,-12.96 c -2.87,0.72 -5.03,2.16 -7.92,2.88 z m -2.89,-13.68 v 0 l 1.45,7.2 z m 2.89,13.68 v 0 l -2.89,-13.68 v 0 z m 0,0 v 0 l -1.44,-6.48 z m -33.12,7.2 c 10.8,-0.72 22.31,-3.6 33.12,-7.2 l -2.89,-13.68 c -10.79,3.6 -20.87,5.76 -30.95,7.2 z m -32.4,0 c 11.52,1.44 21.6,1.44 32.4,0 l -0.72,-13.68 c -10.79,0.72 -20.16,0.72 -30.24,0 z m 0,0 v 0 l 0.72,-6.48 z m -43.2,-11.52 c 12.96,6.48 27.36,10.08 43.2,11.52 l 1.44,-13.68 c -15.12,-1.44 -28.08,-5.04 -40.32,-10.8 z m -7.2,-3.6 c 2.16,1.44 5.04,2.88 7.2,3.6 l 4.32,-12.96 c -2.16,-1.44 -5.04,-2.16 -7.2,-3.6 z m -7.2,-4.32 c 2.16,1.44 4.32,2.88 7.2,4.32 l 4.32,-12.96 c -1.44,-0.72 -4.32,-2.16 -6.48,-3.6 z m 5.04,-12.24 v 0 l -2.16,5.76 z m -5.04,12.24 c 0,0 -0.72,0 0,0 l 5.04,-12.24 c -0.72,-0.72 0,0 0,0 z m -27.36,-44.64 c 0,18 9.36,33.12 27.36,44.64 l 5.04,-12.24 c -13.68,-9.36 -20.88,-20.16 -20.88,-32.4 z m 0,-0.73 v 0.73 h 5.76 z m 7.2,-25.91 c -4.32,7.92 -7.2,16.56 -7.2,25.91 l 11.52,0.73 c 0.72,-6.48 2.16,-12.95 5.04,-18 z m 20.16,-18.73 c -8.64,5.04 -15.12,11.53 -20.16,18.73 l 9.36,8.64 c 3.6,-5.76 9.36,-10.79 15.84,-15.12 z m 0,0 v 0 l 2.88,5.77 z m 39.6,-15.84 c -14.4,2.88 -28.08,8.65 -39.6,15.84 l 5.04,12.25 c 10.8,-6.48 23.04,-11.51 36.72,-14.41 z m 8.64,-2.15 c -2.88,0.72 -5.76,1.44 -8.64,2.15 l 2.16,13.68 c 2.88,-0.72 5.04,-1.43 7.92,-1.43 z m 8.64,-1.44 c -2.88,0.71 -5.76,1.44 -8.64,1.44 l 1.44,14.4 c 2.88,-0.72 5.76,-1.44 8.64,-1.44 z m 0,0 v 0 l 0.72,7.2 z m 0.72,0 h -0.72 l 1.44,14.4 v 0 z m 45.36,0.71 c -15.12,-2.15 -30.96,-2.15 -45.36,-0.71 l 0.72,14.4 c 13.68,-1.44 28.8,-1.44 43.2,0.72 z m 9.35,1.45 c -2.87,0 -6.47,-0.72 -9.35,-1.45 l -1.44,14.41 c 2.88,0 5.76,0.72 8.65,1.43 z m 8.65,2.17 c -2.88,-0.74 -5.76,-1.45 -8.65,-2.17 l -2.14,14.39 c 2.87,0.72 5.76,0.72 8.63,1.45 z m 0,0 v 0 l -2.16,13.67 v 0 z m 0,0 v 0 l -0.73,7.18 z m 28.81,11.51 c -7.92,-5.04 -17.29,-8.64 -28.81,-11.51 l -2.16,13.67 c 10.08,2.88 18.72,6.47 26.64,10.09 z m 21.59,17.27 c -5.75,-7.19 -12.96,-12.94 -21.59,-17.27 l -4.33,12.25 c 7.21,4.3 12.96,9.35 18.01,15.1 z m -7.91,10.08 5.04,5.77 3.59,-6.48 -4.32,-4.32 z m 13.67,-76.31 c 5.76,20.16 1.44,42.48 -14.4,66.96 l 9.36,8.64 c 18,-28.8 23.76,-55.44 16.56,-79.92 z m -4.32,-11.52 c 2.16,4.32 3.61,7.92 4.32,11.52 l 11.52,-4.32 c -1.44,-5.04 -3.6,-10.08 -5.76,-14.4 z m -7.19,-10.8 c 2.88,3.6 5.02,7.2 7.19,10.8 l 10.08,-7.2 c -2.88,-4.32 -5.76,-9.36 -8.64,-13.69 z m 8.63,-10.09 v 0 l -4.32,5.05 z m -9.36,8.64 c 0,0.73 0,0.73 0.73,1.45 l 8.63,-10.09 -0.71,-0.71 z m 8.65,-9.35 -4.33,-5.76 -4.32,5.76 4.32,5.04 z m -36.01,36.72 c 14.39,-5.76 26.64,-15.12 36.01,-27.37 l -8.65,-9.35 c -7.92,10.08 -18.72,18 -30.95,23.76 z m -8.64,3.59 c 2.89,-1.43 5.76,-2.15 8.64,-3.59 l -3.59,-12.96 c -2.89,0.71 -5.05,1.44 -7.92,2.88 z m -9.36,2.17 c 3.6,-0.72 6.49,-1.44 9.36,-2.17 l -2.87,-13.67 c -2.89,0.72 -5.78,1.45 -8.65,2.16 z m 0,0 v 0 l -0.72,-7.21 z m 0,0 v 0 l -2.16,-13.68 v 0 z m -32.4,4.32 c 10.8,-0.72 21.6,-2.16 32.4,-4.32 l -2.16,-13.68 c -10.08,2.16 -20.88,3.6 -30.95,3.6 z m -31.68,-1.44 c 10.8,1.44 20.88,2.16 31.68,1.44 l -0.71,-14.4 c -10.09,0.72 -19.45,0 -30.25,-1.44 z m 0,0 v 0 l 0.72,-7.2 z m -30.24,-7.92 c 9.36,3.6 19.44,5.76 30.24,7.92 l 1.44,-14.4 c -10.08,-1.44 -20.16,-3.6 -28.8,-7.2 z m -26.64,-12.24 c 7.92,5.04 17.28,9.36 26.64,12.24 l 2.88,-13.68 c -8.64,-2.88 -16.56,-6.48 -23.76,-11.51 z m 5.76,-12.95 v 0 l -2.88,6.47 z m -24.48,-5.05 c 4.32,6.48 10.8,12.23 18.72,18 l 5.76,-12.95 c -7.2,-4.33 -12.24,-8.66 -15.12,-13.7 z m -7.2,-23.76 c 0,8.64 2.16,16.56 7.2,23.76 l 9.36,-8.65 c -2.88,-5.04 -5.04,-10.07 -5.04,-15.11 z m 0,0 v 0 h 5.76 z m 12.24,-32.4 c -7.92,10.08 -12.24,20.87 -12.24,32.4 h 11.52 c 0.72,-7.92 3.6,-15.12 9.36,-22.32 z m 0,0 v 0 l 4.32,5.04 z m 5.04,-5.04 c -1.44,1.44 -2.88,3.6 -5.04,5.04 l 8.64,10.08 c 1.44,-1.44 2.88,-2.88 4.32,-4.32 z m 5.76,-5.04 c -1.44,1.44 -3.6,2.88 -5.76,5.04 l 7.92,10.8 c 1.44,-1.44 2.88,-2.88 5.04,-4.32 z m 1.44,-1.44 c 0,0 -0.72,0.72 -1.44,1.44 l 7.2,11.52 c 0,0 0,0 0.72,-0.72 z m 6.48,12.24 v 0 l -3.6,-5.76 z m 18,-26.64 c -8.64,3.6 -17.28,8.64 -24.48,15.12 l 6.48,11.52 c 6.48,-5.04 13.68,-10.08 22.32,-13.67 z m 28.8,-8.64 c -10.08,1.44 -20.16,5.04 -28.8,8.64 l 4.32,12.97 c 7.92,-3.62 16.56,-5.77 26.64,-7.92 z m 2.16,13.69 v 0 l -1.44,-6.49 z m 43.2,-14.41 c -15.84,-2.88 -30.24,-2.17 -45.36,0.72 l 2.16,13.69 c 13.68,-2.17 27.36,-2.89 41.76,-0.74 z m 9.36,1.44 c -3.6,-0.72 -6.48,-1.44 -9.36,-1.44 l -1.44,13.67 c 2.88,0.74 5.76,0.74 8.64,1.45 z m 9.36,2.15 c -3.6,-0.72 -6.48,-1.43 -9.36,-2.15 l -2.16,13.68 c 2.88,0.72 5.76,1.44 8.64,2.16 z m 0,0 v 0 l -1.44,6.49 z m 0,0 v 0 l -2.88,13.69 h 0.71 z m 44.64,24.49 c -13.68,-12.24 -28.08,-20.16 -44.64,-24.49 l -2.17,13.69 c 14.41,4.32 28.09,11.52 39.6,21.6 z m 7.2,7.2 c -2.87,-2.88 -5.04,-5.04 -7.2,-7.2 l -7.21,10.8 c 2.17,2.16 4.33,4.31 6.49,6.48 z m 7.21,7.91 c -2.9,-2.87 -5.04,-5.75 -7.21,-7.91 l -7.92,10.08 c 2.17,2.87 4.32,5.04 6.48,7.92 z m -8.65,10.09 v 0 l 4.32,-5.05 z m 8.65,-10.09 v 0 l -8.65,10.09 c 0,0 -0.72,-0.72 0,-0.72 z m -8.65,9.37 5.04,7.2 4.32,-7.92 -5.04,-3.61 z m 10.79,-38.89 c -2.87,11.53 -6.47,21.61 -11.51,30.25 l 10.08,7.92 c 5.04,-10.08 9.36,-21.6 12.24,-34.56 z m 1.45,-7.18 c -0.71,2.15 -1.45,5.03 -1.45,7.18 l 10.81,3.61 c 0.72,-2.16 1.44,-5.04 1.44,-7.92 z m 0.72,-7.21 c 0,2.88 -0.72,5.04 -0.72,7.21 l 10.8,2.87 c 0.72,-2.87 1.44,-5.04 1.44,-7.92 z m 0,0 v 0 l 11.52,2.16 v 0 z m 0,0 v 0 l 5.76,1.44 z m -2.17,-24.47 c 2.89,7.91 3.61,16.55 2.17,24.47 l 11.52,2.16 c 1.44,-10.08 0.72,-20.88 -2.16,-30.96 z m -12.95,-26.65 c 6.48,8.64 10.81,17.99 12.95,26.65 l 11.53,-4.33 c -2.88,-10.8 -7.92,-20.88 -15.12,-31.68 z m 9.36,-9.36 -4.32,-6.47 -4.31,6.47 4.31,4.32 z m -30.23,31.68 c 12.95,-5.76 23.03,-12.96 30.23,-22.32 l -8.63,-9.36 c -5.76,7.2 -14.41,13.68 -25.93,18.72 z m -7.92,3.59 c 2.88,-1.43 5.03,-2.15 7.92,-3.59 l -4.33,-12.96 c -2.16,0.71 -4.32,2.16 -7.2,2.88 z m -8.65,2.17 c 2.87,-0.72 5.76,-1.43 8.65,-2.17 l -3.61,-13.67 c -2.17,0.71 -5.04,1.44 -7.92,2.16 z m 0,0.71 v -0.71 l -1.44,-6.48 z m 0,-0.71 c 0,0 -0.72,0.71 0,0.71 l -2.88,-14.39 v 0 z m 0,0 v 0 l -1.44,-6.48 z m -46.08,7.2 c 15.12,0 30.97,-2.88 46.08,-7.2 l -2.88,-13.68 c -14.4,4.32 -28.8,6.48 -43.91,7.2 z m -8.64,0.72 c 2.16,0 5.04,0 8.64,-0.72 l -0.71,-13.68 c -2.89,0 -5.77,0 -7.93,0 z m -9.36,-0.72 c 2.88,0 5.76,0.72 9.36,0.72 v -14.4 c -2.88,0 -5.76,0 -8.64,0 z m 0,0 v 0 -7.2 z m 0,0 c 0,0 -0.72,0 0,0 l 0.72,-13.68 c -0.72,-0.72 0,0 -0.72,-0.72 z m -43.92,-8.63 c 12.96,5.03 28.08,7.91 43.92,8.63 v -14.4 c -14.4,-0.72 -28.08,-3.6 -41.04,-7.93 z m -7.92,-3.62 c 2.16,1.45 5.04,2.17 7.92,3.62 l 2.88,-13.7 c -2.16,-0.71 -4.32,-2.15 -6.48,-2.88 z m -7.2,-3.59 c 2.16,1.44 4.32,2.88 7.2,3.59 l 4.32,-12.96 c -2.16,-1.43 -5.04,-2.15 -7.2,-3.59 z m -0.72,0 h 0.72 l 4.32,-12.96 v 0 z m 5.04,-12.96 v 0 l -2.16,6.47 z m -30.96,-16.56 c 4.32,12.24 12.96,22.32 25.92,29.52 l 5.04,-12.96 c -10.08,-5.76 -16.56,-12.96 -20.16,-21.6 z m -2.16,-7.92 c 0.72,2.88 1.44,5.76 2.16,7.92 l 10.8,-5.04 c -0.72,-2.16 -0.72,-3.6 -1.44,-5.76 z m 0,0 v 0 l 5.76,-1.45 z m -0.72,-8.64 c 0,2.89 0.72,5.76 0.72,8.64 l 11.52,-2.88 c 0,-2.16 0,-3.61 0,-5.76 z m 12.24,0 v 0 h -6.48 z m -12.24,-1.44 c 0,0.71 0,1.44 0,1.44 h 12.24 c 0,-0.73 -0.72,-1.44 -0.72,-1.44 z m 0,0 v 0 h 5.76 z m 15.84,-38.89 c -10.8,10.8 -15.84,23.76 -15.84,38.89 h 11.52 c 0,-10.8 4.32,-20.17 11.52,-27.36 z m 6.48,-5.04 c -2.16,1.45 -4.32,3.61 -6.48,5.04 l 7.2,11.53 c 2.16,-2.16 3.6,-3.61 5.76,-5.04 z m 7.2,-5.04 c -2.16,1.45 -5.04,2.89 -7.2,5.04 l 6.48,11.53 c 1.44,-1.44 3.6,-2.16 5.76,-3.61 z m 5.04,12.96 v 0 l -2.16,-6.47 z m -5.04,-12.96 v 0 l 5.04,12.96 v 0 z m 29.52,-12.23 c -10.08,2.88 -20.16,6.48 -29.52,12.23 l 5.04,12.96 c 8.64,-5.03 17.28,-8.63 27.36,-11.51 z m 33.12,-5.76 c -11.52,0.72 -22.32,2.16 -33.12,5.76 l 2.88,13.68 c 9.36,-2.88 20.16,-5.04 30.96,-5.76 z m 48.24,2.88 c -16.56,-2.88 -32.41,-4.32 -48.24,-2.88 l 0.72,13.68 c 15.11,-0.72 30.24,0 45.36,3.6 z m 8.64,2.88 c -2.88,-1.44 -5.75,-2.16 -8.64,-2.88 l -2.16,14.4 c 2.88,0.71 5.76,1.44 8.64,2.16 z m 9.36,2.88 c -2.89,-1.44 -6.48,-2.16 -9.36,-2.88 l -2.16,13.68 c 2.88,0.72 5.76,1.44 8.63,2.16 z m 0,0 v 0 l -1.44,6.47 z m 0,0 v 0 l -2.89,12.96 v 0.72 z m 0.73,0 h -0.73 l -1.44,6.47 z m 36.72,23.05 c -8.66,-10.09 -20.88,-18.01 -36.72,-23.05 l -3.62,13.68 c 14.41,4.32 25.21,10.8 32.42,19.44 z m 5.04,7.18 c -1.45,-2.88 -2.9,-5.04 -5.04,-7.18 l -7.92,10.07 c 1.43,2.15 2.15,3.6 3.59,5.03 z m -9.37,7.92 v 0 l 4.33,-4.31 z m 12.96,-1.43 c -0.71,-2.16 -2.16,-4.32 -3.59,-6.49 l -9.37,7.92 c 0.72,2.17 2.16,3.61 2.88,5.77 z m -10.08,7.2 v 0 l 5.04,-3.6 z m 10.08,-7.2 v 0 l -10.08,7.2 v 0 z m -10.08,7.2 5.04,10.81 5.04,-10.81 -5.04,-3.6 z m 8.63,-41.04 c -0.71,11.51 -3.59,23.04 -8.63,33.84 l 10.08,7.2 c 5.76,-12.96 9.36,-25.92 10.08,-40.32 z m -4.31,-38.15 c 3.6,12.95 5.05,25.91 4.31,38.15 l 11.53,0.72 c 1.44,-13.68 0,-28.08 -4.32,-43.2 z m -62.64,-35.3 c 29.52,7.21 59.04,19.46 62.64,35.3 l 11.52,-4.33 c -5.76,-21.6 -38.89,-36.72 -72,-44.64 z m -17.27,-3.59 c 5.75,0.72 11.51,2.16 17.27,3.59 l 2.16,-13.67 c -5.76,-1.44 -12.24,-2.88 -18,-4.33 z m -25.93,-2.88 c 6.48,0 15.84,1.43 25.93,2.88 l 1.43,-14.41 c -10.8,-1.43 -20.16,-2.15 -27.36,-2.15 z m -0.72,0 h 0.72 v -13.68 h -0.72 z m -5.76,-6.49 v 6.49 h 5.76 v -6.49 z m 0,-141.11 v 141.11 h 12.24 V 1681.2 Z m 5.76,-7.21 h -5.76 v 7.21 h 5.76 z m 22.32,0 h -22.32 v 14.41 h 22.32 z m 5.76,7.21 v -7.21 h -5.76 v 7.21 z m 0,117.36 V 1681.2 h -11.52 v 117.36 z m -93.6,165.6 v 0 h 5.76 z m 23.04,14.4 c -7.92,-3.6 -11.52,-8.64 -11.52,-14.4 h -11.52 c 0,12.25 5.76,21.6 18.72,27.36 z m 43.2,7.2 c -19.44,0 -33.84,-2.88 -43.2,-7.2 l -4.32,12.96 c 10.8,5.04 26.64,7.92 47.52,8.64 z m 51.12,-5.76 c -14.4,5.04 -31.68,6.48 -51.12,5.76 v 14.4 c 20.15,0.72 38.16,-1.44 54,-6.48 z m 35.27,-20.88 c -9.35,9.37 -20.87,16.56 -35.27,20.88 l 2.88,13.68 c 15.84,-5.05 29.52,-12.96 40.31,-23.76 z m 7.92,10.8 4.33,-5.05 -4.33,-5.03 -4.3,4.32 z m -41.75,-24.48 c 13.69,5.04 25.2,12.96 33.83,23.76 l 7.92,-9.36 c -9.35,-12.97 -22.31,-22.32 -38.15,-28.08 z m -50.4,-5.76 c 19.44,-1.44 36,0.72 50.4,5.76 l 3.6,-13.68 c -15.84,-5.76 -33.84,-7.92 -54.72,-6.49 z m -0.72,-14.41 v 0 l 0.72,7.21 z m -43.92,23.76 c 10.08,-5.04 25.2,-8.63 44.64,-9.35 l -0.72,-14.41 c -20.88,1.45 -36.72,5.05 -48.24,10.8 z m -12.24,15.84 c 0,-6.47 4.32,-11.51 12.24,-15.84 l -4.32,-12.96 c -12.24,6.49 -19.44,15.84 -19.44,28.09 z m -10.08,144.73 v 0 h 5.76 z m 22.32,13.68 c -7.2,-3.6 -10.8,-7.92 -10.8,-13.68 h -11.52 c 0,11.51 5.76,20.16 17.28,26.64 z m 41.04,10.8 c -18.72,-2.17 -32.4,-5.76 -41.04,-10.8 l -5.04,12.96 c 10.08,5.76 25.2,9.36 44.64,12.25 z m 66.96,-11.52 c -18.73,10.8 -41.76,14.39 -66.96,11.52 l -1.44,14.41 c 27.36,2.87 52.56,-1.45 73.43,-13.69 z m 10.81,-7.2 c -2.89,2.16 -6.49,5.04 -10.81,7.2 l 5.03,12.24 c 4.33,-2.15 8.65,-5.04 12.25,-7.93 z m 6.47,11.51 v 0 l -2.88,-5.76 z m 3.59,-20.87 c -2.87,3.6 -6.47,6.48 -10.06,9.36 l 6.47,11.51 c 3.59,-2.88 7.21,-5.76 11.51,-9.35 z m 7.92,11.52 v 0 l -4.3,-5.76 z m -7.92,-11.52 v 0 l 7.92,11.52 v 0 z m 7.92,11.52 4.33,-5.04 -3.59,-5.76 -5.04,5.04 z m -42.47,-26.64 c 13.68,5.04 25.2,13.68 33.84,25.92 l 9.37,-10.08 c -10.8,-13.68 -23.76,-23.04 -39.61,-29.52 z m -48.96,-5.04 c 18.01,-1.44 35.28,0 48.96,5.04 l 3.6,-13.68 c -15.84,-5.04 -33.84,-7.2 -54,-5.04 z M 1080,2102.4 c 7.92,-7.92 25.2,-13.68 52.56,-16.56 l -1.44,-13.68 c -29.52,2.88 -49.68,9.36 -59.04,19.44 z m -2.88,3.6 c 0.72,-0.73 1.44,-2.16 2.88,-3.6 l -7.92,-10.8 c -2.16,2.88 -3.6,5.04 -5.04,7.92 z m -0.72,3.6 c 0,-0.71 0.72,-2.16 0.72,-3.6 l -10.08,-6.48 c -1.44,2.88 -2.16,6.48 -2.16,9.37 z m 0,0.72 c 0,-0.72 0,0 0,-0.72 l -11.52,-0.71 c 0,0 0,0 0,0.71 z m -12.96,149.04 v 0 h 5.76 z m 23.04,12.24 c -7.2,-3.6 -11.52,-7.92 -11.52,-12.97 l -11.52,0.73 c 0,10.8 6.48,18.72 18.72,24.48 z m 41.76,10.8 c -18.72,-2.88 -32.4,-6.48 -41.76,-10.8 l -4.32,12.24 c 10.08,5.76 25.2,9.36 44.64,12.24 z m 0,0 v 0 l -0.72,6.48 z m 48.96,-4.32 c -15.12,5.04 -31.68,6.48 -48.96,4.32 l -1.44,13.68 c 18.72,2.88 36.72,1.44 53.29,-4.32 z m 38.87,-25.92 c -11.51,12.24 -24.47,20.88 -38.87,25.92 l 2.89,13.68 c 16.55,-5.76 30.95,-15.84 43.9,-29.52 z m 7.92,10.08 5.05,-5.76 -5.76,-5.04 -3.59,5.76 z m -71.27,-28.8 c 23.04,2.16 44.64,12.24 64.09,29.52 l 6.47,-11.52 c -20.88,-18.72 -43.92,-29.53 -69.84,-32.41 z m -14.4,-0.72 c 5.04,0 10.08,0 14.4,0.72 l 0.72,-14.41 c -5.04,0 -10.08,0 -15.12,0 z m -13.68,1.44 c 5.04,-0.72 10.08,-0.72 13.68,-1.44 v -13.69 c -4.32,0 -9.36,0.73 -15.12,1.45 z m 0,0 v 0 l -1.44,-13.68 v 0 z m -46.8,17.28 c 6.48,-7.92 22.32,-13.69 46.8,-17.28 l -1.44,-13.68 c -27.36,3.6 -45.36,10.8 -53.28,20.88 z m -2.16,3.6 c 0.72,-0.72 1.44,-2.16 2.16,-3.6 l -7.92,-10.08 c -2.16,2.88 -3.6,5.05 -5.04,7.92 z m -0.72,3.59 c 0,-0.71 0,-2.15 0.72,-3.59 l -10.8,-5.76 c -0.72,2.88 -1.44,6.48 -1.44,9.35 z m 0,0.73 v -0.73 h -11.52 v 0.73 h 11.52 v 0"
           style="fill:#ffffff;fill-opacity:1;fill-rule:nonzero;stroke:none"
           id="path20" />
        <path
           d="M 1157.04,2539.44 H 721.441 v -367.2"
           style="fill:none;stroke:#ffffff;stroke-width:59.624;stroke-linecap:butt;stroke-linejoin:miter;stroke-miterlimit:4;stroke-dasharray:none;stroke-opacity:1"
           id="path22" />
        <path
           d="M 721.441,2052.72 V 1675.44 H 1157.04"
           style="fill:none;stroke:#ffffff;stroke-width:60.131;stroke-linecap:butt;stroke-linejoin:miter;stroke-miterlimit:4;stroke-dasharray:none;stroke-opacity:1"
           id="path24" />
        <path
           d="m 602.641,2188.8 h 246.242 v -41.05 H 602.641 v 41.05"
           style="fill:#ffffff;fill-opacity:1;fill-rule:nonzero;stroke:none"
           id="path26" />
        <path
           d="M 602.641,2052 H 848.883"
           style="fill:none;stroke:#ffffff;stroke-width:60.131;stroke-linecap:butt;stroke-linejoin:miter;stroke-miterlimit:4;stroke-dasharray:none;stroke-opacity:1"
           id="path28" />
        <path
           d="m 1087.2,2704.32 -177.841,177.84 29.524,30.24 178.557,-177.84 z m -329.04,29.52 179.281,179.28 30.239,-30.24 -179.282,-179.28 -30.238,30.24 v 0"
           style="fill:#ffffff;fill-opacity:1;fill-rule:nonzero;stroke:none"
           id="path30" />
        <path
           d="m 914.398,2539.44 v 334.08 h 42.481 v -334.08 h -42.481"
           style="fill:#ffffff;fill-opacity:1;fill-rule:nonzero;stroke:none"
           id="path32" />
        <path
           d="m 789.84,1552.31 h 294.48 v -42.48 H 789.84 v 42.48"
           style="fill:#ffffff;fill-opacity:1;fill-rule:nonzero;stroke:none"
           id="path34" />
        <path
           d="m 914.398,1532.88 v 142.56 h 42.481 v -142.56 h -42.481"
           style="fill:#ffffff;fill-opacity:1;fill-rule:nonzero;stroke:none"
           id="path36" />
        <path
           d="m 835.199,1424.87 h 203.761 v 42.49 H 835.199 v -42.49"
           style="fill:#ffffff;fill-opacity:1;fill-rule:nonzero;stroke:none"
           id="path38" />
        <path
           d="m 895.684,1382.4 h 82.796 v -43.2 h -82.796 v 43.2"
           style="fill:#ffffff;fill-opacity:1;fill-rule:nonzero;stroke:none"
           id="path40" />
        <path
           d="m 144,2093.76 -6.48,15.13 6.48,15.1 34.559,-15.1 z M 898.559,389.52 144,2093.76 213.121,2123.99 967.68,419.762 Z m 69.121,0 -34.559,-78.489 -34.562,78.489 34.562,15.121 z M 1721.52,2093.76 967.68,389.52 898.559,419.762 1652.4,2123.99 Z m 0,30.23 6.48,-15.1 -6.48,-15.13 -34.56,15.13 z M 967.68,3827.52 1721.52,2123.99 1652.4,2093.76 898.559,3797.28 Z m -69.121,0 34.562,77.76 34.559,-77.76 -34.559,-15.12 z M 144,2123.99 898.559,3827.52 967.68,3797.28 213.121,2093.76 144,2123.99 v 0"
           style="fill:#fffffc;fill-opacity:1;fill-rule:nonzero;stroke:none"
           id="path42" />
        <path
           d="m 144,2093.76 -6.48,15.13 6.48,15.1 34.559,-15.1 z M 898.559,389.52 144,2093.76 213.121,2123.99 967.68,419.762 Z m 69.121,0 -34.559,-78.489 -34.562,78.489 34.562,15.121 z M 1721.52,2093.76 967.68,389.52 898.559,419.762 1652.4,2123.99 Z m 0,30.23 6.48,-15.1 -6.48,-15.13 -34.56,15.13 z M 967.68,3827.52 1721.52,2123.99 1652.4,2093.76 898.559,3797.28 Z m -69.121,0 34.562,77.76 34.559,-77.76 -34.559,-15.12 z M 144,2123.99 898.559,3827.52 967.68,3797.28 213.121,2093.76 Z"
           style="fill:none;stroke:#ffffff;stroke-width:10;stroke-linecap:butt;stroke-linejoin:miter;stroke-miterlimit:4;stroke-dasharray:none;stroke-opacity:1"
           id="path44" />
        <path
           d="m 841.68,3368.88 v 54 h 49.683 v -54 z m 47.519,-208.8 c 0,-56.88 3.606,-92.88 10.082,-108 6.481,-15.12 18.723,-22.32 36.719,-22.32 v -51.84 c -23.039,0 -41.039,2.88 -55.437,10.08 -13.684,6.48 -25.922,18 -36,33.84 -7.922,10.8 -12.961,28.08 -16.559,49.68 -3.606,22.32 -5.043,51.84 -5.043,88.56 0,37.44 1.437,66.96 5.043,89.28 3.598,21.6 8.637,38.16 16.559,49.68 10.078,15.84 22.316,27.36 36,33.84 14.398,6.48 32.398,10.08 55.437,10.08 v -51.12 c -17.996,0 -30.238,-7.92 -36.719,-22.32 -6.476,-15.12 -10.082,-51.12 -10.082,-109.44 z m 92.164,208.8 v 54 h 49.677 v -54 z M 936,3029.76 c 0,0 0,0 0.719,0 17.281,0 29.519,7.2 36,21.6 7.203,14.4 10.086,51.12 10.086,108.72 0,58.32 -3.606,94.32 -10.086,109.44 -6.481,14.4 -18.719,22.32 -36.719,22.32 v 0 51.12 0 c 23.043,0 41.758,-3.6 55.441,-10.08 14.399,-6.48 25.919,-18 36.719,-33.84 7.2,-11.52 12.24,-28.08 15.84,-50.4 3.6,-22.32 5.04,-51.12 5.04,-88.56 0,-36.72 -1.44,-65.52 -5.04,-87.84 -3.6,-22.32 -8.64,-38.88 -15.84,-50.4 -10.8,-15.84 -22.32,-27.36 -36.719,-33.84 -13.683,-7.2 -32.398,-10.08 -55.441,-10.08 v 0 51.84 0"
           style="fill:#ffffff;fill-opacity:1;fill-rule:evenodd;stroke:none"
           id="path46" />
        <path
           d="m 414,1941.83 -78.477,347.77 h 69.118 L 456.48,2012.4 504,2289.6 h 68.402 L 498.961,1941.83 H 414"
           style="fill:#ffffff;fill-opacity:1;fill-rule:evenodd;stroke:none"
           id="path48" />
        <path
           d="m 1329.12,2061.36 h 65.52 v -22.33 c 0,-21.59 2.17,-35.99 7.92,-43.91 5.05,-7.92 14.4,-11.53 27.36,-11.53 13.68,0 24.47,3.61 31.68,10.81 7.2,6.48 10.8,16.56 10.8,30.24 0,10.8 -2.88,19.44 -7.92,27.36 -4.31,7.2 -15.12,16.56 -32.4,28.8 l -33.12,23.04 c -28.79,20.15 -46.8,36.73 -54.72,49.68 -7.92,12.96 -11.52,29.52 -11.52,48.96 0,29.52 8.64,51.84 25.92,68.4 17.29,16.56 41.76,24.48 72,24.48 32.4,0 56.88,-8.64 74.15,-25.92 17.29,-17.28 25.93,-42.49 25.93,-75.6 0,-3.61 0,-6.48 0,-7.92 0,-2.16 0,-3.61 -0.72,-5.04 h -61.2 v 9.35 c 0,18.73 -2.87,32.42 -9.36,40.34 -6.48,8.63 -16.56,12.22 -30.24,12.22 -10.8,0 -18.72,-2.87 -25.21,-8.63 -5.75,-6.49 -8.63,-15.13 -8.63,-25.92 0,-14.4 13.68,-30.97 40.32,-48.24 0,0 0,-0.72 0.72,-0.72 l 35.28,-24.48 c 25.93,-16.56 43.2,-32.4 51.84,-47.53 9.36,-15.11 13.68,-33.83 13.68,-57.59 0,-31.68 -8.64,-56.16 -27.37,-73.44 -17.98,-17.28 -43.9,-25.92 -77.75,-25.92 -34.56,0 -60.48,9.36 -77.75,27.35 -17.29,18.01 -25.93,46.09 -25.93,82.81 0,4.32 0.72,10.8 0.72,19.44 v 1.44"
           style="fill:#ffffff;fill-opacity:1;fill-rule:evenodd;stroke:none"
           id="path50" />
        <path
           d="m 901.441,891.359 -78.48,348.481 h 69.117 l 51.844,-278.641 46.801,278.641 h 69.117 L 986.402,891.359 h -84.961"
           style="fill:#ffffff;fill-opacity:1;fill-rule:evenodd;stroke:none"
           id="path52" />
      </g>
    </g>
  </g>
</svg>
